STARTFONT 2.1
COMMENT
COMMENT Converted from OpenType font "manrope-bold.otf" by "otf2bdf 3.0".
COMMENT
FONT -FreeType-Manrope-Bold-R-Normal--104-750-100-100-P-497-ISO10646-1
SIZE 75 100 100
FONTBOUNDINGBOX 106 135 -5 -27
STARTPROPERTIES 19
FOUNDRY "FreeType"
FAMILY_NAME "Manrope"
WEIGHT_NAME "Bold"
SLANT "R"
SETWIDTH_NAME "Normal"
ADD_STYLE_NAME ""
PIXEL_SIZE 104
POINT_SIZE 750
RESOLUTION_X 100
RESOLUTION_Y 100
SPACING "P"
AVERAGE_WIDTH 497
CHARSET_REGISTRY "ISO10646"
CHARSET_ENCODING "1"
FONT_ASCENT 110
FONT_DESCENT 31
COPYRIGHT "Copyright 2019-2021 The Manrope Project Authors (https://github.com/sharanda/manrope)"
_OTF_FONTFILE "manrope-bold.otf"
_OTF_PSNAME "Manrope-Bold"
ENDPROPERTIES
CHARS 191
STARTCHAR 0020
ENCODING 32
SWIDTH 201 0
DWIDTH 21 0
BBX 0 0 0 0
BITMAP
ENDCHAR
STARTCHAR 0021
ENCODING 33
SWIDTH 364 0
DWIDTH 38 0
BBX 13 75 12 0
BITMAP
FFF8
FFF8
FFF8
FFF8
FFF8
FFF8
FFF8
FFF8
FFF8
FFF8
FFF8
FFF8
FFF8
FFF8
FFF8
FFF8
FFF8
FFF8
FFF8
FFF8
FFF8
FFF8
FFF8
FFF8
FFF8
FFF8
FFF8
FFF8
FFF8
FFF8
FFF8
FFF8
FFF8
FFF8
FFF8
FFF8
FFF8
FFF8
FFF8
FFF8
FFF8
FFF8
FFF8
FFF8
FFF8
FFF8
FFF8
FFF8
FFF8
FFF8
FFF8
FFF8
FFF8
FFF8
FFF8
FFF8
0000
0000
0000
0000
0000
0000
0000
FFF8
FFF8
FFF8
FFF8
FFF8
FFF8
FFF8
FFF8
FFF8
FFF8
FFF8
FFF8
ENDCHAR
STARTCHAR 0022
ENCODING 34
SWIDTH 470 0
DWIDTH 49 0
BBX 32 19 6 56
BITMAP
FFF80FFF
FFF80FFF
FFF80FFF
FFF80FFF
FFF80FFF
FFF80FFF
FFF80FFF
FFF80FFF
FFF80FFF
FFF80FFF
FFF80FFF
FFF80FFF
FFF80FFF
FFF80FFF
FFF80FFF
FFF80FFF
FFF80FFF
FFF80FFF
FFF80FFF
ENDCHAR
STARTCHAR 0023
ENCODING 35
SWIDTH 931 0
DWIDTH 97 0
BBX 85 75 6 0
BITMAP
000000003FFC001FFE0000
000000007FFC003FFE0000
000000007FF8003FFC0000
000000007FF8003FFC0000
000000007FF8003FFC0000
00000000FFF8007FFC0000
00000000FFF0007FF80000
00000000FFF0007FF80000
00000001FFF000FFF80000
00000001FFE000FFF00000
00000001FFE000FFF00000
00000001FFE000FFF00000
00000003FFE001FFF00000
00000003FFC001FFE00000
00000003FFC001FFE00000
00000003FFC001FFE00000
00000007FFC003FFE00000
00000007FF8003FFC00000
00000007FF8003FFC00000
003FFFFFFFFFFFFFFFFFF8
007FFFFFFFFFFFFFFFFFF0
007FFFFFFFFFFFFFFFFFF0
007FFFFFFFFFFFFFFFFFF0
007FFFFFFFFFFFFFFFFFF0
00FFFFFFFFFFFFFFFFFFE0
00FFFFFFFFFFFFFFFFFFE0
00FFFFFFFFFFFFFFFFFFE0
01FFFFFFFFFFFFFFFFFFC0
01FFFFFFFFFFFFFFFFFFC0
01FFFFFFFFFFFFFFFFFFC0
01FFFFFFFFFFFFFFFFFFC0
0000007FFC003FFE000000
0000007FF8003FFC000000
0000007FF8003FFC000000
0000007FF8003FFC000000
000000FFF0007FF8000000
000000FFF0007FF8000000
000000FFF0007FF8000000
000001FFF000FFF8000000
000001FFE000FFF0000000
000001FFE000FFF0000000
000001FFE000FFF0000000
000003FFE001FFF0000000
1FFFFFFFFFFFFFFFFFFC00
1FFFFFFFFFFFFFFFFFFC00
1FFFFFFFFFFFFFFFFFFC00
3FFFFFFFFFFFFFFFFFF800
3FFFFFFFFFFFFFFFFFF800
3FFFFFFFFFFFFFFFFFF800
3FFFFFFFFFFFFFFFFFF800
7FFFFFFFFFFFFFFFFFF000
7FFFFFFFFFFFFFFFFFF000
7FFFFFFFFFFFFFFFFFF000
7FFFFFFFFFFFFFFFFFF000
FFFFFFFFFFFFFFFFFFE000
00001FFE000FFF00000000
00001FFE000FFF00000000
00003FFE001FFF00000000
00003FFC001FFE00000000
00003FFC001FFE00000000
00003FFC001FFE00000000
00007FFC003FFE00000000
00007FF8003FFC00000000
00007FF8003FFC00000000
00007FF8007FFC00000000
0000FFF0007FF800000000
0000FFF0007FF800000000
0000FFF0007FF800000000
0001FFF000FFF800000000
0001FFE000FFF000000000
0001FFE000FFF000000000
0001FFE000FFF000000000
0003FFE001FFF000000000
0003FFC001FFE000000000
0003FFC001FFE000000000
ENDCHAR
STARTCHAR 0024
ENCODING 36
SWIDTH 624 0
DWIDTH 65 0
BBX 57 96 4 -10
BITMAP
000001FFE0000000
000001FFE0000000
000001FFE0000000
000001FFE0000000
000001FFE0000000
000001FFE0000000
000001FFE0000000
000001FFE0000000
000001FFE0000000
000001FFE0000000
00000FFFFC000000
00007FFFFF800000
0003FFFFFFE00000
0007FFFFFFF80000
001FFFFFFFFC0000
003FFFFFFFFF0000
007FFFFFFFFF8000
00FFFFFFFFFFC000
01FFFFFFFFFFE000
03FFFFFFFFFFE000
03FFFFFFFFFFF000
07FFFF00FFFFF800
07FFF8001FFFFC00
0FFFE00007FFFC00
0FFFC00001FFFE00
0FFF800000FFFE00
1FFF0000007FFE00
1FFF0000007FFF00
1FFF0000003FFF00
1FFE0000001FFF00
1FFE0000001FFF80
1FFE0000001FFF00
1FFE0000000FC000
1FFF000000080000
1FFF000000000000
1FFF800000000000
1FFFC00000000000
0FFFF00000000000
0FFFFC0000000000
0FFFFF8000000000
07FFFFF000000000
07FFFFFF00000000
03FFFFFFE0000000
01FFFFFFFE000000
00FFFFFFFFC00000
007FFFFFFFF00000
003FFFFFFFFE0000
001FFFFFFFFF0000
0007FFFFFFFFC000
0001FFFFFFFFE000
00003FFFFFFFF000
000007FFFFFFF800
000000FFFFFFFC00
0000000FFFFFFE00
00000001FFFFFE00
000000003FFFFF00
0000000007FFFF00
0000000000FFFF80
00000000007FFF80
00000000001FFF80
00000000000FFF80
00000000000FFF80
00F800000007FF80
3FF800000007FF80
FFF800000007FF80
FFFC00000007FF80
FFFC00000007FF80
7FFE00000007FF80
7FFE0000000FFF80
7FFF0000000FFF80
3FFF8000001FFF80
3FFFC000003FFF00
1FFFE000007FFF00
1FFFF80000FFFE00
0FFFFE0003FFFE00
0FFFFFE03FFFFC00
07FFFFFFFFFFFC00
03FFFFFFFFFFF800
01FFFFFFFFFFF000
00FFFFFFFFFFE000
007FFFFFFFFFC000
003FFFFFFFFF8000
001FFFFFFFFF0000
0007FFFFFFFC0000
0001FFFFFFF00000
00007FFFFFC00000
00000FFFFC000000
000001FFE0000000
000001FFE0000000
000001FFE0000000
000001FFE0000000
000001FFE0000000
000001FFE0000000
000001FFE0000000
000001FFE0000000
000001FFE0000000
ENDCHAR
STARTCHAR 0025
ENCODING 37
SWIDTH 902 0
DWIDTH 94 0
BBX 82 79 6 -2
BITMAP
0001FE0000000000000000
000FFFC000000000000000
003FFFF000000000020000
00FFFFFC00000000070000
01FFFFFE000000000F8000
03FFFFFF000000001FC000
07FFFFFF800000003FE000
0FFFFFFFC00000007FF000
1FFFFFFFE0000000FFF800
1FFFFFFFE0000001FFFC00
3FFFFFFFF0000003FFFC00
3FFF03FFF0000007FFF800
7FFC00FFF800000FFFF000
7FF8007FF800001FFFE000
7FF0003FF800003FFFC000
7FF0003FF800007FFF8000
FFE0001FFC0000FFFF0000
FFE0001FFC0001FFFE0000
FFE0001FFC0003FFFC0000
FFE0001FFC0007FFF80000
FFE0001FFC000FFFF00000
FFE0001FFC001FFFE00000
7FF0003FF8003FFFC00000
7FF0003FF8007FFF800000
7FF8007FF800FFFF000000
7FFC00FFF801FFFE000000
3FFF03FFF003FFFC000000
3FFFFFFFF007FFF8000000
1FFFFFFFE00FFFF0000000
1FFFFFFFE01FFFE0000000
0FFFFFFFC03FFFC0000000
07FFFFFF807FFF80000000
03FFFFFF00FFFF00000000
01FFFFFE01FFFE00000000
00FFFFFC03FFFC00000000
003FFFF007FFF800000000
000FFFC00FFFF000000000
000078001FFFE000000000
000000003FFFC000000000
000000007FFF8000000000
00000000FFFF0000000000
00000001FFFE0007C00000
00000003FFFC00FFF80000
00000007FFF803FFFF0000
0000000FFFF00FFFFF8000
0000001FFFE01FFFFFE000
0000003FFFC03FFFFFF000
0000007FFF807FFFFFF800
000000FFFF00FFFFFFFC00
000001FFFE01FFFFFFFC00
000003FFFC01FFFFFFFE00
000007FFF803FFFFFFFF00
00000FFFF003FFF07FFF00
00001FFFE007FFC01FFF00
00003FFFC007FF800FFF80
00007FFF8007FF0007FF80
0000FFFF000FFF0003FF80
0001FFFE000FFE0003FF80
0003FFFC000FFE0001FF80
0007FFF8000FFE0001FFC0
000FFFF0000FFE0001FFC0
001FFFE0000FFE0001FF80
003FFFC0000FFE0003FF80
007FFF80000FFF0003FF80
00FFFF000007FF0007FF80
01FFFE000007FF8007FF80
03FFFC000007FFC00FFF00
07FFF8000007FFE03FFF00
0FFFF0000003FFFFFFFF00
0FFFE0000003FFFFFFFE00
07FFC0000001FFFFFFFE00
03FF80000000FFFFFFFC00
01FF000000007FFFFFF800
00FE000000003FFFFFF000
007C000000001FFFFFE000
0038000000000FFFFFC000
00100000000007FFFF0000
00000000000001FFFC0000
000000000000001FE00000
ENDCHAR
STARTCHAR 0026
ENCODING 38
SWIDTH 672 0
DWIDTH 70 0
BBX 64 78 5 -2
BITMAP
000003FF80000000
00003FFFF8000000
0001FFFFFF000000
0007FFFFFF800000
000FFFFFFFE00000
001FFFFFFFF00000
003FFFFFFFF80000
007FFFFFFFFC0000
00FFFFFFFFFE0000
01FFFFFFFFFF0000
01FFFFFFFFFF0000
03FFFFFFFFFF8000
03FFFE00FFFF8000
07FFF8003FFFC000
07FFE0000FFFC000
07FFC00007FFC000
0FFFC00007FC0000
0FFF800003C00000
0FFF800000000000
0FFF800000000000
0FFF800000000000
0FFF800000000000
0FFF800000000000
0FFF800000000000
0FFF800000000000
0FFFC00000000000
07FFC00000000000
07FFE00000000000
07FFF00000000000
03FFF80000000000
01FFFC0000000000
01FFFE0000000000
00FFFF0000000000
007FFF8000000000
003FFFC000000000
007FFFF000000000
00FFFFF800000000
01FFFFFC000FFE00
03FFFFFE000FFE00
07FFFFFF000FFE00
0FFFFFFF800FFE00
0FFFFFFFC00FFE00
1FFFFFFFE00FFE00
3FFFFFFFF00FFE00
3FFFCFFFF80FFE00
3FFF87FFFC0FFE00
7FFF03FFFF0FFE00
7FFE01FFFF8FFE00
7FFC00FFFFCFFE00
7FFC007FFFEFFE00
FFF8003FFFFFFE00
FFF8001FFFFFFE00
FFF80007FFFFFE00
FFF80003FFFFFE00
FFF80001FFFFFE00
FFF80000FFFFFE00
FFF800007FFFFE00
FFF800003FFFFE00
7FFC00001FFFFE00
7FFC00000FFFFC00
7FFE000007FFFE00
7FFE000003FFFF00
3FFF000001FFFF80
3FFFC00003FFFFC0
3FFFE0000FFFFFE0
1FFFFC007FFFFFF0
0FFFFFFFFFFFFFF8
0FFFFFFFFFFFFFFC
07FFFFFFFFFFFFFF
03FFFFFFFFFFFFFE
01FFFFFFFFFFFFFC
00FFFFFFFFFE7FF8
007FFFFFFFFC3FF0
003FFFFFFFF81FE0
000FFFFFFFE007C0
0003FFFFFF800380
0000FFFFFC000100
000007FFC0000000
ENDCHAR
STARTCHAR 0027
ENCODING 39
SWIDTH 259 0
DWIDTH 27 0
BBX 13 19 6 56
BITMAP
FFF8
FFF8
FFF8
FFF8
FFF8
FFF8
FFF8
FFF8
FFF8
FFF8
FFF8
FFF8
FFF8
FFF8
FFF8
FFF8
FFF8
FFF8
FFF8
ENDCHAR
STARTCHAR 0028
ENCODING 40
SWIDTH 451 0
DWIDTH 47 0
BBX 28 108 15 -20
BITMAP
00003000
00007800
0000FE00
0001FF00
0001FF80
0003FFE0
0007FFF0
0007FFE0
000FFFC0
001FFF80
001FFF80
003FFF00
003FFE00
007FFE00
007FFC00
00FFF800
00FFF800
01FFF000
01FFF000
03FFE000
03FFE000
03FFC000
07FFC000
07FF8000
0FFF8000
0FFF0000
0FFF0000
1FFE0000
1FFE0000
1FFE0000
1FFC0000
3FFC0000
3FFC0000
3FFC0000
3FF80000
7FF80000
7FF80000
7FF80000
7FF00000
7FF00000
FFF00000
FFF00000
FFF00000
FFF00000
FFE00000
FFE00000
FFE00000
FFE00000
FFE00000
FFE00000
FFE00000
FFE00000
FFE00000
FFE00000
FFE00000
FFE00000
FFE00000
FFE00000
FFE00000
FFE00000
FFE00000
FFE00000
FFE00000
FFF00000
FFF00000
FFF00000
FFF00000
FFF00000
7FF00000
7FF00000
7FF80000
7FF80000
7FF80000
3FF80000
3FFC0000
3FFC0000
3FFC0000
1FFE0000
1FFE0000
1FFE0000
0FFF0000
0FFF0000
0FFF0000
07FF8000
07FF8000
07FFC000
03FFC000
03FFE000
01FFE000
01FFF000
01FFF000
00FFF800
00FFFC00
007FFC00
007FFE00
003FFF00
001FFF00
001FFF80
000FFFC0
000FFFE0
0007FFE0
0003FFE0
0003FFC0
0001FF80
0000FE00
00007C00
00007800
00002000
ENDCHAR
STARTCHAR 0029
ENCODING 41
SWIDTH 451 0
DWIDTH 47 0
BBX 29 108 4 -20
BITMAP
00C00000
01E00000
03F00000
0FF80000
1FF80000
3FFC0000
FFFE0000
7FFE0000
3FFF0000
1FFF8000
1FFF8000
0FFFC000
07FFC000
03FFE000
03FFE000
01FFF000
01FFF000
00FFF800
007FF800
007FFC00
003FFC00
003FFE00
001FFE00
001FFE00
001FFF00
000FFF00
000FFF00
0007FF80
0007FF80
0007FF80
0003FFC0
0003FFC0
0003FFC0
0001FFC0
0001FFE0
0001FFE0
0001FFE0
0000FFE0
0000FFE0
0000FFF0
0000FFF0
0000FFF0
0000FFF0
00007FF0
00007FF0
00007FF0
00007FF0
00007FF0
00007FF8
00007FF8
00007FF8
00007FF8
00007FF8
00007FF8
00007FF8
00007FF8
00007FF8
00007FF8
00007FF8
00007FF0
00007FF0
00007FF0
00007FF0
00007FF0
00007FF0
0000FFF0
0000FFF0
0000FFF0
0000FFE0
0000FFE0
0001FFE0
0001FFE0
0001FFE0
0001FFC0
0003FFC0
0003FFC0
0003FFC0
0003FF80
0007FF80
0007FF80
000FFF80
000FFF00
000FFF00
001FFF00
001FFE00
003FFE00
003FFC00
007FFC00
007FFC00
00FFF800
00FFF800
01FFF000
03FFF000
03FFE000
07FFE000
07FFC000
0FFFC000
1FFF8000
3FFF0000
3FFF0000
7FFE0000
7FFC0000
3FFC0000
1FF80000
07F00000
03F00000
00E00000
00400000
ENDCHAR
STARTCHAR 002A
ENCODING 42
SWIDTH 460 0
DWIDTH 48 0
BBX 39 37 3 38
BITMAP
0003FF8000
0003FF8000
0003FF8000
0003FF8000
0003FF8000
0003FF8000
0003FF8000
0001FF8000
1C01FF8070
1F01FF81F0
1FE1FF8FF8
3FF9FFBFF8
3FFFFFFFF8
3FFFFFFFFC
7FFFFFFFFC
7FFFFFFFFC
7FFFFFFFFE
FFFFFFFFFE
3FFFFFFFF8
03FFFFFFC0
007FFFFC00
000FFFF000
001FFFF000
003FFFF800
007FFFFC00
00FFFFFE00
01FFFFFF00
01FFEFFF80
03FFC7FFC0
07FFC7FFC0
0FFF83FFE0
03FF81FFC0
01FF01FF00
00FE00FE00
003E007C00
001C007000
0008002000
ENDCHAR
STARTCHAR 002B
ENCODING 43
SWIDTH 576 0
DWIDTH 60 0
BBX 47 47 6 14
BITMAP
00001FF80000
00001FF80000
00001FF80000
00001FF80000
00001FF80000
00001FF80000
00001FF80000
00001FF80000
00001FF80000
00001FF80000
00001FF80000
00001FF80000
00001FF80000
00001FF80000
00001FF80000
00001FF80000
00001FF80000
00001FF80000
FFFFFFFFFFFE
FFFFFFFFFFFE
FFFFFFFFFFFE
FFFFFFFFFFFE
FFFFFFFFFFFE
FFFFFFFFFFFE
FFFFFFFFFFFE
FFFFFFFFFFFE
FFFFFFFFFFFE
FFFFFFFFFFFE
00001FF80000
00001FF80000
00001FF80000
00001FF80000
00001FF80000
00001FF80000
00001FF80000
00001FF80000
00001FF80000
00001FF80000
00001FF80000
00001FF80000
00001FF80000
00001FF80000
00001FF80000
00001FF80000
00001FF80000
00001FF80000
00001FF80000
ENDCHAR
STARTCHAR 002C
ENCODING 44
SWIDTH 307 0
DWIDTH 32 0
BBX 13 27 6 -15
BITMAP
FFF8
FFF8
FFF8
FFF8
FFF8
FFF8
FFF8
FFF8
FFF8
FFF8
FFF8
FFF8
FFF8
01F8
01F8
01F8
01F8
01F8
03F8
07F0
0FF0
7FF0
7FE0
7FC0
FF80
FF00
3000
ENDCHAR
STARTCHAR 002D
ENCODING 45
SWIDTH 422 0
DWIDTH 44 0
BBX 32 10 6 28
BITMAP
FFFFFFFF
FFFFFFFF
FFFFFFFF
FFFFFFFF
FFFFFFFF
FFFFFFFF
FFFFFFFF
FFFFFFFF
FFFFFFFF
FFFFFFFF
ENDCHAR
STARTCHAR 002E
ENCODING 46
SWIDTH 307 0
DWIDTH 32 0
BBX 13 13 9 0
BITMAP
FFF8
FFF8
FFF8
FFF8
FFF8
FFF8
FFF8
FFF8
FFF8
FFF8
FFF8
FFF8
FFF8
ENDCHAR
STARTCHAR 002F
ENCODING 47
SWIDTH 432 0
DWIDTH 45 0
BBX 33 75 6 0
BITMAP
00000FFF80
00000FFF00
00000FFF00
00001FFF00
00001FFF00
00001FFE00
00001FFE00
00003FFE00
00003FFE00
00003FFC00
00007FFC00
00007FFC00
00007FFC00
00007FF800
0000FFF800
0000FFF800
0000FFF000
0000FFF000
0001FFF000
0001FFF000
0001FFE000
0001FFE000
0003FFE000
0003FFE000
0003FFC000
0007FFC000
0007FFC000
0007FFC000
0007FF8000
000FFF8000
000FFF8000
000FFF0000
000FFF0000
001FFF0000
001FFF0000
001FFE0000
001FFE0000
003FFE0000
003FFE0000
003FFC0000
007FFC0000
007FFC0000
007FFC0000
007FF80000
00FFF80000
00FFF80000
00FFF00000
00FFF00000
01FFF00000
01FFF00000
01FFE00000
01FFE00000
03FFE00000
03FFE00000
03FFC00000
07FFC00000
07FFC00000
07FFC00000
07FF800000
0FFF800000
0FFF800000
0FFF000000
0FFF000000
1FFF000000
1FFF000000
1FFE000000
1FFE000000
3FFE000000
3FFE000000
3FFC000000
7FFC000000
7FFC000000
7FFC000000
7FF8000000
FFF8000000
ENDCHAR
STARTCHAR 0030
ENCODING 48
SWIDTH 662 0
DWIDTH 69 0
BBX 54 79 7 -2
BITMAP
000007FF800000
00003FFFF80000
0001FFFFFE0000
0007FFFFFF8000
001FFFFFFFE000
003FFFFFFFF000
007FFFFFFFFC00
00FFFFFFFFFE00
01FFFFFFFFFF00
03FFFFFFFFFF80
07FFFFFFFFFF80
07FFFFFFFFFFC0
0FFFFE00FFFFE0
1FFFF8003FFFE0
1FFFE0001FFFF0
3FFFC00007FFF0
3FFF800003FFF0
3FFF000001FFF8
7FFE000001FFF8
7FFE000000FFF8
7FFC000000FFFC
7FFC0000007FFC
7FFC0000007FFC
FFF80000007FFC
FFF80000007FFC
FFF80000007FFC
FFF80000007FFC
FFF80000007FFC
FFF80000007FFC
FFF80000007FFC
FFF80000007FFC
FFF80000007FFC
FFF80000007FFC
FFF80000007FFC
FFF80000007FFC
FFF80000007FFC
FFF80000007FFC
FFF80000007FFC
FFF80000007FFC
FFF80000007FFC
FFF80000007FFC
FFF80000007FFC
FFF80000007FFC
FFF80000007FFC
FFF80000007FFC
FFF80000007FFC
FFF80000007FFC
FFF80000007FFC
FFF80000007FFC
FFF80000007FFC
FFF80000007FFC
FFF80000007FFC
FFF80000007FFC
FFF80000007FFC
FFF80000007FFC
FFF80000007FFC
7FFC0000007FFC
7FFC0000007FFC
7FFC000000FFFC
7FFE000000FFF8
7FFE000001FFF8
3FFF000003FFF8
3FFF800003FFF0
3FFFC00007FFF0
1FFFE0001FFFF0
1FFFF8003FFFE0
0FFFFE01FFFFE0
07FFFFFFFFFFC0
07FFFFFFFFFF80
03FFFFFFFFFF80
01FFFFFFFFFF00
00FFFFFFFFFE00
007FFFFFFFFC00
003FFFFFFFF000
001FFFFFFFE000
0007FFFFFFC000
0001FFFFFF0000
00007FFFF80000
000003FF800000
ENDCHAR
STARTCHAR 0031
ENCODING 49
SWIDTH 441 0
DWIDTH 46 0
BBX 27 75 6 0
BITMAP
0007FFE0
000FFFE0
003FFFE0
00FFFFE0
01FFFFE0
07FFFFE0
0FFFFFE0
3FFFFFE0
FFFFFFE0
FFFFFFE0
FFFFFFE0
FFFFFFE0
FFFFFFE0
FFFFFFE0
FFFBFFE0
FFE3FFE0
FFC3FFE0
FF03FFE0
FC03FFE0
F803FFE0
E003FFE0
C003FFE0
0003FFE0
0003FFE0
0003FFE0
0003FFE0
0003FFE0
0003FFE0
0003FFE0
0003FFE0
0003FFE0
0003FFE0
0003FFE0
0003FFE0
0003FFE0
0003FFE0
0003FFE0
0003FFE0
0003FFE0
0003FFE0
0003FFE0
0003FFE0
0003FFE0
0003FFE0
0003FFE0
0003FFE0
0003FFE0
0003FFE0
0003FFE0
0003FFE0
0003FFE0
0003FFE0
0003FFE0
0003FFE0
0003FFE0
0003FFE0
0003FFE0
0003FFE0
0003FFE0
0003FFE0
0003FFE0
0003FFE0
0003FFE0
0003FFE0
0003FFE0
0003FFE0
0003FFE0
0003FFE0
0003FFE0
0003FFE0
0003FFE0
0003FFE0
0003FFE0
0003FFE0
0003FFE0
ENDCHAR
STARTCHAR 0032
ENCODING 50
SWIDTH 595 0
DWIDTH 62 0
BBX 52 77 5 0
BITMAP
000007FF000000
00007FFFF00000
0003FFFFFC0000
000FFFFFFF0000
003FFFFFFFC000
007FFFFFFFE000
00FFFFFFFFF000
01FFFFFFFFF800
03FFFFFFFFFC00
07FFFFFFFFFE00
0FFFFFFFFFFE00
0FFFFFFFFFFF00
1FFFFC01FFFF80
1FFFF0007FFF80
3FFFC0003FFFC0
3FFF80001FFFC0
3FFF00000FFFC0
7FFE000007FFE0
7FFE000007FFE0
7FFC000003FFE0
7FFC000003FFE0
FFFC000001FFF0
FFF8000001FFF0
FFF8000001FFF0
FFF8000001FFF0
0000000001FFF0
0000000001FFF0
0000000001FFF0
0000000003FFF0
0000000003FFF0
0000000003FFE0
0000000007FFE0
000000000FFFE0
000000000FFFE0
000000001FFFC0
000000003FFFC0
000000007FFF80
00000000FFFF80
00000001FFFF00
00000003FFFE00
00000007FFFC00
0000001FFFFC00
0000003FFFF800
0000007FFFF000
000000FFFFE000
000001FFFFC000
000003FFFF0000
000007FFFE0000
00000FFFFC0000
00003FFFF80000
00007FFFF00000
0000FFFFE00000
0001FFFFC00000
0003FFFF800000
0007FFFE000000
000FFFFC000000
001FFFF8000000
003FFFF0000000
00FFFFE0000000
01FFFFC0000000
03FFFF80000000
07FFFF00000000
0FFFFC00000000
1FFFF800000000
3FFFF000000000
7FFFFFFFFFFFF0
FFFFFFFFFFFFF0
FFFFFFFFFFFFF0
FFFFFFFFFFFFF0
FFFFFFFFFFFFF0
FFFFFFFFFFFFF0
FFFFFFFFFFFFF0
FFFFFFFFFFFFF0
FFFFFFFFFFFFF0
FFFFFFFFFFFFF0
FFFFFFFFFFFFF0
FFFFFFFFFFFFF0
ENDCHAR
STARTCHAR 0033
ENCODING 51
SWIDTH 585 0
DWIDTH 61 0
BBX 50 76 4 -1
BITMAP
1FFFFFFFFFFF80
1FFFFFFFFFFF80
1FFFFFFFFFFF80
1FFFFFFFFFFF80
1FFFFFFFFFFF80
1FFFFFFFFFFF80
1FFFFFFFFFFF80
1FFFFFFFFFFF80
1FFFFFFFFFFF80
1FFFFFFFFFFF80
1FFFFFFFFFFF80
1FFFFFFFFFFF80
000000007FFF00
00000000FFFE00
00000001FFFC00
00000003FFF800
00000007FFF000
0000001FFFE000
0000003FFFC000
0000007FFF8000
000000FFFF0000
000001FFFE0000
000003FFFC0000
00000FFFF80000
00001FFFF00000
00003FFFE00000
00007FFFC00000
0000FFFF800000
0003FFFFC00000
0007FFFFF80000
0007FFFFFE0000
0007FFFFFF8000
0003FFFFFFC000
0003FFFFFFE000
0001FFFFFFF000
0000FFFFFFF800
0000FFFFFFFC00
00007FFFFFFC00
00007E1FFFFE00
00002003FFFF00
00000000FFFF00
000000007FFF00
000000003FFF80
000000001FFF80
000000000FFF80
000000000FFFC0
0000000007FFC0
0000000007FFC0
0000000007FFC0
0000000007FFC0
0000000003FFC0
0000000003FFC0
0000000007FFC0
0000000007FFC0
0000000007FFC0
0030000007FFC0
03F800000FFFC0
1FF800000FFFC0
FFFC00001FFF80
7FFE00001FFF80
7FFF00003FFF80
7FFF80007FFF00
3FFFC001FFFF00
3FFFF807FFFE00
1FFFFFFFFFFC00
0FFFFFFFFFFC00
0FFFFFFFFFF800
07FFFFFFFFF000
03FFFFFFFFE000
01FFFFFFFFC000
00FFFFFFFF8000
003FFFFFFF0000
000FFFFFFC0000
0007FFFFF00000
0000FFFFC00000
00000FFC000000
ENDCHAR
STARTCHAR 0034
ENCODING 52
SWIDTH 604 0
DWIDTH 63 0
BBX 53 75 5 0
BITMAP
000000FFFC0000
000000FFFC0000
000001FFF80000
000001FFF80000
000003FFF00000
000003FFF00000
000007FFE00000
000007FFE00000
00000FFFE00000
00000FFFC00000
00001FFFC00000
00001FFF800000
00003FFF800000
00003FFF000000
00007FFF000000
00007FFE000000
0000FFFE000000
0000FFFC000000
0000FFFC000000
0001FFF8000000
0001FFF8000000
0003FFF0000000
0003FFF0000000
0007FFE0000000
0007FFE0000000
000FFFE0000000
000FFFC0000000
001FFFC0000000
001FFF80000000
003FFF80000000
003FFF00000000
007FFF007FFC00
007FFE007FFC00
00FFFE007FFC00
00FFFC007FFC00
01FFFC007FFC00
01FFF8007FFC00
01FFF8007FFC00
03FFF0007FFC00
03FFF0007FFC00
07FFE0007FFC00
07FFE0007FFC00
0FFFE0007FFC00
0FFFC0007FFC00
1FFFC0007FFC00
1FFF80007FFC00
3FFF80007FFC00
3FFF00007FFC00
7FFF00007FFC00
7FFE00007FFC00
FFFE00007FFC00
FFFFFFFFFFFFF8
FFFFFFFFFFFFF8
FFFFFFFFFFFFF8
FFFFFFFFFFFFF8
FFFFFFFFFFFFF8
FFFFFFFFFFFFF8
FFFFFFFFFFFFF8
FFFFFFFFFFFFF8
FFFFFFFFFFFFF8
FFFFFFFFFFFFF8
FFFFFFFFFFFFF8
FFFFFFFFFFFFF8
000000007FFC00
000000007FFC00
000000007FFC00
000000007FFC00
000000007FFC00
000000007FFC00
000000007FFC00
000000007FFC00
000000007FFC00
000000007FFC00
000000007FFC00
000000007FFC00
ENDCHAR
STARTCHAR 0035
ENCODING 53
SWIDTH 585 0
DWIDTH 61 0
BBX 51 77 5 -2
BITMAP
07FFFFFFFFFC00
07FFFFFFFFFC00
07FFFFFFFFFC00
07FFFFFFFFFC00
07FFFFFFFFFC00
07FFFFFFFFFC00
07FFFFFFFFFC00
07FFFFFFFFFC00
07FFFFFFFFFC00
0FFFFFFFFFFC00
0FFFFFFFFFFC00
0FFFFFFFFFFC00
0FFF0000000000
0FFF0000000000
0FFF0000000000
0FFF0000000000
0FFF0000000000
0FFF0000000000
0FFF0000000000
0FFF0000000000
0FFF0000000000
0FFF0000000000
0FFF0000000000
0FFE0000000000
0FFE0000000000
0FFE0000000000
0FFE0000000000
1FFE03FF000000
1FFE1FFFE00000
1FFE7FFFFC0000
1FFFFFFFFF0000
1FFFFFFFFF8000
1FFFFFFFFFC000
1FFFFFFFFFF000
1FFFFFFFFFF800
1FFFFFFFFFF800
1FFFFFFFFFFC00
1FFFFFFFFFFE00
1FFFFF3FFFFE00
1FFFE003FFFF00
07FF8000FFFF00
00FE00007FFF80
001C00001FFF80
000000001FFFC0
000000000FFFC0
0000000007FFC0
0000000007FFC0
0000000003FFE0
0000000003FFE0
0000000003FFE0
0000000003FFE0
0000000003FFE0
0000000003FFE0
0000000003FFE0
0000000003FFE0
0010000003FFE0
01F8000007FFC0
1FF8000007FFC0
FFFC00000FFFC0
7FFC00000FFFC0
7FFE00001FFF80
7FFF00003FFF80
3FFF80007FFF00
3FFFE001FFFF00
1FFFFC0FFFFE00
1FFFFFFFFFFE00
0FFFFFFFFFFC00
07FFFFFFFFF800
03FFFFFFFFF000
01FFFFFFFFE000
00FFFFFFFFC000
007FFFFFFF8000
003FFFFFFE0000
000FFFFFFC0000
0007FFFFF00000
0000FFFF800000
00000FFC000000
ENDCHAR
STARTCHAR 0036
ENCODING 54
SWIDTH 624 0
DWIDTH 65 0
BBX 52 78 7 -2
BITMAP
000003FF800000
00003FFFF80000
0001FFFFFF0000
0007FFFFFFC000
000FFFFFFFE000
003FFFFFFFF800
007FFFFFFFFC00
00FFFFFFFFFE00
01FFFFFFFFFE00
03FFFFFFFFFC00
07FFFFFFFFF800
07FFFFFFFFF000
0FFFFE00FFE000
1FFFF8003FC000
1FFFE0000F8000
1FFFC000070000
3FFF8000020000
3FFF0000000000
3FFE0000000000
7FFE0000000000
7FFC0000000000
7FFC0000000000
7FFC0000000000
7FF80000000000
FFF80000000000
FFF80000000000
FFF80000000000
FFF80000000000
FFF801FF800000
FFF80FFFF80000
FFF83FFFFE0000
FFF8FFFFFF8000
FFFBFFFFFFE000
FFFFFFFFFFF000
FFFFFFFFFFF800
FFFFFFFFFFFC00
FFFFFFFFFFFE00
FFFFFFFFFFFE00
FFFFFFFFFFFF00
FFFFFF8FFFFF80
FFFFF800FFFF80
FFFFE0007FFFC0
FFFFC0001FFFC0
FFFF80000FFFE0
FFFF000007FFE0
FFFE000007FFE0
FFFE000003FFF0
FFFC000003FFF0
FFFC000001FFF0
FFF8000001FFF0
FFF8000001FFF0
FFF8000001FFF0
FFF8000001FFF0
FFF8000001FFF0
FFF8000001FFF0
7FF8000001FFF0
7FFC000001FFF0
7FFC000001FFF0
7FFC000003FFF0
7FFE000003FFE0
3FFF000007FFE0
3FFF00000FFFE0
1FFF80001FFFC0
1FFFE0003FFFC0
0FFFF000FFFF80
0FFFFE03FFFF80
07FFFFFFFFFF00
07FFFFFFFFFE00
03FFFFFFFFFE00
01FFFFFFFFFC00
00FFFFFFFFF800
007FFFFFFFF000
003FFFFFFFC000
001FFFFFFF8000
0007FFFFFE0000
0001FFFFFC0000
00007FFFE00000
000007FE000000
ENDCHAR
STARTCHAR 0037
ENCODING 55
SWIDTH 537 0
DWIDTH 56 0
BBX 46 75 4 0
BITMAP
FFFFFFFFFFFC
FFFFFFFFFFFC
FFFFFFFFFFFC
FFFFFFFFFFFC
FFFFFFFFFFFC
FFFFFFFFFFFC
FFFFFFFFFFFC
FFFFFFFFFFFC
FFFFFFFFFFFC
FFFFFFFFFFFC
FFFFFFFFFFFC
FFFFFFFFFFFC
000000007FFC
00000000FFFC
00000000FFF8
00000001FFF8
00000001FFF0
00000001FFF0
00000003FFF0
00000003FFE0
00000007FFE0
00000007FFC0
00000007FFC0
0000000FFFC0
0000000FFF80
0000001FFF80
0000001FFF00
0000001FFF00
0000003FFF00
0000003FFE00
0000007FFE00
0000007FFC00
000000FFFC00
000000FFFC00
000000FFF800
000001FFF800
000001FFF000
000003FFF000
000003FFF000
000003FFE000
000007FFE000
000007FFC000
00000FFFC000
00000FFF8000
00000FFF8000
00001FFF8000
00001FFF0000
00003FFF0000
00003FFE0000
00003FFE0000
00007FFE0000
00007FFC0000
0000FFFC0000
0000FFF80000
0001FFF80000
0001FFF80000
0001FFF00000
0003FFF00000
0003FFE00000
0007FFE00000
0007FFE00000
0007FFC00000
000FFFC00000
000FFF800000
001FFF800000
001FFF000000
001FFF000000
003FFF000000
003FFE000000
007FFE000000
007FFC000000
007FFC000000
00FFFC000000
00FFF8000000
01FFF8000000
ENDCHAR
STARTCHAR 0038
ENCODING 56
SWIDTH 614 0
DWIDTH 64 0
BBX 52 79 6 -2
BITMAP
00000FFE000000
0000FFFFE00000
0003FFFFFC0000
000FFFFFFF0000
003FFFFFFF8000
007FFFFFFFC000
00FFFFFFFFF000
01FFFFFFFFF800
03FFFFFFFFF800
03FFFFFFFFFC00
07FFFFFFFFFE00
0FFFFFFFFFFE00
0FFFF803FFFF00
0FFFE000FFFF00
1FFFC0003FFF00
1FFF80001FFF80
1FFF80001FFF80
3FFF00000FFF80
3FFF00000FFF80
3FFF00000FFF80
3FFE00000FFFC0
3FFE00000FFFC0
3FFF00000FFFC0
3FFF00000FFF80
3FFF00000FFF80
1FFF00000FFF80
1FFF80001FFF80
1FFF80003FFF80
1FFFC0007FFF00
0FFFE000FFFF00
0FFFFC03FFFF00
07FFFFFFFFFE00
07FFFFFFFFFE00
03FFFFFFFFFC00
01FFFFFFFFF800
00FFFFFFFFF000
00FFFFFFFFE000
00FFFFFFFFF000
01FFFFFFFFF800
03FFFFFFFFFC00
07FFFFFFFFFE00
0FFFFFFFFFFE00
0FFFFFFFFFFF00
1FFFFC03FFFF80
1FFFE0007FFF80
3FFFC0003FFFC0
3FFF00001FFFC0
7FFF00000FFFC0
7FFE000007FFE0
7FFE000007FFE0
7FFC000003FFE0
FFFC000003FFE0
FFFC000003FFE0
FFFC000003FFF0
FFFC000003FFF0
FFFC000003FFF0
FFFC000003FFF0
FFFC000003FFE0
FFFC000003FFE0
7FFC000003FFE0
7FFC000007FFE0
7FFE000007FFE0
7FFF00000FFFC0
3FFF00001FFFC0
3FFF80003FFFC0
3FFFE0007FFF80
1FFFF803FFFF80
1FFFFFFFFFFF00
0FFFFFFFFFFF00
07FFFFFFFFFE00
03FFFFFFFFFC00
01FFFFFFFFF800
00FFFFFFFFF000
007FFFFFFFE000
003FFFFFFFC000
000FFFFFFF0000
0003FFFFFC0000
0000FFFFF00000
00000FFF000000
ENDCHAR
STARTCHAR 0039
ENCODING 57
SWIDTH 624 0
DWIDTH 65 0
BBX 51 78 6 -2
BITMAP
00000FFE000000
00007FFFC00000
0003FFFFF80000
000FFFFFFE0000
001FFFFFFF0000
007FFFFFFFC000
00FFFFFFFFE000
01FFFFFFFFF000
03FFFFFFFFF800
07FFFFFFFFFC00
0FFFFFFFFFFC00
0FFFFFFFFFFE00
1FFFFC07FFFF00
3FFFE001FFFF00
3FFFC0007FFF80
7FFF80003FFF80
7FFF00001FFFC0
7FFE00000FFFC0
FFFC000007FFC0
FFFC000007FFC0
FFF8000003FFE0
FFF8000003FFE0
FFF8000003FFE0
FFF0000003FFE0
FFF0000001FFE0
FFF0000001FFE0
FFF0000001FFE0
FFF0000003FFE0
FFF8000003FFE0
FFF8000003FFE0
FFF8000003FFE0
FFFC000007FFE0
FFFC00000FFFE0
7FFE00000FFFE0
7FFF00001FFFE0
7FFF80003FFFE0
3FFFC0007FFFE0
3FFFF001FFFFE0
1FFFFE1FFFFFE0
0FFFFFFFFFFFE0
0FFFFFFFFFFFE0
07FFFFFFFFFFE0
03FFFFFFFFFFE0
01FFFFFFFFFFE0
00FFFFFFFFFFE0
007FFFFFF9FFE0
001FFFFFF1FFE0
0007FFFFC1FFE0
0001FFFF01FFE0
00003FF001FFE0
0000000001FFE0
0000000001FFE0
0000000001FFE0
0000000001FFE0
0000000003FFE0
0000000003FFE0
0000000003FFE0
0000000003FFE0
0000000007FFC0
000000000FFFC0
000000000FFFC0
000000001FFFC0
000C00003FFF80
001F00007FFF80
003F8001FFFF00
007FE007FFFF00
00FFFFFFFFFE00
01FFFFFFFFFC00
03FFFFFFFFFC00
07FFFFFFFFF800
07FFFFFFFFF000
03FFFFFFFFE000
01FFFFFFFFC000
00FFFFFFFF0000
003FFFFFFE0000
000FFFFFF80000
0003FFFFC00000
00003FFC000000
ENDCHAR
STARTCHAR 003A
ENCODING 58
SWIDTH 345 0
DWIDTH 36 0
BBX 13 43 11 7
BITMAP
7FF8
7FF8
7FF8
7FF8
7FF8
7FF8
7FF8
7FF8
7FF8
7FF8
7FF8
7FF8
7FF8
0000
0000
0000
0000
0000
0000
0000
0000
0000
0000
0000
0000
0000
0000
0000
0000
0000
FFF8
FFF8
FFF8
FFF8
FFF8
FFF8
FFF8
FFF8
FFF8
FFF8
FFF8
FFF8
FFF8
ENDCHAR
STARTCHAR 003B
ENCODING 59
SWIDTH 345 0
DWIDTH 36 0
BBX 13 70 11 -15
BITMAP
FFF8
FFF8
FFF8
FFF8
FFF8
FFF8
FFF8
FFF8
FFF8
FFF8
FFF8
FFF8
FFF8
0000
0000
0000
0000
0000
0000
0000
0000
0000
0000
0000
0000
0000
0000
0000
0000
0000
0000
0000
0000
0000
0000
0000
0000
0000
0000
0000
0000
0000
0000
FFF8
FFF8
FFF8
FFF8
FFF8
FFF8
FFF8
FFF8
FFF8
FFF8
FFF8
FFF8
FFF8
01F8
01F8
01F8
01F8
01F8
03F8
03F8
0FF0
7FF0
7FE0
7FC0
7F80
7F00
3000
ENDCHAR
STARTCHAR 003C
ENCODING 60
SWIDTH 633 0
DWIDTH 66 0
BBX 32 50 15 8
BITMAP
00000080
000001C0
000003E0
000007F0
00000FF8
00001FFC
00003FFE
00007FFF
0000FFFF
0001FFFE
0003FFFC
0007FFF8
000FFFF0
001FFFC0
003FFF80
007FFF00
00FFFE00
01FFFC00
03FFF800
07FFF000
0FFFE000
1FFFC000
3FFF8000
7FFF0000
FFFE0000
FFFE0000
7FFF0000
3FFF8000
1FFFC000
0FFFE000
07FFF000
03FFF800
01FFFC00
00FFFE00
007FFF00
003FFF80
001FFFC0
000FFFE0
0007FFF8
0003FFFC
0001FFFE
0000FFFF
00007FFF
00003FFE
00001FFC
00000FF8
000007F0
000003E0
000001C0
00000080
ENDCHAR
STARTCHAR 003D
ENCODING 61
SWIDTH 748 0
DWIDTH 78 0
BBX 54 29 12 23
BITMAP
FFFFFFFFFFFFFC
FFFFFFFFFFFFFC
FFFFFFFFFFFFFC
FFFFFFFFFFFFFC
FFFFFFFFFFFFFC
FFFFFFFFFFFFFC
FFFFFFFFFFFFFC
FFFFFFFFFFFFFC
FFFFFFFFFFFFFC
FFFFFFFFFFFFFC
00000000000000
00000000000000
00000000000000
00000000000000
00000000000000
00000000000000
00000000000000
00000000000000
00000000000000
FFFFFFFFFFFFFC
FFFFFFFFFFFFFC
FFFFFFFFFFFFFC
FFFFFFFFFFFFFC
FFFFFFFFFFFFFC
FFFFFFFFFFFFFC
FFFFFFFFFFFFFC
FFFFFFFFFFFFFC
FFFFFFFFFFFFFC
FFFFFFFFFFFFFC
ENDCHAR
STARTCHAR 003E
ENCODING 62
SWIDTH 633 0
DWIDTH 66 0
BBX 32 50 19 8
BITMAP
01000000
03800000
07C00000
0FE00000
1FF00000
3FF80000
7FFC0000
FFFE0000
7FFF0000
3FFF8000
1FFFC000
0FFFE000
07FFF000
03FFF800
01FFFC00
00FFFE00
007FFF00
003FFF80
001FFFC0
000FFFE0
0007FFF0
0003FFF8
0001FFFC
0000FFFE
00007FFF
00007FFF
0000FFFE
0001FFFC
0003FFF8
0007FFF0
000FFFE0
001FFFC0
003FFF80
007FFF00
00FFFE00
01FFFC00
03FFF800
07FFF000
0FFFE000
1FFFC000
3FFF8000
7FFF0000
FFFE0000
7FFC0000
3FF80000
1FF00000
0FE00000
07C00000
03800000
01000000
ENDCHAR
STARTCHAR 003F
ENCODING 63
SWIDTH 556 0
DWIDTH 58 0
BBX 47 76 5 0
BITMAP
00003FF80000
0001FFFF8000
000FFFFFF000
003FFFFFFC00
007FFFFFFE00
00FFFFFFFF80
01FFFFFFFFC0
03FFFFFFFFE0
07FFFFFFFFE0
0FFFFFFFFFF0
1FFFFFFFFFF8
1FFFFFFFFFF8
3FFFE00FFFFC
3FFF8003FFFC
3FFF0000FFFC
7FFE00007FFE
7FFC00007FFE
7FFC00003FFE
7FFC00003FFE
FFF800003FFE
FFF800003FFE
000000003FFE
000000003FFE
000000003FFE
000000003FFE
000000003FFE
000000007FFE
000000007FFC
00000000FFFC
00000000FFF8
00000001FFF8
00000003FFF8
00000007FFF0
0000000FFFE0
0000003FFFE0
0000007FFFC0
000000FFFF80
000001FFFF00
000003FFFE00
000007FFFC00
00000FFFF800
00000FFFF000
00001FFFE000
00003FFFC000
00003FFF8000
00003FFF0000
00007FFE0000
00007FFE0000
00007FFC0000
0000FFFC0000
0000FFFC0000
0000FFF80000
0000FFF80000
0000FFF80000
0000FFF80000
0000FFF80000
000000000000
000000000000
000000000000
000000000000
000000000000
000000000000
0000FFF80000
0000FFF80000
0000FFF80000
0000FFF80000
0000FFF80000
0000FFF80000
0000FFF80000
0000FFF80000
0000FFF80000
0000FFF80000
0000FFF80000
0000FFF80000
0000FFF80000
0000FFF80000
ENDCHAR
STARTCHAR 0040
ENCODING 64
SWIDTH 912 0
DWIDTH 95 0
BBX 79 78 8 -11
BITMAP
00000000FFFC00000000
0000001FFFFFF0000000
000000FFFFFFFE000000
000003FFFFFFFFC00000
00000FFFFFFFFFF00000
00003FFFFFFFFFFC0000
0000FFFFFFFFFFFE0000
0001FFFFFFFFFFFF8000
0003FFFFFFFFFFFFC000
000FFFFFFFFFFFFFE000
001FFFFF8001FFFFF000
003FFFF800001FFFF800
003FFFC0000007FFFC00
007FFF00000001FFFE00
00FFFE000000007FFF00
01FFF8000000001FFF00
01FFF0000000000FFF80
03FFE00000000007FFC0
07FFC00000000003FFC0
07FF800000000001FFE0
0FFF00003FE00001FFE0
0FFF0001FFFC7F80FFF0
0FFE0007FFFF7F807FF0
1FFC001FFFFFFF807FF8
1FFC003FFFFFFF803FF8
3FF8007FFFFFFF803FF8
3FF800FFFFFFFF801FFC
3FF801FFFFFFFF801FFC
3FF003FFFFFFFF801FFC
7FF003FFFFFFFF801FFC
7FF007FFF01FFF800FFC
7FF007FFC007FF800FFC
7FE007FF0003FF800FFE
7FE00FFF0003FF800FFE
7FE00FFE0001FF800FFE
7FE00FFE0001FF800FFE
FFE00FFC0001FF800FFE
FFE00FFC0001FF800FFE
FFE00FFC0000FF800FFE
FFE00FFC0000FF800FFE
FFE00FFC0000FF800FFE
FFE00FFC0001FF800FFE
FFE00FFC0001FF800FFE
FFE00FFE0001FF800FFC
FFE00FFE0001FF800FFC
7FE00FFF0003FF801FFC
7FF007FF8007FFC01FFC
7FF007FFC00FFFC03FFC
7FF007FFF87FFFF07FF8
7FF003FFFFFFFFFFFFF8
7FF801FFFFFFFFFFFFF0
3FF801FFFFFFFFFFFFF0
3FF800FFFFFFFFFFFFE0
3FFC007FFFFFFFFFFFE0
1FFC003FFFFFDFFFFFC0
1FFE001FFFFF8FFFFF80
0FFE0007FFFE07FFFF00
0FFF0001FFF801FFFC00
07FF80000F80003FE000
07FFC000000000000000
03FFE000000000000000
03FFF000000000000000
01FFF800000000000000
00FFFE00000000000000
007FFF00000000000000
007FFFC0000000000000
003FFFF8000038000000
001FFFFF8003F8000000
000FFFFFFFFFF8000000
0003FFFFFFFFFC000000
0001FFFFFFFFFC000000
0000FFFFFFFFFC000000
00003FFFFFFFFE000000
00000FFFFFFFFE000000
000003FFFFFFFE000000
000000FFFFFFFC000000
0000000FFFFFE0000000
000000007FFE00000000
ENDCHAR
STARTCHAR 0041
ENCODING 65
SWIDTH 672 0
DWIDTH 70 0
BBX 66 75 2 0
BITMAP
000000FFFFC0000000
000001FFFFE0000000
000001FFFFE0000000
000001FFFFE0000000
000003FFFFF0000000
000003FFFFF0000000
000003FFFFF0000000
000007FFFFF0000000
000007FFFFF8000000
000007FFFFF8000000
00000FFFFFF8000000
00000FFFFFFC000000
00000FFFFFFC000000
00001FFF7FFC000000
00001FFF3FFE000000
00001FFF3FFE000000
00001FFE3FFE000000
00003FFE3FFF000000
00003FFE1FFF000000
00003FFC1FFF000000
00007FFC1FFF800000
00007FFC0FFF800000
00007FFC0FFF800000
0000FFF80FFFC00000
0000FFF807FFC00000
0000FFF807FFC00000
0001FFF007FFC00000
0001FFF003FFE00000
0001FFF003FFE00000
0003FFE003FFE00000
0003FFE001FFF00000
0003FFE001FFF00000
0007FFC001FFF00000
0007FFC000FFF80000
0007FFC000FFF80000
0007FF8000FFF80000
000FFF80007FFC0000
000FFF80007FFC0000
000FFF00007FFC0000
001FFF00003FFE0000
001FFF00003FFE0000
001FFF00003FFE0000
003FFE00003FFF0000
003FFE00001FFF0000
003FFE00001FFF0000
007FFC00001FFF0000
007FFC00000FFF8000
007FFFFFFFFFFF8000
00FFFFFFFFFFFF8000
00FFFFFFFFFFFFC000
00FFFFFFFFFFFFC000
01FFFFFFFFFFFFC000
01FFFFFFFFFFFFE000
01FFFFFFFFFFFFE000
01FFFFFFFFFFFFE000
03FFFFFFFFFFFFF000
03FFFFFFFFFFFFF000
03FFFFFFFFFFFFF000
07FFFFFFFFFFFFF800
07FFC0000000FFF800
07FFC0000000FFF800
0FFF800000007FFC00
0FFF800000007FFC00
0FFF800000007FFC00
1FFF000000003FFC00
1FFF000000003FFE00
1FFF000000003FFE00
3FFE000000003FFE00
3FFE000000001FFF00
3FFE000000001FFF00
7FFC000000001FFF00
7FFC000000000FFF80
7FFC000000000FFF80
7FF8000000000FFF80
FFF80000000007FFC0
ENDCHAR
STARTCHAR 0042
ENCODING 66
SWIDTH 633 0
DWIDTH 66 0
BBX 56 75 7 0
BITMAP
FFFFFFFFE00000
FFFFFFFFFE0000
FFFFFFFFFF8000
FFFFFFFFFFE000
FFFFFFFFFFF800
FFFFFFFFFFFC00
FFFFFFFFFFFE00
FFFFFFFFFFFF00
FFFFFFFFFFFF00
FFFFFFFFFFFF80
FFFFFFFFFFFFC0
FFFFFFFFFFFFC0
FFF800003FFFE0
FFF800000FFFE0
FFF8000007FFE0
FFF8000003FFE0
FFF8000003FFF0
FFF8000001FFF0
FFF8000001FFF0
FFF8000001FFF0
FFF8000001FFF0
FFF8000001FFF0
FFF8000001FFF0
FFF8000001FFF0
FFF8000001FFF0
FFF8000003FFF0
FFF8000003FFE0
FFF8000007FFE0
FFF800000FFFE0
FFF800007FFFC0
FFFFFFFFFFFFC0
FFFFFFFFFFFF80
FFFFFFFFFFFF00
FFFFFFFFFFFE00
FFFFFFFFFFFC00
FFFFFFFFFFF800
FFFFFFFFFFFE00
FFFFFFFFFFFF00
FFFFFFFFFFFF80
FFFFFFFFFFFFC0
FFFFFFFFFFFFE0
FFFFFFFFFFFFF0
FFF800000FFFF8
FFF8000003FFF8
FFF8000000FFFC
FFF80000007FFC
FFF80000007FFE
FFF80000003FFE
FFF80000003FFE
FFF80000001FFE
FFF80000001FFE
FFF80000001FFF
FFF80000001FFF
FFF80000001FFF
FFF80000001FFF
FFF80000001FFE
FFF80000003FFE
FFF80000003FFE
FFF80000007FFE
FFF8000000FFFE
FFF8000001FFFE
FFF8000003FFFC
FFF800000FFFFC
FFFFFFFFFFFFF8
FFFFFFFFFFFFF8
FFFFFFFFFFFFF0
FFFFFFFFFFFFF0
FFFFFFFFFFFFE0
FFFFFFFFFFFFC0
FFFFFFFFFFFF80
FFFFFFFFFFFF00
FFFFFFFFFFFE00
FFFFFFFFFFF800
FFFFFFFFFFE000
FFFFFFFFFE0000
ENDCHAR
STARTCHAR 0043
ENCODING 67
SWIDTH 739 0
DWIDTH 77 0
BBX 70 79 3 -2
BITMAP
00000007FFE0000000
0000007FFFFE000000
000003FFFFFFC00000
00001FFFFFFFF80000
00007FFFFFFFFC0000
0000FFFFFFFFFF0000
0003FFFFFFFFFFC000
0007FFFFFFFFFFE000
000FFFFFFFFFFFF000
001FFFFFFFFFFFF800
003FFFFFFFFFFFFC00
007FFFFFFFFFFFFE00
00FFFFFC003FFFFF00
00FFFFE00007FFFF80
01FFFF800001FFFF80
03FFFE0000007FFFC0
03FFFC0000003FFFC0
07FFF80000001FFFE0
07FFF00000000FFFE0
0FFFE000000007FFF0
0FFFC000000003FFF0
1FFFC000000003FFF8
1FFF8000000001FFF8
1FFF0000000001FFFC
3FFF0000000000FFF8
3FFF0000000000FF80
3FFE00000000007800
7FFE00000000004000
7FFE00000000000000
7FFC00000000000000
7FFC00000000000000
7FFC00000000000000
7FFC00000000000000
FFFC00000000000000
FFFC00000000000000
FFF800000000000000
FFF800000000000000
FFF800000000000000
FFF800000000000000
FFF800000000000000
FFF800000000000000
FFF800000000000000
FFF800000000000000
FFF800000000000000
FFFC00000000000000
FFFC00000000000000
FFFC00000000000000
7FFC00000000000000
7FFC00000000000000
7FFC00000000000000
7FFE00000000000000
7FFE00000000004000
3FFE00000000007800
3FFF0000000000FF80
3FFF0000000000FFF0
1FFF0000000001FFFC
1FFF8000000001FFF8
1FFFC000000003FFF8
0FFFC000000003FFF0
0FFFE000000007FFF0
07FFF00000000FFFF0
07FFF80000001FFFE0
03FFFC0000003FFFC0
03FFFE0000007FFFC0
01FFFF800001FFFF80
00FFFFE00007FFFF80
00FFFFFC003FFFFF00
007FFFFFFFFFFFFE00
003FFFFFFFFFFFFC00
001FFFFFFFFFFFF800
000FFFFFFFFFFFF000
0007FFFFFFFFFFE000
0003FFFFFFFFFFC000
0000FFFFFFFFFF0000
00003FFFFFFFFE0000
00001FFFFFFFF80000
000003FFFFFFC00000
0000007FFFFE000000
00000007FFE0000000
ENDCHAR
STARTCHAR 0044
ENCODING 68
SWIDTH 700 0
DWIDTH 73 0
BBX 61 75 7 0
BITMAP
FFFFFFFFC0000000
FFFFFFFFFC000000
FFFFFFFFFF800000
FFFFFFFFFFE00000
FFFFFFFFFFF80000
FFFFFFFFFFFE0000
FFFFFFFFFFFF0000
FFFFFFFFFFFF8000
FFFFFFFFFFFFC000
FFFFFFFFFFFFE000
FFFFFFFFFFFFF000
FFFFFFFFFFFFF800
FFF800007FFFFC00
FFF800000FFFFC00
FFF8000003FFFE00
FFF8000001FFFF00
FFF8000000FFFF00
FFF80000007FFF80
FFF80000003FFF80
FFF80000001FFFC0
FFF80000000FFFC0
FFF80000000FFFC0
FFF800000007FFE0
FFF800000007FFE0
FFF800000007FFE0
FFF800000003FFF0
FFF800000003FFF0
FFF800000003FFF0
FFF800000001FFF0
FFF800000001FFF0
FFF800000001FFF0
FFF800000001FFF8
FFF800000001FFF8
FFF800000001FFF8
FFF800000000FFF8
FFF800000000FFF8
FFF800000000FFF8
FFF800000000FFF8
FFF800000000FFF8
FFF800000000FFF8
FFF800000000FFF8
FFF800000001FFF8
FFF800000001FFF8
FFF800000001FFF8
FFF800000001FFF0
FFF800000001FFF0
FFF800000001FFF0
FFF800000003FFF0
FFF800000003FFF0
FFF800000003FFF0
FFF800000007FFE0
FFF800000007FFE0
FFF800000007FFE0
FFF80000000FFFC0
FFF80000000FFFC0
FFF80000001FFFC0
FFF80000003FFF80
FFF80000007FFF80
FFF8000000FFFF00
FFF8000001FFFF00
FFF8000003FFFE00
FFF800000FFFFC00
FFF800007FFFFC00
FFFFFFFFFFFFF800
FFFFFFFFFFFFF000
FFFFFFFFFFFFE000
FFFFFFFFFFFFC000
FFFFFFFFFFFF8000
FFFFFFFFFFFF0000
FFFFFFFFFFFE0000
FFFFFFFFFFF80000
FFFFFFFFFFF00000
FFFFFFFFFF800000
FFFFFFFFFE000000
FFFFFFFFC0000000
ENDCHAR
STARTCHAR 0045
ENCODING 69
SWIDTH 585 0
DWIDTH 61 0
BBX 49 75 7 0
BITMAP
FFFFFFFFFFFF80
FFFFFFFFFFFF80
FFFFFFFFFFFF80
FFFFFFFFFFFF80
FFFFFFFFFFFF80
FFFFFFFFFFFF80
FFFFFFFFFFFF80
FFFFFFFFFFFF80
FFFFFFFFFFFF80
FFFFFFFFFFFF80
FFFFFFFFFFFF80
FFFFFFFFFFFF80
FFF80000000000
FFF80000000000
FFF80000000000
FFF80000000000
FFF80000000000
FFF80000000000
FFF80000000000
FFF80000000000
FFF80000000000
FFF80000000000
FFF80000000000
FFF80000000000
FFF80000000000
FFF80000000000
FFF80000000000
FFF80000000000
FFF80000000000
FFF80000000000
FFFFFFFFFFC000
FFFFFFFFFFC000
FFFFFFFFFFC000
FFFFFFFFFFC000
FFFFFFFFFFC000
FFFFFFFFFFC000
FFFFFFFFFFC000
FFFFFFFFFFC000
FFFFFFFFFFC000
FFFFFFFFFFC000
FFFFFFFFFFC000
FFFFFFFFFFC000
FFF80000000000
FFF80000000000
FFF80000000000
FFF80000000000
FFF80000000000
FFF80000000000
FFF80000000000
FFF80000000000
FFF80000000000
FFF80000000000
FFF80000000000
FFF80000000000
FFF80000000000
FFF80000000000
FFF80000000000
FFF80000000000
FFF80000000000
FFF80000000000
FFF80000000000
FFF80000000000
FFF80000000000
FFFFFFFFFFFF80
FFFFFFFFFFFF80
FFFFFFFFFFFF80
FFFFFFFFFFFF80
FFFFFFFFFFFF80
FFFFFFFFFFFF80
FFFFFFFFFFFF80
FFFFFFFFFFFF80
FFFFFFFFFFFF80
FFFFFFFFFFFF80
FFFFFFFFFFFF80
FFFFFFFFFFFF80
ENDCHAR
STARTCHAR 0046
ENCODING 70
SWIDTH 528 0
DWIDTH 55 0
BBX 45 75 7 0
BITMAP
FFFFFFFFFFF8
FFFFFFFFFFF8
FFFFFFFFFFF8
FFFFFFFFFFF8
FFFFFFFFFFF8
FFFFFFFFFFF8
FFFFFFFFFFF8
FFFFFFFFFFF8
FFFFFFFFFFF8
FFFFFFFFFFF8
FFFFFFFFFFF8
FFFFFFFFFFF8
FFFFFFFFFFF8
FFF800000000
FFF800000000
FFF800000000
FFF800000000
FFF800000000
FFF800000000
FFF800000000
FFF800000000
FFF800000000
FFF800000000
FFF800000000
FFF800000000
FFF800000000
FFF800000000
FFF800000000
FFF800000000
FFF800000000
FFF800000000
FFFFFFFFFE00
FFFFFFFFFE00
FFFFFFFFFE00
FFFFFFFFFE00
FFFFFFFFFE00
FFFFFFFFFE00
FFFFFFFFFE00
FFFFFFFFFE00
FFFFFFFFFE00
FFFFFFFFFE00
FFFFFFFFFE00
FFFFFFFFFE00
FFFFFFFFFE00
FFF800000000
FFF800000000
FFF800000000
FFF800000000
FFF800000000
FFF800000000
FFF800000000
FFF800000000
FFF800000000
FFF800000000
FFF800000000
FFF800000000
FFF800000000
FFF800000000
FFF800000000
FFF800000000
FFF800000000
FFF800000000
FFF800000000
FFF800000000
FFF800000000
FFF800000000
FFF800000000
FFF800000000
FFF800000000
FFF800000000
FFF800000000
FFF800000000
FFF800000000
FFF800000000
FFF800000000
ENDCHAR
STARTCHAR 0047
ENCODING 71
SWIDTH 729 0
DWIDTH 76 0
BBX 70 79 3 -2
BITMAP
00000007FFC0000000
0000007FFFFE000000
000003FFFFFFC00000
00001FFFFFFFF00000
00007FFFFFFFFC0000
0000FFFFFFFFFF0000
0003FFFFFFFFFF8000
0007FFFFFFFFFFC000
000FFFFFFFFFFFE000
001FFFFFFFFFFFF000
003FFFFFFFFFFFF800
007FFFFFFFFFFFFC00
00FFFFFC007FFFFE00
00FFFFE0000FFFFF00
01FFFF800003FFFF00
03FFFE000000FFFF80
03FFFC0000007FFF80
07FFF80000003FFFC0
07FFF00000001FFFC0
0FFFE00000000FFFC0
0FFFC00000000FFFE0
1FFFC000000007FFE0
1FFF8000000007FFE0
1FFF8000000003FFF0
3FFF0000000003FFF0
3FFF0000000001FF00
3FFE0000000001C000
7FFE00000000000000
7FFE00000000000000
7FFE00000000000000
7FFC00000000000000
7FFC00000000000000
7FFC00000000000000
FFFC00000000000000
FFFC00000000000000
FFFC00000000000000
FFF800000000000000
FFF800000000000000
FFF80000001FFFFFFC
FFF80000001FFFFFFC
FFF80000001FFFFFFC
FFF80000001FFFFFFC
FFF80000001FFFFFFC
FFFC0000001FFFFFFC
FFFC0000001FFFFFFC
FFFC0000001FFFFFFC
FFFC0000001FFFFFFC
7FFC0000001FFFFFFC
7FFC0000000000FFFC
7FFC0000000000FFFC
7FFE0000000000FFF8
7FFE0000000000FFF8
3FFE0000000000FFF8
3FFF0000000001FFF8
3FFF0000000001FFF8
3FFF0000000001FFF0
1FFF8000000003FFF0
1FFFC000000003FFF0
0FFFC000000007FFE0
0FFFE00000000FFFE0
07FFF00000000FFFC0
07FFF80000001FFFC0
03FFFC0000003FFF80
03FFFE0000007FFF80
01FFFF800001FFFF00
00FFFFE00007FFFE00
00FFFFFC003FFFFE00
007FFFFFFFFFFFFC00
003FFFFFFFFFFFF800
001FFFFFFFFFFFF000
000FFFFFFFFFFFE000
0007FFFFFFFFFFC000
0003FFFFFFFFFF8000
0000FFFFFFFFFE0000
00007FFFFFFFFC0000
00001FFFFFFFF00000
000003FFFFFF800000
000000FFFFFC000000
00000007FFC0000000
ENDCHAR
STARTCHAR 0048
ENCODING 72
SWIDTH 720 0
DWIDTH 75 0
BBX 61 75 7 0
BITMAP
FFF800000000FFF8
FFF800000000FFF8
FFF800000000FFF8
FFF800000000FFF8
FFF800000000FFF8
FFF800000000FFF8
FFF800000000FFF8
FFF800000000FFF8
FFF800000000FFF8
FFF800000000FFF8
FFF800000000FFF8
FFF800000000FFF8
FFF800000000FFF8
FFF800000000FFF8
FFF800000000FFF8
FFF800000000FFF8
FFF800000000FFF8
FFF800000000FFF8
FFF800000000FFF8
FFF800000000FFF8
FFF800000000FFF8
FFF800000000FFF8
FFF800000000FFF8
FFF800000000FFF8
FFF800000000FFF8
FFF800000000FFF8
FFF800000000FFF8
FFF800000000FFF8
FFF800000000FFF8
FFF800000000FFF8
FFF800000000FFF8
FFFFFFFFFFFFFFF8
FFFFFFFFFFFFFFF8
FFFFFFFFFFFFFFF8
FFFFFFFFFFFFFFF8
FFFFFFFFFFFFFFF8
FFFFFFFFFFFFFFF8
FFFFFFFFFFFFFFF8
FFFFFFFFFFFFFFF8
FFFFFFFFFFFFFFF8
FFFFFFFFFFFFFFF8
FFFFFFFFFFFFFFF8
FFFFFFFFFFFFFFF8
FFF800000000FFF8
FFF800000000FFF8
FFF800000000FFF8
FFF800000000FFF8
FFF800000000FFF8
FFF800000000FFF8
FFF800000000FFF8
FFF800000000FFF8
FFF800000000FFF8
FFF800000000FFF8
FFF800000000FFF8
FFF800000000FFF8
FFF800000000FFF8
FFF800000000FFF8
FFF800000000FFF8
FFF800000000FFF8
FFF800000000FFF8
FFF800000000FFF8
FFF800000000FFF8
FFF800000000FFF8
FFF800000000FFF8
FFF800000000FFF8
FFF800000000FFF8
FFF800000000FFF8
FFF800000000FFF8
FFF800000000FFF8
FFF800000000FFF8
FFF800000000FFF8
FFF800000000FFF8
FFF800000000FFF8
FFF800000000FFF8
FFF800000000FFF8
ENDCHAR
STARTCHAR 0049
ENCODING 73
SWIDTH 278 0
DWIDTH 29 0
BBX 13 75 8 0
BITMAP
FFF8
FFF8
FFF8
FFF8
FFF8
FFF8
FFF8
FFF8
FFF8
FFF8
FFF8
FFF8
FFF8
FFF8
FFF8
FFF8
FFF8
FFF8
FFF8
FFF8
FFF8
FFF8
FFF8
FFF8
FFF8
FFF8
FFF8
FFF8
FFF8
FFF8
FFF8
FFF8
FFF8
FFF8
FFF8
FFF8
FFF8
FFF8
FFF8
FFF8
FFF8
FFF8
FFF8
FFF8
FFF8
FFF8
FFF8
FFF8
FFF8
FFF8
FFF8
FFF8
FFF8
FFF8
FFF8
FFF8
FFF8
FFF8
FFF8
FFF8
FFF8
FFF8
FFF8
FFF8
FFF8
FFF8
FFF8
FFF8
FFF8
FFF8
FFF8
FFF8
FFF8
FFF8
FFF8
ENDCHAR
STARTCHAR 004A
ENCODING 74
SWIDTH 499 0
DWIDTH 52 0
BBX 44 77 0 -2
BITMAP
00000001FFF0
00000001FFF0
00000001FFF0
00000001FFF0
00000001FFF0
00000001FFF0
00000001FFF0
00000001FFF0
00000001FFF0
00000001FFF0
00000001FFF0
00000001FFF0
00000001FFF0
00000001FFF0
00000001FFF0
00000001FFF0
00000001FFF0
00000001FFF0
00000001FFF0
00000001FFF0
00000001FFF0
00000001FFF0
00000001FFF0
00000001FFF0
00000001FFF0
00000001FFF0
00000001FFF0
00000001FFF0
00000001FFF0
00000001FFF0
00000001FFF0
00000001FFF0
00000001FFF0
00000001FFF0
00000001FFF0
00000001FFF0
00000001FFF0
00000001FFF0
00000001FFF0
00000001FFF0
00000001FFF0
00000001FFF0
00000001FFF0
00000001FFF0
00000001FFF0
00000001FFF0
00000001FFF0
00000001FFF0
00000001FFF0
00000001FFF0
00000001FFF0
00000001FFF0
00000001FFF0
00000001FFF0
00000001FFF0
00000001FFF0
00000001FFF0
00000001FFF0
00F80001FFF0
0FF80003FFF0
FFFC0003FFE0
FFFC0007FFE0
7FFE0007FFE0
7FFF001FFFE0
3FFFC07FFFC0
3FFFFFFFFFC0
1FFFFFFFFF80
1FFFFFFFFF80
0FFFFFFFFF00
07FFFFFFFE00
03FFFFFFFE00
01FFFFFFFC00
00FFFFFFF000
007FFFFFE000
001FFFFF8000
0007FFFE0000
00007FE00000
ENDCHAR
STARTCHAR 004B
ENCODING 75
SWIDTH 643 0
DWIDTH 67 0
BBX 60 75 7 0
BITMAP
FFF80000003FFFC0
FFF80000007FFF80
FFF80000007FFF00
FFF8000000FFFE00
FFF8000001FFFC00
FFF8000003FFF800
FFF8000007FFF800
FFF800000FFFF000
FFF800001FFFE000
FFF800001FFFC000
FFF800003FFF8000
FFF800007FFF0000
FFF80000FFFE0000
FFF80001FFFC0000
FFF80003FFFC0000
FFF80007FFF80000
FFF80007FFF00000
FFF8000FFFE00000
FFF8001FFFC00000
FFF8003FFF800000
FFF8007FFF000000
FFF800FFFE000000
FFF801FFFE000000
FFF801FFFC000000
FFF803FFF8000000
FFF807FFF0000000
FFF80FFFE0000000
FFF81FFFC0000000
FFF83FFF80000000
FFF87FFF00000000
FFF87FFE00000000
FFF8FFFE00000000
FFF9FFFC00000000
FFFBFFF800000000
FFFFFFF000000000
FFFFFFE000000000
FFFFFFC000000000
FFFFFFE000000000
FFFFFFF000000000
FFFFFFF000000000
FFFFFFF800000000
FFFBFFFC00000000
FFF9FFFE00000000
FFF8FFFF00000000
FFF87FFF80000000
FFF83FFFC0000000
FFF81FFFE0000000
FFF80FFFF0000000
FFF80FFFF8000000
FFF807FFF8000000
FFF803FFFC000000
FFF801FFFE000000
FFF800FFFF000000
FFF8007FFF800000
FFF8003FFFC00000
FFF8001FFFE00000
FFF8000FFFF00000
FFF80007FFF80000
FFF80003FFFC0000
FFF80003FFFC0000
FFF80001FFFE0000
FFF80000FFFF0000
FFF800007FFF8000
FFF800003FFFC000
FFF800001FFFE000
FFF800000FFFF000
FFF8000007FFF800
FFF8000003FFFC00
FFF8000001FFFE00
FFF8000001FFFE00
FFF8000000FFFF00
FFF80000007FFF80
FFF80000003FFFC0
FFF80000001FFFE0
FFF80000000FFFF0
ENDCHAR
STARTCHAR 004C
ENCODING 76
SWIDTH 537 0
DWIDTH 56 0
BBX 46 75 8 0
BITMAP
FFF800000000
FFF800000000
FFF800000000
FFF800000000
FFF800000000
FFF800000000
FFF800000000
FFF800000000
FFF800000000
FFF800000000
FFF800000000
FFF800000000
FFF800000000
FFF800000000
FFF800000000
FFF800000000
FFF800000000
FFF800000000
FFF800000000
FFF800000000
FFF800000000
FFF800000000
FFF800000000
FFF800000000
FFF800000000
FFF800000000
FFF800000000
FFF800000000
FFF800000000
FFF800000000
FFF800000000
FFF800000000
FFF800000000
FFF800000000
FFF800000000
FFF800000000
FFF800000000
FFF800000000
FFF800000000
FFF800000000
FFF800000000
FFF800000000
FFF800000000
FFF800000000
FFF800000000
FFF800000000
FFF800000000
FFF800000000
FFF800000000
FFF800000000
FFF800000000
FFF800000000
FFF800000000
FFF800000000
FFF800000000
FFF800000000
FFF800000000
FFF800000000
FFF800000000
FFF800000000
FFF800000000
FFF800000000
FFF800000000
FFFFFFFFFFFC
FFFFFFFFFFFC
FFFFFFFFFFFC
FFFFFFFFFFFC
FFFFFFFFFFFC
FFFFFFFFFFFC
FFFFFFFFFFFC
FFFFFFFFFFFC
FFFFFFFFFFFC
FFFFFFFFFFFC
FFFFFFFFFFFC
FFFFFFFFFFFC
ENDCHAR
STARTCHAR 004D
ENCODING 77
SWIDTH 854 0
DWIDTH 89 0
BBX 75 75 7 0
BITMAP
FFF0000000000001FFE0
FFF0000000000001FFE0
FFF8000000000003FFE0
FFF8000000000003FFE0
FFFC000000000007FFE0
FFFC000000000007FFE0
FFFE00000000000FFFE0
FFFE00000000000FFFE0
FFFF00000000001FFFE0
FFFF00000000001FFFE0
FFFF80000000003FFFE0
FFFF80000000003FFFE0
FFFFC0000000007FFFE0
FFFFC0000000007FFFE0
FFFFE000000000FFFFE0
FFFFE000000000FFFFE0
FFFFF000000001FFFFE0
FFFFF000000001FFFFE0
FFFFF800000003FFFFE0
FFFFF800000003FFFFE0
FFFFFC00000007FFFFE0
FFFFFC00000007FFFFE0
FFFFFE0000000FFFFFE0
FFFFFE0000000FFFFFE0
FFFFFF0000000FFFFFE0
FFFFFF0000001FFFFFE0
FFFFFF8000001FFFFFE0
FFFFFF8000003FFFFFE0
FFF7FFC000003FFDFFE0
FFF7FFC000007FFDFFE0
FFF3FFC000007FF9FFE0
FFF3FFE00000FFF9FFE0
FFF1FFE00000FFF1FFE0
FFF1FFF00001FFF1FFE0
FFF0FFF00001FFE1FFE0
FFF0FFF80003FFE1FFE0
FFF07FF80003FFC1FFE0
FFF07FFC0007FFC1FFE0
FFF03FFC0007FFC1FFE0
FFF03FFE000FFF81FFE0
FFF01FFE000FFF81FFE0
FFF01FFF001FFF01FFE0
FFF01FFF001FFF01FFE0
FFF00FFF803FFE01FFE0
FFF00FFF803FFE01FFE0
FFF007FFC07FFC01FFE0
FFF007FFC07FFC01FFE0
FFF003FFE0FFF801FFE0
FFF003FFE0FFF801FFE0
FFF001FFF1FFF001FFE0
FFF001FFF1FFF001FFE0
FFF000FFFBFFE001FFE0
FFF000FFFBFFE001FFE0
FFF0007FFFFFC001FFE0
FFF0007FFFFFC001FFE0
FFF0003FFFFF8001FFE0
FFF0003FFFFF8001FFE0
FFF0001FFFFF0001FFE0
FFF0001FFFFF0001FFE0
FFF0000FFFFE0001FFE0
FFF0000FFFFE0001FFE0
FFF00007FFFE0001FFE0
FFF00007FFFC0001FFE0
FFF00003FFFC0001FFE0
FFF00003FFF80001FFE0
FFF00003FFF80001FFE0
FFF00001FFF00001FFE0
FFF00001FFF00001FFE0
FFF00000FFE00001FFE0
FFF00000FFE00001FFE0
FFF000007FC00001FFE0
FFF000007FC00001FFE0
FFF000003F800001FFE0
FFF000003F800001FFE0
FFF000001F000001FFE0
ENDCHAR
STARTCHAR 004E
ENCODING 78
SWIDTH 720 0
DWIDTH 75 0
BBX 61 75 7 0
BITMAP
FFF800000000FFF8
FFFC00000000FFF8
FFFE00000000FFF8
FFFE00000000FFF8
FFFF00000000FFF8
FFFF80000000FFF8
FFFF80000000FFF8
FFFFC0000000FFF8
FFFFE0000000FFF8
FFFFE0000000FFF8
FFFFF0000000FFF8
FFFFF8000000FFF8
FFFFF8000000FFF8
FFFFFC000000FFF8
FFFFFE000000FFF8
FFFFFE000000FFF8
FFFFFF000000FFF8
FFFFFF800000FFF8
FFFFFF800000FFF8
FFFFFFC00000FFF8
FFFFFFE00000FFF8
FFFFFFE00000FFF8
FFFFFFF00000FFF8
FFFBFFF00000FFF8
FFF9FFF80000FFF8
FFF9FFFC0000FFF8
FFF8FFFC0000FFF8
FFF87FFE0000FFF8
FFF87FFF0000FFF8
FFF83FFF0000FFF8
FFF83FFF8000FFF8
FFF81FFFC000FFF8
FFF80FFFC000FFF8
FFF80FFFE000FFF8
FFF807FFF000FFF8
FFF803FFF000FFF8
FFF803FFF800FFF8
FFF801FFFC00FFF8
FFF800FFFC00FFF8
FFF800FFFE00FFF8
FFF8007FFF00FFF8
FFF8003FFF00FFF8
FFF8003FFF80FFF8
FFF8001FFFC0FFF8
FFF8000FFFC0FFF8
FFF8000FFFE0FFF8
FFF80007FFF0FFF8
FFF80003FFF0FFF8
FFF80003FFF8FFF8
FFF80001FFFCFFF8
FFF80000FFFCFFF8
FFF80000FFFEFFF8
FFF800007FFFFFF8
FFF800003FFFFFF8
FFF800003FFFFFF8
FFF800001FFFFFF8
FFF800000FFFFFF8
FFF800000FFFFFF8
FFF8000007FFFFF8
FFF8000003FFFFF8
FFF8000003FFFFF8
FFF8000001FFFFF8
FFF8000000FFFFF8
FFF8000000FFFFF8
FFF80000007FFFF8
FFF80000003FFFF8
FFF80000003FFFF8
FFF80000001FFFF8
FFF80000000FFFF8
FFF80000000FFFF8
FFF800000007FFF8
FFF800000007FFF8
FFF800000003FFF8
FFF800000001FFF8
FFF800000001FFF8
ENDCHAR
STARTCHAR 004F
ENCODING 79
SWIDTH 748 0
DWIDTH 78 0
BBX 72 79 3 -2
BITMAP
00000007FFE0000000
0000007FFFFE000000
000003FFFFFFC00000
00001FFFFFFFF80000
00007FFFFFFFFC0000
0000FFFFFFFFFF0000
0003FFFFFFFFFFC000
0007FFFFFFFFFFE000
000FFFFFFFFFFFF000
001FFFFFFFFFFFF800
003FFFFFFFFFFFFC00
007FFFFFFFFFFFFE00
00FFFFFC003FFFFF00
00FFFFE00007FFFF80
01FFFF800001FFFF80
03FFFE0000007FFFC0
03FFFC0000003FFFC0
07FFF80000001FFFE0
07FFF00000000FFFE0
0FFFE000000007FFF0
0FFFC000000003FFF0
1FFFC000000003FFF8
1FFF8000000001FFF8
1FFF8000000001FFFC
3FFF0000000000FFFC
3FFF0000000000FFFC
3FFE00000000007FFC
7FFE00000000007FFE
7FFE00000000007FFE
7FFC00000000003FFE
7FFC00000000003FFE
7FFC00000000003FFE
7FFC00000000003FFF
FFFC00000000003FFF
FFFC00000000003FFF
FFFC00000000003FFF
FFF800000000001FFF
FFF800000000001FFF
FFF800000000001FFF
FFF800000000001FFF
FFF800000000001FFF
FFF800000000001FFF
FFF800000000003FFF
FFFC00000000003FFF
FFFC00000000003FFF
FFFC00000000003FFF
FFFC00000000003FFF
7FFC00000000003FFE
7FFC00000000003FFE
7FFC00000000003FFE
7FFE00000000007FFE
7FFE00000000007FFE
3FFE00000000007FFC
3FFF0000000000FFFC
3FFF0000000000FFFC
1FFF8000000000FFFC
1FFF8000000001FFF8
1FFFC000000003FFF8
0FFFC000000003FFF0
0FFFE000000007FFF0
07FFF00000000FFFF0
07FFF80000001FFFE0
03FFFC0000003FFFC0
03FFFE0000007FFFC0
01FFFF800001FFFF80
00FFFFE00007FFFF80
00FFFFFC003FFFFF00
007FFFFFFFFFFFFE00
003FFFFFFFFFFFFC00
001FFFFFFFFFFFF800
000FFFFFFFFFFFF000
0007FFFFFFFFFFE000
0003FFFFFFFFFFC000
0000FFFFFFFFFF0000
00003FFFFFFFFE0000
00001FFFFFFFF80000
000003FFFFFFC00000
0000007FFFFE000000
00000007FFE0000000
ENDCHAR
STARTCHAR 0050
ENCODING 80
SWIDTH 643 0
DWIDTH 67 0
BBX 56 75 7 0
BITMAP
FFFFFFFFFC0000
FFFFFFFFFFC000
FFFFFFFFFFF000
FFFFFFFFFFFC00
FFFFFFFFFFFF00
FFFFFFFFFFFF80
FFFFFFFFFFFFC0
FFFFFFFFFFFFE0
FFFFFFFFFFFFF0
FFFFFFFFFFFFF0
FFFFFFFFFFFFF8
FFFFFFFFFFFFFC
FFF800000FFFFC
FFF8000003FFFC
FFF8000000FFFE
FFF80000007FFE
FFF80000003FFE
FFF80000003FFF
FFF80000001FFF
FFF80000001FFF
FFF80000001FFF
FFF80000001FFF
FFF80000000FFF
FFF80000000FFF
FFF80000000FFF
FFF80000000FFF
FFF80000000FFF
FFF80000001FFF
FFF80000001FFF
FFF80000001FFF
FFF80000003FFF
FFF80000003FFF
FFF80000007FFE
FFF80000007FFE
FFF8000000FFFE
FFF8000003FFFC
FFF800001FFFFC
FFFFFFFFFFFFF8
FFFFFFFFFFFFF8
FFFFFFFFFFFFF0
FFFFFFFFFFFFE0
FFFFFFFFFFFFE0
FFFFFFFFFFFFC0
FFFFFFFFFFFF80
FFFFFFFFFFFE00
FFFFFFFFFFFC00
FFFFFFFFFFF000
FFFFFFFFFF8000
FFFFFFFFE00000
FFF80000000000
FFF80000000000
FFF80000000000
FFF80000000000
FFF80000000000
FFF80000000000
FFF80000000000
FFF80000000000
FFF80000000000
FFF80000000000
FFF80000000000
FFF80000000000
FFF80000000000
FFF80000000000
FFF80000000000
FFF80000000000
FFF80000000000
FFF80000000000
FFF80000000000
FFF80000000000
FFF80000000000
FFF80000000000
FFF80000000000
FFF80000000000
FFF80000000000
FFF80000000000
ENDCHAR
STARTCHAR 0051
ENCODING 81
SWIDTH 748 0
DWIDTH 78 0
BBX 72 79 3 -2
BITMAP
00000007FFE0000000
0000007FFFFE000000
000003FFFFFFC00000
00001FFFFFFFF80000
00007FFFFFFFFC0000
0000FFFFFFFFFF0000
0003FFFFFFFFFFC000
0007FFFFFFFFFFE000
000FFFFFFFFFFFF000
001FFFFFFFFFFFF800
003FFFFFFFFFFFFC00
007FFFFFFFFFFFFE00
00FFFFFC003FFFFF00
00FFFFE00007FFFF80
01FFFF800001FFFF80
03FFFE0000007FFFC0
03FFFC0000003FFFC0
07FFF80000001FFFE0
07FFF00000000FFFE0
0FFFE000000007FFF0
0FFFC000000003FFF0
1FFFC000000003FFF8
1FFF8000000001FFF8
1FFF8000000001FFFC
3FFF0000000000FFFC
3FFF0000000000FFFC
3FFE00000000007FFC
7FFE00000000007FFE
7FFE00000000007FFE
7FFC00000000003FFE
7FFC00000000003FFE
7FFC00000000003FFE
7FFC00000000003FFF
FFFC00000000003FFF
FFFC00000000003FFF
FFFC00000000003FFF
FFF800000000001FFF
FFF800000000001FFF
FFF800000000001FFF
FFF800000000001FFF
FFF800000000001FFF
FFF800000000001FFF
FFF800000000001FFF
FFFC00000000003FFF
FFFC00000000003FFF
FFFC00000000003FFF
FFFC00000000003FFF
7FFC00000000003FFE
7FFC00000000003FFE
7FFC00000000003FFE
7FFE00000000407FFE
7FFE00000000E07FFE
3FFE00000001F07FFC
3FFF00000003F8FFFC
3FFF00000007FCFFFC
1FFF8000000FFFFFFC
1FFF8000001FFFFFF8
1FFFC000003FFFFFF8
0FFFC000001FFFFFF0
0FFFE000000FFFFFF0
07FFF0000007FFFFF0
07FFF8000007FFFFE0
03FFFC000003FFFFC0
03FFFE000001FFFFC0
01FFFF800001FFFF80
00FFFFE00007FFFF80
00FFFFFC003FFFFFC0
007FFFFFFFFFFFFFE0
003FFFFFFFFFFFFFF0
001FFFFFFFFFFFFFF8
000FFFFFFFFFFFFFFC
0007FFFFFFFFFFFFFC
0003FFFFFFFFFFFFF8
0000FFFFFFFFFF7FF0
00003FFFFFFFFE3FE0
00001FFFFFFFF81FC0
000003FFFFFFC00F80
0000007FFFFE000780
00000007FFE0000300
ENDCHAR
STARTCHAR 0052
ENCODING 82
SWIDTH 662 0
DWIDTH 69 0
BBX 57 75 7 0
BITMAP
FFFFFFFFFC000000
FFFFFFFFFFC00000
FFFFFFFFFFF00000
FFFFFFFFFFFC0000
FFFFFFFFFFFF0000
FFFFFFFFFFFF8000
FFFFFFFFFFFFC000
FFFFFFFFFFFFE000
FFFFFFFFFFFFF000
FFFFFFFFFFFFF000
FFFFFFFFFFFFF800
FFFFFFFFFFFFFC00
FFF800000FFFFC00
FFF8000003FFFC00
FFF8000000FFFE00
FFF80000007FFE00
FFF80000003FFE00
FFF80000003FFF00
FFF80000001FFF00
FFF80000001FFF00
FFF80000001FFF00
FFF80000001FFF00
FFF80000000FFF00
FFF80000000FFF00
FFF80000000FFF00
FFF80000000FFF00
FFF80000000FFF00
FFF80000001FFF00
FFF80000001FFF00
FFF80000001FFF00
FFF80000003FFF00
FFF80000003FFF00
FFF80000007FFE00
FFF80000007FFE00
FFF8000000FFFE00
FFF8000003FFFC00
FFF800001FFFFC00
FFFFFFFFFFFFF800
FFFFFFFFFFFFF800
FFFFFFFFFFFFF000
FFFFFFFFFFFFE000
FFFFFFFFFFFFE000
FFFFFFFFFFFFC000
FFFFFFFFFFFF8000
FFFFFFFFFFFE0000
FFFFFFFFFFFC0000
FFFFFFFFFFF00000
FFFFFFFFFFF00000
FFFFFFFFFFF80000
FFF80001FFF80000
FFF80001FFFC0000
FFF80000FFFC0000
FFF80000FFFE0000
FFF800007FFE0000
FFF800007FFF0000
FFF800003FFF0000
FFF800003FFF8000
FFF800001FFF8000
FFF800001FFFC000
FFF800000FFFC000
FFF800000FFFE000
FFF8000007FFE000
FFF8000007FFF000
FFF8000003FFF000
FFF8000003FFF000
FFF8000001FFF800
FFF8000001FFF800
FFF8000000FFFC00
FFF8000000FFFC00
FFF80000007FFE00
FFF80000007FFE00
FFF80000003FFF00
FFF80000003FFF00
FFF80000001FFF80
FFF80000001FFF80
ENDCHAR
STARTCHAR 0053
ENCODING 83
SWIDTH 662 0
DWIDTH 69 0
BBX 60 78 4 -2
BITMAP
000000FFF0000000
00001FFFFF800000
0000FFFFFFF00000
0003FFFFFFFC0000
000FFFFFFFFF0000
001FFFFFFFFF8000
003FFFFFFFFFE000
007FFFFFFFFFF000
00FFFFFFFFFFF800
01FFFFFFFFFFFC00
03FFFFFFFFFFFE00
07FFFFFFFFFFFE00
07FFFF001FFFFF00
07FFFC0003FFFF80
0FFFF00000FFFF80
0FFFE000007FFFC0
0FFFC000003FFFC0
1FFF8000001FFFC0
1FFF8000000FFFE0
1FFF00000007FFE0
1FFF00000007FFF0
1FFF00000003FFF0
1FFF00000003FF80
1FFF00000003E000
1FFF800000000000
1FFFC00000000000
1FFFC00000000000
0FFFF00000000000
0FFFFC0000000000
0FFFFF0000000000
07FFFFF000000000
07FFFFFE00000000
03FFFFFFE0000000
01FFFFFFFE000000
01FFFFFFFFC00000
00FFFFFFFFF80000
003FFFFFFFFF0000
001FFFFFFFFFC000
0007FFFFFFFFF000
0001FFFFFFFFF800
00003FFFFFFFFC00
000007FFFFFFFE00
000000FFFFFFFF00
0000000FFFFFFF80
00000001FFFFFFC0
000000001FFFFFC0
0000000003FFFFE0
00000000007FFFE0
00000000001FFFF0
00000000000FFFF0
000000000003FFF0
000000000003FFF0
001800000001FFF0
07F800000001FFF0
FFFC00000001FFF0
FFFC00000001FFF0
FFFE00000001FFF0
7FFE00000001FFF0
7FFF00000001FFF0
7FFF80000003FFF0
3FFF80000003FFF0
3FFFC0000007FFE0
1FFFF000000FFFE0
1FFFF800003FFFE0
0FFFFE00007FFFC0
0FFFFFC003FFFFC0
07FFFFFFFFFFFF80
03FFFFFFFFFFFF00
01FFFFFFFFFFFF00
00FFFFFFFFFFFE00
007FFFFFFFFFFC00
003FFFFFFFFFF000
001FFFFFFFFFE000
0007FFFFFFFF8000
0001FFFFFFFF0000
00007FFFFFF80000
00000FFFFFC00000
0000007FFC000000
ENDCHAR
STARTCHAR 0054
ENCODING 84
SWIDTH 604 0
DWIDTH 63 0
BBX 61 75 1 0
BITMAP
FFFFFFFFFFFFFFF8
FFFFFFFFFFFFFFF8
FFFFFFFFFFFFFFF8
FFFFFFFFFFFFFFF8
FFFFFFFFFFFFFFF8
FFFFFFFFFFFFFFF8
FFFFFFFFFFFFFFF8
FFFFFFFFFFFFFFF8
FFFFFFFFFFFFFFF8
FFFFFFFFFFFFFFF8
FFFFFFFFFFFFFFF8
FFFFFFFFFFFFFFF8
000000FFF8000000
000000FFF8000000
000000FFF8000000
000000FFF8000000
000000FFF8000000
000000FFF8000000
000000FFF8000000
000000FFF8000000
000000FFF8000000
000000FFF8000000
000000FFF8000000
000000FFF8000000
000000FFF8000000
000000FFF8000000
000000FFF8000000
000000FFF8000000
000000FFF8000000
000000FFF8000000
000000FFF8000000
000000FFF8000000
000000FFF8000000
000000FFF8000000
000000FFF8000000
000000FFF8000000
000000FFF8000000
000000FFF8000000
000000FFF8000000
000000FFF8000000
000000FFF8000000
000000FFF8000000
000000FFF8000000
000000FFF8000000
000000FFF8000000
000000FFF8000000
000000FFF8000000
000000FFF8000000
000000FFF8000000
000000FFF8000000
000000FFF8000000
000000FFF8000000
000000FFF8000000
000000FFF8000000
000000FFF8000000
000000FFF8000000
000000FFF8000000
000000FFF8000000
000000FFF8000000
000000FFF8000000
000000FFF8000000
000000FFF8000000
000000FFF8000000
000000FFF8000000
000000FFF8000000
000000FFF8000000
000000FFF8000000
000000FFF8000000
000000FFF8000000
000000FFF8000000
000000FFF8000000
000000FFF8000000
000000FFF8000000
000000FFF8000000
000000FFF8000000
ENDCHAR
STARTCHAR 0055
ENCODING 85
SWIDTH 720 0
DWIDTH 75 0
BBX 61 77 7 -2
BITMAP
FFF800000000FFF8
FFF800000000FFF8
FFF800000000FFF8
FFF800000000FFF8
FFF800000000FFF8
FFF800000000FFF8
FFF800000000FFF8
FFF800000000FFF8
FFF800000000FFF8
FFF800000000FFF8
FFF800000000FFF8
FFF800000000FFF8
FFF800000000FFF8
FFF800000000FFF8
FFF800000000FFF8
FFF800000000FFF8
FFF800000000FFF8
FFF800000000FFF8
FFF800000000FFF8
FFF800000000FFF8
FFF800000000FFF8
FFF800000000FFF8
FFF800000000FFF8
FFF800000000FFF8
FFF800000000FFF8
FFF800000000FFF8
FFF800000000FFF8
FFF800000000FFF8
FFF800000000FFF8
FFF800000000FFF8
FFF800000000FFF8
FFF800000000FFF8
FFF800000000FFF8
FFF800000000FFF8
FFF800000000FFF8
FFF800000000FFF8
FFF800000000FFF8
FFF800000000FFF8
FFF800000000FFF8
FFF800000000FFF8
FFF800000000FFF8
FFF800000000FFF8
FFF800000000FFF8
FFF800000000FFF8
FFF800000000FFF8
FFF800000000FFF8
FFF800000000FFF8
FFF800000000FFF8
FFF800000000FFF8
FFF800000000FFF8
FFF800000000FFF8
FFF800000000FFF0
7FFC00000001FFF0
7FFC00000001FFF0
7FFC00000001FFF0
7FFE00000003FFF0
7FFE00000003FFF0
3FFF00000007FFE0
3FFF8000000FFFE0
3FFF8000000FFFE0
1FFFC000001FFFC0
1FFFF000007FFFC0
0FFFF80000FFFF80
0FFFFE0003FFFF80
07FFFF801FFFFF00
03FFFFFFFFFFFE00
03FFFFFFFFFFFE00
01FFFFFFFFFFFC00
00FFFFFFFFFFF800
007FFFFFFFFFF000
003FFFFFFFFFE000
000FFFFFFFFF8000
0007FFFFFFFF0000
0001FFFFFFFC0000
00007FFFFFF00000
00000FFFFF800000
000000FFF8000000
ENDCHAR
STARTCHAR 0056
ENCODING 86
SWIDTH 643 0
DWIDTH 67 0
BBX 65 75 1 0
BITMAP
FFF8000000000FFF80
FFF8000000000FFF80
FFF8000000001FFF00
7FFC000000001FFF00
7FFC000000001FFF00
7FFC000000001FFE00
3FFC000000003FFE00
3FFE000000003FFE00
3FFE000000003FFE00
3FFE000000007FFC00
1FFF000000007FFC00
1FFF000000007FFC00
1FFF00000000FFF800
0FFF80000000FFF800
0FFF80000000FFF800
0FFF80000001FFF000
07FFC0000001FFF000
07FFC0000001FFF000
07FFC0000003FFE000
03FFE0000003FFE000
03FFE0000003FFE000
03FFE0000007FFC000
01FFF0000007FFC000
01FFF0000007FFC000
01FFF000000FFF8000
00FFF000000FFF8000
00FFF800000FFF8000
00FFF800000FFF8000
00FFF800001FFF0000
007FFC00001FFF0000
007FFC00001FFF0000
007FFC00003FFE0000
003FFE00003FFE0000
003FFE00003FFE0000
003FFE00007FFC0000
001FFF00007FFC0000
001FFF00007FFC0000
001FFF0000FFF80000
000FFF8000FFF80000
000FFF8000FFF80000
000FFF8001FFF00000
0007FFC001FFF00000
0007FFC001FFF00000
0007FFC003FFE00000
0003FFC003FFE00000
0003FFE003FFE00000
0003FFE007FFE00000
0003FFE007FFC00000
0001FFF007FFC00000
0001FFF00FFFC00000
0001FFF00FFF800000
0000FFF80FFF800000
0000FFF80FFF800000
0000FFF81FFF000000
00007FFC1FFF000000
00007FFC1FFF000000
00007FFC3FFE000000
00003FFE3FFE000000
00003FFE3FFE000000
00003FFE7FFC000000
00001FFF7FFC000000
00001FFF7FFC000000
00001FFFFFF8000000
00000FFFFFF8000000
00000FFFFFF8000000
00000FFFFFF8000000
00000FFFFFF0000000
000007FFFFF0000000
000007FFFFF0000000
000007FFFFE0000000
000003FFFFE0000000
000003FFFFE0000000
000003FFFFC0000000
000001FFFFC0000000
000001FFFFC0000000
ENDCHAR
STARTCHAR 0057
ENCODING 87
SWIDTH 979 0
DWIDTH 102 0
BBX 99 75 1 0
BITMAP
FFFC0000001FFF80000003FFE0
7FFC0000001FFF80000003FFE0
7FFC0000001FFF80000003FFE0
7FFC0000003FFF80000007FFC0
7FFE0000003FFFC0000007FFC0
3FFE0000003FFFC0000007FFC0
3FFE0000007FFFC000000FFFC0
3FFE0000007FFFC000000FFF80
1FFF0000007FFFE000000FFF80
1FFF0000007FFFE000000FFF80
1FFF000000FFFFE000001FFF00
0FFF800000FFFFF000001FFF00
0FFF800000FFFFF000001FFF00
0FFF800000FFFFF000001FFE00
0FFF800001FFFFF000003FFE00
07FFC00001FFFFF800003FFE00
07FFC00001FFFFF800003FFE00
07FFC00003FFFFF800007FFC00
03FFC00003FFFFFC00007FFC00
03FFE00003FFFFFC00007FFC00
03FFE00003FFFFFC00007FF800
03FFE00007FFFFFC0000FFF800
01FFF00007FFFFFE0000FFF800
01FFF00007FFBFFE0000FFF800
01FFF0000FFF9FFE0000FFF000
00FFF0000FFF9FFE0001FFF000
00FFF8000FFF1FFF0001FFF000
00FFF8000FFF1FFF0001FFE000
007FF8001FFF0FFF0003FFE000
007FFC001FFF0FFF8003FFE000
007FFC001FFE0FFF8003FFE000
007FFC001FFE07FF8003FFC000
003FFC003FFE07FF8007FFC000
003FFE003FFC07FFC007FFC000
003FFE003FFC07FFC007FF8000
001FFE007FFC03FFC00FFF8000
001FFE007FFC03FFC00FFF8000
001FFF007FF803FFE00FFF0000
001FFF007FF801FFE00FFF0000
000FFF00FFF801FFE01FFF0000
000FFF80FFF001FFF01FFF0000
000FFF80FFF000FFF01FFE0000
0007FF80FFF000FFF01FFE0000
0007FF81FFF000FFF03FFE0000
0007FFC1FFE000FFF83FFC0000
0007FFC1FFE0007FF83FFC0000
0003FFC3FFE0007FF87FFC0000
0003FFE3FFC0007FFC7FFC0000
0003FFE3FFC0003FFC7FF80000
0001FFE3FFC0003FFC7FF80000
0001FFE7FFC0003FFCFFF80000
0001FFF7FF80003FFEFFF00000
0000FFF7FF80001FFEFFF00000
0000FFF7FF80001FFEFFF00000
0000FFFFFF00001FFFFFF00000
0000FFFFFF00000FFFFFE00000
00007FFFFF00000FFFFFE00000
00007FFFFF00000FFFFFE00000
00007FFFFE00000FFFFFC00000
00003FFFFE000007FFFFC00000
00003FFFFE000007FFFFC00000
00003FFFFC000007FFFF800000
00003FFFFC000003FFFF800000
00001FFFFC000003FFFF800000
00001FFFFC000003FFFF800000
00001FFFF8000003FFFF000000
00000FFFF8000001FFFF000000
00000FFFF8000001FFFF000000
00000FFFF0000001FFFE000000
00000FFFF0000000FFFE000000
000007FFF0000000FFFE000000
000007FFF0000000FFFE000000
000007FFE0000000FFFC000000
000003FFE00000007FFC000000
000003FFE00000007FFC000000
ENDCHAR
STARTCHAR 0058
ENCODING 88
SWIDTH 652 0
DWIDTH 68 0
BBX 66 75 1 0
BITMAP
7FFF000000003FFF80
3FFF800000007FFF80
3FFFC00000007FFF00
1FFFC0000000FFFE00
0FFFE0000001FFFE00
0FFFF0000001FFFC00
07FFF0000003FFF800
03FFF8000007FFF800
03FFFC000007FFF000
01FFFC00000FFFE000
00FFFE00001FFFE000
00FFFF00001FFFC000
007FFF00003FFF8000
003FFF80003FFF8000
003FFFC0007FFF0000
001FFFC000FFFE0000
000FFFE000FFFE0000
000FFFE001FFFC0000
0007FFF003FFF80000
0003FFF803FFF80000
0003FFF807FFF00000
0001FFFC0FFFE00000
0000FFFE0FFFE00000
0000FFFE1FFFC00000
00007FFF3FFF800000
00003FFFBFFF800000
00003FFFFFFF000000
00001FFFFFFE000000
00000FFFFFFE000000
00000FFFFFFC000000
000007FFFFF8000000
000003FFFFF8000000
000003FFFFF0000000
000001FFFFE0000000
000000FFFFE0000000
000000FFFFC0000000
0000007FFF80000000
0000007FFF80000000
0000007FFFC0000000
000000FFFFE0000000
000001FFFFE0000000
000001FFFFF0000000
000003FFFFF8000000
000007FFFFF8000000
00000FFFFFFC000000
00000FFFFFFE000000
00001FFFFFFE000000
00003FFFFFFF000000
00003FFFBFFF800000
00007FFF3FFF800000
0000FFFE1FFFC00000
0000FFFE0FFFE00000
0001FFFC0FFFE00000
0003FFF807FFF00000
0003FFF803FFF80000
0007FFF003FFF80000
000FFFF001FFFC0000
000FFFE000FFFE0000
001FFFC000FFFE0000
003FFFC0007FFF0000
003FFF80007FFF8000
007FFF00003FFF8000
00FFFF00001FFFC000
00FFFE00001FFFE000
01FFFC00000FFFE000
03FFFC000007FFF000
03FFF8000007FFF800
07FFF0000003FFF800
0FFFF0000001FFFC00
0FFFE0000001FFFE00
1FFFC0000000FFFE00
3FFFC00000007FFF00
3FFF800000007FFF80
7FFF000000003FFF80
FFFF000000001FFFC0
ENDCHAR
STARTCHAR 0059
ENCODING 89
SWIDTH 614 0
DWIDTH 64 0
BBX 63 75 0 0
BITMAP
FFFE000000007FFE
7FFF00000000FFFE
7FFF00000000FFFC
3FFF80000001FFFC
1FFF80000003FFF8
1FFFC0000003FFF8
0FFFC0000007FFF0
0FFFE0000007FFE0
07FFF000000FFFE0
07FFF000000FFFC0
03FFF800001FFFC0
01FFF800003FFF80
01FFFC00003FFF80
00FFFC00007FFF00
00FFFE00007FFE00
007FFF0000FFFE00
007FFF0000FFFC00
003FFF8001FFFC00
001FFF8003FFF800
001FFFC003FFF000
000FFFC007FFF000
000FFFE007FFE000
0007FFF00FFFE000
0003FFF00FFFC000
0003FFF81FFFC000
0001FFF83FFF8000
0001FFFC3FFF0000
0000FFFE7FFF0000
0000FFFE7FFE0000
00007FFFFFFE0000
00003FFFFFFC0000
00003FFFFFFC0000
00001FFFFFF80000
00001FFFFFF00000
00000FFFFFF00000
00000FFFFFE00000
000007FFFFE00000
000003FFFFC00000
000003FFFFC00000
000001FFFF800000
000001FFFF000000
000000FFFF000000
000000FFFE000000
0000007FFE000000
0000003FFC000000
0000003FFC000000
0000003FFC000000
0000003FFC000000
0000003FFC000000
0000003FFC000000
0000003FFC000000
0000003FFC000000
0000003FFC000000
0000003FFC000000
0000003FFC000000
0000003FFC000000
0000003FFC000000
0000003FFC000000
0000003FFC000000
0000003FFC000000
0000003FFC000000
0000003FFC000000
0000003FFC000000
0000003FFC000000
0000003FFC000000
0000003FFC000000
0000003FFC000000
0000003FFC000000
0000003FFC000000
0000003FFC000000
0000003FFC000000
0000003FFC000000
0000003FFC000000
0000003FFC000000
0000003FFC000000
ENDCHAR
STARTCHAR 005A
ENCODING 90
SWIDTH 662 0
DWIDTH 69 0
BBX 59 75 5 0
BITMAP
1FFFFFFFFFFFFFE0
1FFFFFFFFFFFFFE0
1FFFFFFFFFFFFFC0
1FFFFFFFFFFFFFC0
1FFFFFFFFFFFFF80
1FFFFFFFFFFFFF80
1FFFFFFFFFFFFF00
1FFFFFFFFFFFFE00
1FFFFFFFFFFFFE00
1FFFFFFFFFFFFC00
1FFFFFFFFFFFFC00
1FFFFFFFFFFFF800
0000000007FFF800
000000000FFFF000
000000000FFFE000
000000001FFFE000
000000003FFFC000
000000003FFFC000
000000007FFF8000
000000007FFF0000
00000000FFFF0000
00000001FFFE0000
00000001FFFC0000
00000003FFFC0000
00000003FFF80000
00000007FFF80000
0000000FFFF00000
0000000FFFF00000
0000001FFFE00000
0000001FFFC00000
0000003FFFC00000
0000007FFF800000
0000007FFF800000
000000FFFF000000
000000FFFE000000
000001FFFE000000
000003FFFC000000
000003FFFC000000
000007FFF8000000
000007FFF0000000
00000FFFF0000000
00001FFFE0000000
00001FFFE0000000
00003FFFC0000000
00003FFF80000000
00007FFF80000000
0000FFFF00000000
0000FFFF00000000
0001FFFE00000000
0003FFFC00000000
0003FFFC00000000
0007FFF800000000
0007FFF800000000
000FFFF000000000
001FFFE000000000
001FFFE000000000
003FFFC000000000
003FFFC000000000
007FFF8000000000
00FFFF0000000000
00FFFF0000000000
01FFFE0000000000
01FFFE0000000000
03FFFFFFFFFFFFC0
07FFFFFFFFFFFFC0
07FFFFFFFFFFFFC0
0FFFFFFFFFFFFFC0
0FFFFFFFFFFFFFC0
1FFFFFFFFFFFFFC0
3FFFFFFFFFFFFFC0
3FFFFFFFFFFFFFC0
7FFFFFFFFFFFFFC0
7FFFFFFFFFFFFFC0
FFFFFFFFFFFFFFC0
FFFFFFFFFFFFFFC0
ENDCHAR
STARTCHAR 005B
ENCODING 91
SWIDTH 422 0
DWIDTH 44 0
BBX 22 115 15 -22
BITMAP
FFFFFC
FFFFFC
FFFFFC
FFFFFC
FFFFFC
FFFFFC
FFFFFC
FFFFFC
FFFFFC
FFFFFC
FFFFFC
FFE000
FFE000
FFE000
FFE000
FFE000
FFE000
FFE000
FFE000
FFE000
FFE000
FFE000
FFE000
FFE000
FFE000
FFE000
FFE000
FFE000
FFE000
FFE000
FFE000
FFE000
FFE000
FFE000
FFE000
FFE000
FFE000
FFE000
FFE000
FFE000
FFE000
FFE000
FFE000
FFE000
FFE000
FFE000
FFE000
FFE000
FFE000
FFE000
FFE000
FFE000
FFE000
FFE000
FFE000
FFE000
FFE000
FFE000
FFE000
FFE000
FFE000
FFE000
FFE000
FFE000
FFE000
FFE000
FFE000
FFE000
FFE000
FFE000
FFE000
FFE000
FFE000
FFE000
FFE000
FFE000
FFE000
FFE000
FFE000
FFE000
FFE000
FFE000
FFE000
FFE000
FFE000
FFE000
FFE000
FFE000
FFE000
FFE000
FFE000
FFE000
FFE000
FFE000
FFE000
FFE000
FFE000
FFE000
FFE000
FFE000
FFE000
FFE000
FFE000
FFE000
FFFFFC
FFFFFC
FFFFFC
FFFFFC
FFFFFC
FFFFFC
FFFFFC
FFFFFC
FFFFFC
FFFFFC
FFFFFC
ENDCHAR
STARTCHAR 005C
ENCODING 92
SWIDTH 432 0
DWIDTH 45 0
BBX 33 75 6 0
BITMAP
FFF8000000
7FF8000000
7FFC000000
7FFC000000
7FFC000000
3FFC000000
3FFE000000
3FFE000000
1FFE000000
1FFE000000
1FFF000000
1FFF000000
0FFF000000
0FFF000000
0FFF800000
0FFF800000
07FF800000
07FFC00000
07FFC00000
07FFC00000
03FFC00000
03FFE00000
03FFE00000
01FFE00000
01FFE00000
01FFF00000
01FFF00000
00FFF00000
00FFF00000
00FFF80000
00FFF80000
007FF80000
007FFC0000
007FFC0000
007FFC0000
003FFC0000
003FFE0000
003FFE0000
001FFE0000
001FFE0000
001FFF0000
001FFF0000
000FFF0000
000FFF0000
000FFF8000
000FFF8000
0007FF8000
0007FFC000
0007FFC000
0007FFC000
0003FFC000
0003FFE000
0003FFE000
0001FFE000
0001FFE000
0001FFF000
0001FFF000
0000FFF000
0000FFF000
0000FFF800
0000FFF800
00007FF800
00007FFC00
00007FFC00
00007FFC00
00003FFC00
00003FFE00
00003FFE00
00001FFE00
00001FFE00
00001FFF00
00001FFF00
00000FFF00
00000FFF00
00000FFF80
ENDCHAR
STARTCHAR 005D
ENCODING 93
SWIDTH 422 0
DWIDTH 44 0
BBX 23 115 7 -22
BITMAP
FFFFFE
FFFFFE
FFFFFE
FFFFFE
FFFFFE
FFFFFE
FFFFFE
FFFFFE
FFFFFE
FFFFFE
FFFFFE
001FFE
001FFE
001FFE
001FFE
001FFE
001FFE
001FFE
001FFE
001FFE
001FFE
001FFE
001FFE
001FFE
001FFE
001FFE
001FFE
001FFE
001FFE
001FFE
001FFE
001FFE
001FFE
001FFE
001FFE
001FFE
001FFE
001FFE
001FFE
001FFE
001FFE
001FFE
001FFE
001FFE
001FFE
001FFE
001FFE
001FFE
001FFE
001FFE
001FFE
001FFE
001FFE
001FFE
001FFE
001FFE
001FFE
001FFE
001FFE
001FFE
001FFE
001FFE
001FFE
001FFE
001FFE
001FFE
001FFE
001FFE
001FFE
001FFE
001FFE
001FFE
001FFE
001FFE
001FFE
001FFE
001FFE
001FFE
001FFE
001FFE
001FFE
001FFE
001FFE
001FFE
001FFE
001FFE
001FFE
001FFE
001FFE
001FFE
001FFE
001FFE
001FFE
001FFE
001FFE
001FFE
001FFE
001FFE
001FFE
001FFE
001FFE
001FFE
001FFE
001FFE
FFFFFE
FFFFFE
FFFFFE
FFFFFE
FFFFFE
FFFFFE
FFFFFE
FFFFFE
FFFFFE
FFFFFE
FFFFFE
ENDCHAR
STARTCHAR 005E
ENCODING 94
SWIDTH 681 0
DWIDTH 71 0
BBX 50 33 11 44
BITMAP
00000080000000
000001C0000000
000003E0000000
000007F0000000
00000FF8000000
00001FFC000000
00003FFE000000
00007FFF000000
0000FFFF800000
0001FFFFC00000
0003FFFFE00000
0007FFFFF00000
000FFFFFF80000
000FFFFFFC0000
001FFFFFFE0000
003FFFFFFF0000
007FFF3FFF8000
00FFFE1FFFC000
01FFFC0FFFE000
03FFF807FFF000
07FFF003FFF800
0FFFE001FFFC00
1FFFC000FFFE00
3FFF80007FFF00
7FFF00003FFF80
FFFE00001FFFC0
7FFC00000FFF80
3FF8000007FF00
1FF0000003FE00
0FE0000001FC00
07C0000000F800
03800000007000
01000000002000
ENDCHAR
STARTCHAR 005F
ENCODING 95
SWIDTH 662 0
DWIDTH 69 0
BBX 69 10 0 -13
BITMAP
FFFFFFFFFFFFFFFFF8
FFFFFFFFFFFFFFFFF8
FFFFFFFFFFFFFFFFF8
FFFFFFFFFFFFFFFFF8
FFFFFFFFFFFFFFFFF8
FFFFFFFFFFFFFFFFF8
FFFFFFFFFFFFFFFFF8
FFFFFFFFFFFFFFFFF8
FFFFFFFFFFFFFFFFF8
FFFFFFFFFFFFFFFFF8
ENDCHAR
STARTCHAR 0060
ENCODING 96
SWIDTH 537 0
DWIDTH 56 0
BBX 17 19 17 83
BITMAP
FFC000
7FC000
7FE000
3FE000
3FF000
3FF000
1FF000
1FF800
0FF800
0FFC00
0FFC00
07FC00
07FE00
03FE00
03FF00
01FF00
01FF80
01FF80
00FF80
ENDCHAR
STARTCHAR 0061
ENCODING 97
SWIDTH 576 0
DWIDTH 60 0
BBX 50 60 4 -2
BITMAP
00000FFF000000
0000FFFFF80000
0007FFFFFE0000
001FFFFFFF8000
003FFFFFFFE000
007FFFFFFFF000
00FFFFFFFFF800
01FFFFFFFFFC00
03FFFFFFFFFC00
07FFFFFFFFFE00
0FFFFFFFFFFF00
0FFFFFFFFFFF00
1FFFF800FFFF00
1FFFE0003FFF80
1FFF80001FFF80
3FFF00000FFF80
0FFE00000FFF80
01FE000007FF80
003C000007FFC0
0004000007FFC0
0000000007FFC0
0000000007FFC0
00000001FFFFC0
0000007FFFFFC0
00000FFFFFFFC0
0001FFFFFFFFC0
000FFFFFFFFFC0
003FFFFFFFFFC0
00FFFFFFFFFFC0
03FFFFFFFFFFC0
07FFFFFFFFFFC0
0FFFFFFFFFFFC0
1FFFFFFFC7FFC0
1FFFFFF007FFC0
3FFFFE0007FFC0
3FFFE00007FFC0
7FFF800007FFC0
7FFE000007FFC0
7FFC000007FFC0
FFF800000FFFC0
FFF800000FFFC0
FFF800000FFFC0
FFF000001FFFC0
FFF000001FFFC0
FFF800003FFFC0
FFF800007FFFC0
FFF80000FFFFC0
7FFC0003FFFFC0
7FFE0007FFFFC0
7FFFC03FFFFFC0
3FFFFFFFFFFFC0
3FFFFFFFFDFFC0
1FFFFFFFF9FFC0
0FFFFFFFF9FFC0
0FFFFFFFE1FFC0
03FFFFFFC1FFC0
01FFFFFF81FFC0
00FFFFFE01FFC0
001FFFF8000000
0003FF80000000
ENDCHAR
STARTCHAR 0062
ENCODING 98
SWIDTH 614 0
DWIDTH 64 0
BBX 53 77 7 -2
BITMAP
FFF80000000000
FFF80000000000
FFF80000000000
FFF80000000000
FFF80000000000
FFF80000000000
FFF80000000000
FFF80000000000
FFF80000000000
FFF80000000000
FFF80000000000
FFF80000000000
FFF80000000000
FFF80000000000
FFF80000000000
FFF80000000000
FFF80000000000
FFF803FF000000
FFF83FFFF00000
FFF8FFFFFC0000
FFFBFFFFFF0000
FFFFFFFFFFC000
FFFFFFFFFFE000
FFFFFFFFFFF000
FFFFFFFFFFF800
FFFFFFFFFFFC00
FFFFFFFFFFFE00
FFFFFFFFFFFE00
FFFFFE1FFFFF00
FFFFE001FFFF80
FFFF80007FFF80
FFFF00003FFFC0
FFFE00001FFFC0
FFFE00000FFFE0
FFFC000007FFE0
FFF8000007FFE0
FFF8000003FFF0
FFF8000003FFF0
FFF0000003FFF0
FFF0000001FFF0
FFF0000001FFF0
FFF0000001FFF8
FFF0000001FFF8
FFE0000001FFF8
FFE0000000FFF8
FFE0000000FFF8
FFE0000000FFF8
FFE0000000FFF8
FFE0000000FFF8
FFE0000000FFF8
FFE0000000FFF8
FFF0000001FFF8
FFF0000001FFF8
FFF0000001FFF0
FFF0000001FFF0
FFF0000003FFF0
FFF8000003FFF0
FFF8000003FFF0
FFF8000007FFE0
FFFC000007FFE0
FFFE00000FFFE0
FFFE00001FFFC0
FFFF00003FFFC0
FFFF80007FFF80
FFFFE001FFFF80
FFFFFE0FFFFF00
FFFFFFFFFFFE00
FFFFFFFFFFFE00
FFFFFFFFFFFC00
FFFFFFFFFFF800
FFFFFFFFFFF000
FFEFFFFFFFE000
FFE7FFFFFFC000
FFE3FFFFFF0000
FFE0FFFFFC0000
00003FFFF00000
000003FF000000
ENDCHAR
STARTCHAR 0063
ENCODING 99
SWIDTH 576 0
DWIDTH 60 0
BBX 53 60 4 -2
BITMAP
000003FFC00000
00003FFFF80000
0000FFFFFF0000
0003FFFFFFC000
000FFFFFFFF000
001FFFFFFFF800
003FFFFFFFFC00
00FFFFFFFFFE00
00FFFFFFFFFF00
01FFFFFFFFFF80
03FFFFFFFFFFC0
07FFFFFFFFFFC0
07FFFE00FFFFE0
0FFFF8003FFFE0
1FFFE0000FFFF0
1FFFC00007FFF0
1FFF800003FFF0
3FFF800003FFF8
3FFF000001FFE0
3FFE000001FF00
7FFE000000F000
7FFE0000000000
7FFC0000000000
7FFC0000000000
7FFC0000000000
FFFC0000000000
FFFC0000000000
FFFC0000000000
FFF80000000000
FFF80000000000
FFF80000000000
FFF80000000000
FFFC0000000000
FFFC0000000000
FFFC0000000000
7FFC0000000000
7FFC0000000000
7FFC0000000000
7FFE0000000000
7FFE0000008000
3FFE000001FC00
3FFF000001FFC0
3FFF800003FFF8
1FFF800003FFF0
1FFFC00007FFF0
1FFFE0000FFFF0
0FFFF8001FFFE0
07FFFE007FFFE0
07FFFFFFFFFFC0
03FFFFFFFFFF80
01FFFFFFFFFF80
01FFFFFFFFFF00
00FFFFFFFFFE00
007FFFFFFFFC00
001FFFFFFFF800
000FFFFFFFF000
0003FFFFFFC000
0000FFFFFF0000
00003FFFFC0000
000003FFC00000
ENDCHAR
STARTCHAR 0064
ENCODING 100
SWIDTH 614 0
DWIDTH 64 0
BBX 53 77 4 -2
BITMAP
0000000000FFF8
0000000000FFF8
0000000000FFF8
0000000000FFF8
0000000000FFF8
0000000000FFF8
0000000000FFF8
0000000000FFF8
0000000000FFF8
0000000000FFF8
0000000000FFF8
0000000000FFF8
0000000000FFF8
0000000000FFF8
0000000000FFF8
0000000000FFF8
0000000000FFF8
000007FE00FFF8
00007FFFE0FFF8
0001FFFFF8FFF8
0007FFFFFEFFF8
000FFFFFFFFFF8
003FFFFFFFFFF8
007FFFFFFFFFF8
00FFFFFFFFFFF8
01FFFFFFFFFFF8
03FFFFFFFFFFF8
03FFFFFFFFFFF8
07FFFFC3FFFFF8
0FFFFC003FFFF8
0FFFF0000FFFF8
1FFFE00007FFF8
1FFFC00003FFF8
3FFF800001FFF8
3FFF800001FFF8
3FFF000000FFF8
7FFE000000FFF8
7FFE0000007FF8
7FFE0000007FF8
7FFC0000007FF8
7FFC0000007FF8
FFFC0000007FF8
FFFC0000003FF8
FFFC0000003FF8
FFFC0000003FF8
FFF80000003FF8
FFF80000003FF8
FFF80000003FF8
FFF80000003FF8
FFFC0000003FF8
FFFC0000003FF8
FFFC0000003FF8
FFFC0000007FF8
7FFC0000007FF8
7FFC0000007FF8
7FFE0000007FF8
7FFE0000007FF8
3FFE000000FFF8
3FFF000000FFF8
3FFF000001FFF8
1FFF800001FFF8
1FFFC00003FFF8
1FFFE00007FFF8
0FFFF0000FFFF8
0FFFFC003FFFF8
07FFFF83FFFFF8
03FFFFFFFFFFF8
03FFFFFFFFFFF8
01FFFFFFFFFFF8
00FFFFFFFFFFF8
007FFFFFFFFFF8
003FFFFFFFFFF8
001FFFFFFF3FF8
0007FFFFFE3FF8
0001FFFFF83FF8
00007FFFE00000
000007FE000000
ENDCHAR
STARTCHAR 0065
ENCODING 101
SWIDTH 604 0
DWIDTH 63 0
BBX 54 60 4 -2
BITMAP
000003FFC00000
00003FFFFC0000
0000FFFFFF0000
0003FFFFFFC000
000FFFFFFFE000
001FFFFFFFF800
003FFFFFFFFC00
007FFFFFFFFE00
00FFFFFFFFFF00
01FFFFFFFFFF80
03FFFFFFFFFF80
07FFFF007FFFC0
07FFF8001FFFE0
0FFFF00007FFE0
0FFFC00003FFF0
1FFFC00001FFF0
1FFF800001FFF0
3FFF000000FFF8
3FFF000000FFF8
3FFE0000007FF8
7FFE0000007FFC
7FFC0000007FFC
7FFC0000007FFC
7FFC0000003FFC
7FFFFFFFFFFFFC
FFFFFFFFFFFFFC
FFFFFFFFFFFFFC
FFFFFFFFFFFFFC
FFFFFFFFFFFFFC
FFFFFFFFFFFFFC
FFFFFFFFFFFFFC
FFFFFFFFFFFFFC
FFFFFFFFFFFFFC
FFFC0000000000
FFFC0000000000
FFFC0000000000
7FFC0000000000
7FFC0000000000
7FFE0000000000
7FFE0000000000
3FFE0000006000
3FFF0000007C00
3FFF000000FF80
1FFF800001FFF8
1FFFC00003FFF8
0FFFE00007FFF8
0FFFF8001FFFF0
07FFFE007FFFF0
07FFFFFFFFFFE0
03FFFFFFFFFFE0
01FFFFFFFFFFC0
00FFFFFFFFFF80
007FFFFFFFFF00
003FFFFFFFFE00
001FFFFFFFFC00
0007FFFFFFF000
0003FFFFFFE000
0000FFFFFF8000
00001FFFFC0000
000001FFC00000
ENDCHAR
STARTCHAR 0066
ENCODING 102
SWIDTH 374 0
DWIDTH 39 0
BBX 35 77 3 0
BITMAP
000007FFE0
00003FFFE0
0000FFFFE0
0003FFFFE0
0007FFFFE0
000FFFFFE0
000FFFFFE0
001FFFFFE0
001FFFFFE0
003FFFFFE0
003FFFE000
003FFF0000
003FFE0000
007FFE0000
007FFC0000
007FFC0000
007FFC0000
007FFC0000
007FFC0000
007FFC0000
007FFC0000
FFFFFFFFE0
FFFFFFFFE0
FFFFFFFFE0
FFFFFFFFE0
FFFFFFFFE0
FFFFFFFFE0
FFFFFFFFE0
FFFFFFFFE0
FFFFFFFFE0
FFFFFFFFE0
007FFC0000
007FFC0000
007FFC0000
007FFC0000
007FFC0000
007FFC0000
007FFC0000
007FFC0000
007FFC0000
007FFC0000
007FFC0000
007FFC0000
007FFC0000
007FFC0000
007FFC0000
007FFC0000
007FFC0000
007FFC0000
007FFC0000
007FFC0000
007FFC0000
007FFC0000
007FFC0000
007FFC0000
007FFC0000
007FFC0000
007FFC0000
007FFC0000
007FFC0000
007FFC0000
007FFC0000
007FFC0000
007FFC0000
007FFC0000
007FFC0000
007FFC0000
007FFC0000
007FFC0000
007FFC0000
007FFC0000
007FFC0000
007FFC0000
007FFC0000
007FFC0000
007FFC0000
007FFC0000
ENDCHAR
STARTCHAR 0067
ENCODING 103
SWIDTH 614 0
DWIDTH 64 0
BBX 53 85 4 -27
BITMAP
000007FE000000
00007FFFE00000
0001FFFFF83FF8
0007FFFFFE3FF8
000FFFFFFF3FF8
003FFFFFFFBFF8
007FFFFFFFFFF8
00FFFFFFFFFFF8
01FFFFFFFFFFF8
03FFFFFFFFFFF8
03FFFFFFFFFFF8
07FFFFC3FFFFF8
0FFFFC003FFFF8
0FFFF0000FFFF8
1FFFE00007FFF8
1FFFC00003FFF8
3FFF800001FFF8
3FFF800001FFF8
3FFF000000FFF8
7FFE000000FFF8
7FFE0000007FF8
7FFE0000007FF8
7FFC0000007FF8
7FFC0000007FF8
FFFC0000007FF8
FFFC0000003FF8
FFFC0000003FF8
FFFC0000003FF8
FFF80000003FF8
FFF80000003FF8
FFF80000003FF8
FFF80000003FF8
FFFC0000003FF8
FFFC0000003FF8
FFFC0000003FF8
FFFC0000007FF8
7FFC0000007FF8
7FFC0000007FF8
7FFE0000007FF8
7FFE0000007FF8
3FFE000000FFF8
3FFF000000FFF8
3FFF000001FFF8
1FFF800001FFF8
1FFFC00003FFF8
1FFFE00007FFF8
0FFFF0000FFFF8
0FFFFC003FFFF8
07FFFF83FFFFF8
03FFFFFFFFFFF8
03FFFFFFFFFFF8
01FFFFFFFFFFF8
00FFFFFFFFFFF8
007FFFFFFFFFF8
003FFFFFFFFFF8
001FFFFFFFFFF8
0007FFFFFEFFF8
0001FFFFF8FFF8
00007FFFE0FFF8
000007FE00FFF8
0000000000FFF8
0000000000FFF8
0000000000FFF8
0000000000FFF8
0000000000FFF8
0000000000FFF8
0000000001FFF8
0001000001FFF0
0007800003FFF0
001FC00007FFF0
007FE0000FFFF0
01FFF8003FFFE0
07FFFE00FFFFE0
07FFFFFFFFFFC0
03FFFFFFFFFFC0
03FFFFFFFFFF80
01FFFFFFFFFF80
00FFFFFFFFFF00
007FFFFFFFFE00
003FFFFFFFFC00
000FFFFFFFF000
0007FFFFFFE000
0001FFFFFF8000
00003FFFFC0000
000007FFC00000
ENDCHAR
STARTCHAR 0068
ENCODING 104
SWIDTH 624 0
DWIDTH 65 0
BBX 52 75 7 0
BITMAP
FFE00000000000
FFE00000000000
FFE00000000000
FFE00000000000
FFE00000000000
FFE00000000000
FFE00000000000
FFE00000000000
FFE00000000000
FFE00000000000
FFE00000000000
FFE00000000000
FFE00000000000
FFE00000000000
FFE00000000000
FFE00000000000
FFE00000000000
FFE0003FC00000
FFE007FFFC0000
FFE01FFFFF0000
FFE07FFFFFC000
FFE1FFFFFFF000
FFE3FFFFFFF800
FFE7FFFFFFFC00
FFEFFFFFFFFC00
FFFFFFFFFFFE00
FFFFFFFFFFFF00
FFFFFFFFFFFF00
FFFFFFFFFFFF80
FFFFFC03FFFF80
FFFFF000FFFFC0
FFFFC0003FFFC0
FFFF80001FFFC0
FFFF00000FFFE0
FFFF00000FFFE0
FFFE000007FFE0
FFFC000007FFE0
FFFC000003FFE0
FFFC000003FFF0
FFFC000003FFF0
FFF8000001FFF0
FFF8000001FFF0
FFF8000001FFF0
FFF8000001FFF0
FFF8000001FFF0
FFF8000001FFF0
FFF8000001FFF0
FFF8000001FFF0
FFF8000001FFF0
FFF8000001FFF0
FFF8000001FFF0
FFF8000001FFF0
FFF8000001FFF0
FFF8000001FFF0
FFF8000001FFF0
FFF8000001FFF0
FFF8000001FFF0
FFF8000001FFF0
FFF8000001FFF0
FFF8000001FFF0
FFF8000001FFF0
FFF8000001FFF0
FFF8000001FFF0
FFF8000001FFF0
FFF8000001FFF0
FFF8000001FFF0
FFF8000001FFF0
FFF8000001FFF0
FFF8000001FFF0
FFF8000001FFF0
FFF8000001FFF0
FFF8000001FFF0
FFF8000001FFF0
FFF8000001FFF0
FFF8000001FFF0
ENDCHAR
STARTCHAR 0069
ENCODING 105
SWIDTH 278 0
DWIDTH 29 0
BBX 13 76 8 0
BITMAP
FFF8
FFF8
FFF8
FFF8
FFF8
FFF8
FFF8
FFF8
FFF8
FFF8
FFF8
FFF8
0000
0000
0000
0000
0000
0000
0000
0000
FFF8
FFF8
FFF8
FFF8
FFF8
FFF8
FFF8
FFF8
FFF8
FFF8
FFF8
FFF8
FFF8
FFF8
FFF8
FFF8
FFF8
FFF8
FFF8
FFF8
FFF8
FFF8
FFF8
FFF8
FFF8
FFF8
FFF8
FFF8
FFF8
FFF8
FFF8
FFF8
FFF8
FFF8
FFF8
FFF8
FFF8
FFF8
FFF8
FFF8
FFF8
FFF8
FFF8
FFF8
FFF8
FFF8
FFF8
FFF8
FFF8
FFF8
FFF8
FFF8
FFF8
FFF8
FFF8
FFF8
ENDCHAR
STARTCHAR 006A
ENCODING 106
SWIDTH 288 0
DWIDTH 30 0
BBX 24 101 -1 -25
BITMAP
001FFF
001FFF
001FFF
001FFF
001FFF
001FFF
001FFF
001FFF
001FFF
001FFF
001FFF
001FFF
000000
000000
000000
000000
000000
000000
000000
000000
001FFF
001FFF
001FFF
001FFF
001FFF
001FFF
001FFF
001FFF
001FFF
001FFF
001FFF
001FFF
001FFF
001FFF
001FFF
001FFF
001FFF
001FFF
001FFF
001FFF
001FFF
001FFF
001FFF
001FFF
001FFF
001FFF
001FFF
001FFF
001FFF
001FFF
001FFF
001FFF
001FFF
001FFF
001FFF
001FFF
001FFF
001FFF
001FFF
001FFF
001FFF
001FFF
001FFF
001FFF
001FFF
001FFF
001FFF
001FFF
001FFF
001FFF
001FFF
001FFF
001FFF
001FFF
001FFF
001FFF
001FFF
001FFF
001FFF
001FFF
001FFF
001FFF
001FFF
001FFF
001FFF
003FFF
003FFF
007FFF
01FFFE
FFFFFE
FFFFFE
FFFFFE
FFFFFE
FFFFFC
FFFFFC
FFFFF8
FFFFF0
FFFFE0
FFFFC0
FFFF00
FFF800
ENDCHAR
STARTCHAR 006B
ENCODING 107
SWIDTH 537 0
DWIDTH 56 0
BBX 51 75 7 0
BITMAP
FFF80000000000
FFF80000000000
FFF80000000000
FFF80000000000
FFF80000000000
FFF80000000000
FFF80000000000
FFF80000000000
FFF80000000000
FFF80000000000
FFF80000000000
FFF80000000000
FFF80000000000
FFF80000000000
FFF80000000000
FFF80000000000
FFF80000000000
FFF80000000000
FFF80000000000
FFF800007FFF80
FFF80000FFFF00
FFF80000FFFE00
FFF80001FFFE00
FFF80003FFFC00
FFF80007FFF800
FFF80007FFF000
FFF8000FFFE000
FFF8001FFFE000
FFF8003FFFC000
FFF8003FFF8000
FFF8007FFF0000
FFF800FFFF0000
FFF801FFFE0000
FFF801FFFC0000
FFF803FFF80000
FFF807FFF00000
FFF80FFFF00000
FFF81FFFE00000
FFF81FFFC00000
FFF83FFF800000
FFF87FFF800000
FFF8FFFF000000
FFF8FFFE000000
FFF9FFFC000000
FFFBFFF8000000
FFFFFFF8000000
FFFFFFF0000000
FFFFFFF0000000
FFFFFFF8000000
FFFBFFFC000000
FFF9FFFC000000
FFF8FFFE000000
FFF87FFF000000
FFF87FFF800000
FFF83FFFC00000
FFF81FFFE00000
FFF80FFFE00000
FFF807FFF00000
FFF807FFF80000
FFF803FFFC0000
FFF801FFFE0000
FFF800FFFF0000
FFF8007FFF8000
FFF8007FFF8000
FFF8003FFFC000
FFF8001FFFE000
FFF8000FFFF000
FFF80007FFF800
FFF80007FFFC00
FFF80003FFFC00
FFF80001FFFE00
FFF80000FFFF00
FFF800007FFF80
FFF800007FFFC0
FFF800003FFFE0
ENDCHAR
STARTCHAR 006C
ENCODING 108
SWIDTH 278 0
DWIDTH 29 0
BBX 13 75 8 0
BITMAP
FFF8
FFF8
FFF8
FFF8
FFF8
FFF8
FFF8
FFF8
FFF8
FFF8
FFF8
FFF8
FFF8
FFF8
FFF8
FFF8
FFF8
FFF8
FFF8
FFF8
FFF8
FFF8
FFF8
FFF8
FFF8
FFF8
FFF8
FFF8
FFF8
FFF8
FFF8
FFF8
FFF8
FFF8
FFF8
FFF8
FFF8
FFF8
FFF8
FFF8
FFF8
FFF8
FFF8
FFF8
FFF8
FFF8
FFF8
FFF8
FFF8
FFF8
FFF8
FFF8
FFF8
FFF8
FFF8
FFF8
FFF8
FFF8
FFF8
FFF8
FFF8
FFF8
FFF8
FFF8
FFF8
FFF8
FFF8
FFF8
FFF8
FFF8
FFF8
FFF8
FFF8
FFF8
FFF8
ENDCHAR
STARTCHAR 006D
ENCODING 109
SWIDTH 902 0
DWIDTH 94 0
BBX 80 58 7 0
BITMAP
000001FF000000FFC000
00001FFFF00007FFF800
FFE07FFFFC001FFFFE00
FFE0FFFFFE007FFFFF80
FFE3FFFFFF80FFFFFFC0
FFE7FFFFFF81FFFFFFE0
FFEFFFFFFFC3FFFFFFF0
FFFFFFFFFFE7FFFFFFF8
FFFFFFFFFFFFFFFFFFFC
FFFFFFFFFFFFFFFFFFFC
FFFFFFFFFFFFFFFFFFFE
FFFFF83FFFFFFE0FFFFE
FFFFC007FFFFF001FFFE
FFFF8003FFFFE000FFFF
FFFF0001FFFFC0007FFF
FFFE0000FFFF80003FFF
FFFC00007FFF00003FFF
FFFC00007FFF00001FFF
FFFC00007FFE00001FFF
FFF800003FFE00001FFF
FFF800003FFE00000FFF
FFF800003FFE00000FFF
FFF800003FFE00000FFF
FFF800003FFE00000FFF
FFF800003FFE00000FFF
FFF800003FFE00000FFF
FFF800003FFE00000FFF
FFF800003FFE00000FFF
FFF800003FFE00000FFF
FFF800003FFE00000FFF
FFF800003FFE00000FFF
FFF800003FFE00000FFF
FFF800003FFE00000FFF
FFF800003FFE00000FFF
FFF800003FFE00000FFF
FFF800003FFE00000FFF
FFF800003FFE00000FFF
FFF800003FFE00000FFF
FFF800003FFE00000FFF
FFF800003FFE00000FFF
FFF800003FFE00000FFF
FFF800003FFE00000FFF
FFF800003FFE00000FFF
FFF800003FFE00000FFF
FFF800003FFE00000FFF
FFF800003FFE00000FFF
FFF800003FFE00000FFF
FFF800003FFE00000FFF
FFF800003FFE00000FFF
FFF800003FFE00000FFF
FFF800003FFE00000FFF
FFF800003FFE00000FFF
FFF800003FFE00000FFF
FFF800003FFE00000FFF
FFF800003FFE00000FFF
FFF800003FFE00000FFF
FFF800003FFE00000FFF
FFF800003FFE00000FFF
ENDCHAR
STARTCHAR 006E
ENCODING 110
SWIDTH 624 0
DWIDTH 65 0
BBX 52 58 7 0
BITMAP
0000003FC00000
000007FFFC0000
FFE01FFFFF0000
FFE07FFFFFC000
FFE1FFFFFFF000
FFE3FFFFFFF800
FFE7FFFFFFFC00
FFEFFFFFFFFC00
FFFFFFFFFFFE00
FFFFFFFFFFFF00
FFFFFFFFFFFF00
FFFFFFFFFFFF80
FFFFFC03FFFF80
FFFFF000FFFFC0
FFFFC0003FFFC0
FFFF80001FFFC0
FFFF00000FFFE0
FFFF00000FFFE0
FFFE000007FFE0
FFFC000007FFE0
FFFC000003FFE0
FFFC000003FFF0
FFFC000003FFF0
FFF8000001FFF0
FFF8000001FFF0
FFF8000001FFF0
FFF8000001FFF0
FFF8000001FFF0
FFF8000001FFF0
FFF8000001FFF0
FFF8000001FFF0
FFF8000001FFF0
FFF8000001FFF0
FFF8000001FFF0
FFF8000001FFF0
FFF8000001FFF0
FFF8000001FFF0
FFF8000001FFF0
FFF8000001FFF0
FFF8000001FFF0
FFF8000001FFF0
FFF8000001FFF0
FFF8000001FFF0
FFF8000001FFF0
FFF8000001FFF0
FFF8000001FFF0
FFF8000001FFF0
FFF8000001FFF0
FFF8000001FFF0
FFF8000001FFF0
FFF8000001FFF0
FFF8000001FFF0
FFF8000001FFF0
FFF8000001FFF0
FFF8000001FFF0
FFF8000001FFF0
FFF8000001FFF0
FFF8000001FFF0
ENDCHAR
STARTCHAR 006F
ENCODING 111
SWIDTH 614 0
DWIDTH 64 0
BBX 56 60 4 -2
BITMAP
000003FFC00000
00003FFFFC0000
0000FFFFFF0000
0003FFFFFFC000
000FFFFFFFF000
001FFFFFFFF800
003FFFFFFFFE00
007FFFFFFFFF00
00FFFFFFFFFF80
01FFFFFFFFFF80
03FFFFFFFFFFC0
07FFFFFFFFFFE0
07FFFE007FFFF0
0FFFF8001FFFF0
0FFFE00007FFF8
1FFFC00003FFF8
1FFF800001FFFC
3FFF800000FFFC
3FFF000000FFFC
3FFE0000007FFE
7FFE0000007FFE
7FFE0000003FFE
7FFC0000003FFE
7FFC0000003FFF
7FFC0000003FFF
FFFC0000001FFF
FFFC0000001FFF
FFFC0000001FFF
FFF80000001FFF
FFF80000001FFF
FFF80000001FFF
FFF80000001FFF
FFFC0000001FFF
FFFC0000001FFF
FFFC0000001FFF
FFFC0000003FFF
7FFC0000003FFF
7FFC0000003FFE
7FFE0000003FFE
7FFE0000007FFE
3FFE0000007FFE
3FFF000000FFFC
3FFF800000FFFC
1FFF800001FFFC
1FFFC00003FFF8
0FFFE00007FFF8
0FFFF8001FFFF0
07FFFE007FFFF0
07FFFFFFFFFFE0
03FFFFFFFFFFC0
01FFFFFFFFFFC0
00FFFFFFFFFF80
007FFFFFFFFF00
003FFFFFFFFE00
001FFFFFFFF800
000FFFFFFFF000
0003FFFFFFC000
0000FFFFFF0000
00001FFFFC0000
000001FFC00000
ENDCHAR
STARTCHAR 0070
ENCODING 112
SWIDTH 614 0
DWIDTH 64 0
BBX 53 83 7 -25
BITMAP
000003FF000000
00003FFFF00000
FFE0FFFFFC0000
FFE3FFFFFF0000
FFE7FFFFFFC000
FFFFFFFFFFE000
FFFFFFFFFFF000
FFFFFFFFFFF800
FFFFFFFFFFFC00
FFFFFFFFFFFE00
FFFFFFFFFFFE00
FFFFFE1FFFFF00
FFFFE001FFFF80
FFFF80007FFF80
FFFF00003FFFC0
FFFE00001FFFC0
FFFE00000FFFE0
FFFC000007FFE0
FFF8000007FFE0
FFF8000003FFF0
FFF8000003FFF0
FFF0000003FFF0
FFF0000001FFF0
FFF0000001FFF0
FFF0000001FFF8
FFF0000001FFF8
FFE0000001FFF8
FFE0000000FFF8
FFE0000000FFF8
FFE0000000FFF8
FFE0000000FFF8
FFE0000000FFF8
FFE0000000FFF8
FFE0000000FFF8
FFF0000001FFF8
FFF0000001FFF8
FFF0000001FFF0
FFF0000001FFF0
FFF0000003FFF0
FFF8000003FFF0
FFF8000003FFF0
FFF8000007FFE0
FFFC000007FFE0
FFFE00000FFFE0
FFFE00001FFFC0
FFFF00003FFFC0
FFFF80007FFF80
FFFFE001FFFF80
FFFFFE0FFFFF00
FFFFFFFFFFFE00
FFFFFFFFFFFE00
FFFFFFFFFFFC00
FFFFFFFFFFF800
FFFFFFFFFFF000
FFFFFFFFFFE000
FFFFFFFFFFC000
FFFBFFFFFF0000
FFF8FFFFFC0000
FFF83FFFF00000
FFF803FF000000
FFF80000000000
FFF80000000000
FFF80000000000
FFF80000000000
FFF80000000000
FFF80000000000
FFF80000000000
FFF80000000000
FFF80000000000
FFF80000000000
FFF80000000000
FFF80000000000
FFF80000000000
FFF80000000000
FFF80000000000
FFF80000000000
FFF80000000000
FFF80000000000
FFF80000000000
FFF80000000000
FFF80000000000
FFF80000000000
FFF80000000000
ENDCHAR
STARTCHAR 0071
ENCODING 113
SWIDTH 614 0
DWIDTH 64 0
BBX 53 83 4 -25
BITMAP
000007FE000000
00007FFFE00000
0001FFFFF83FF8
0007FFFFFE3FF8
000FFFFFFF3FF8
003FFFFFFFBFF8
007FFFFFFFFFF8
00FFFFFFFFFFF8
01FFFFFFFFFFF8
03FFFFFFFFFFF8
03FFFFFFFFFFF8
07FFFFC3FFFFF8
0FFFFC003FFFF8
0FFFF0000FFFF8
1FFFE00007FFF8
1FFFC00003FFF8
3FFF800001FFF8
3FFF800001FFF8
3FFF000000FFF8
7FFE000000FFF8
7FFE0000007FF8
7FFE0000007FF8
7FFC0000007FF8
7FFC0000007FF8
FFFC0000007FF8
FFFC0000003FF8
FFFC0000003FF8
FFFC0000003FF8
FFF80000003FF8
FFF80000003FF8
FFF80000003FF8
FFF80000003FF8
FFFC0000003FF8
FFFC0000003FF8
FFFC0000003FF8
FFFC0000007FF8
7FFC0000007FF8
7FFC0000007FF8
7FFE0000007FF8
7FFE0000007FF8
3FFE000000FFF8
3FFF000000FFF8
3FFF000001FFF8
1FFF800001FFF8
1FFFC00003FFF8
1FFFE00007FFF8
0FFFF0000FFFF8
0FFFFC003FFFF8
07FFFF83FFFFF8
03FFFFFFFFFFF8
03FFFFFFFFFFF8
01FFFFFFFFFFF8
00FFFFFFFFFFF8
007FFFFFFFFFF8
003FFFFFFFFFF8
001FFFFFFFFFF8
0007FFFFFEFFF8
0001FFFFF8FFF8
00007FFFE0FFF8
000007FE00FFF8
0000000000FFF8
0000000000FFF8
0000000000FFF8
0000000000FFF8
0000000000FFF8
0000000000FFF8
0000000000FFF8
0000000000FFF8
0000000000FFF8
0000000000FFF8
0000000000FFF8
0000000000FFF8
0000000000FFF8
0000000000FFF8
0000000000FFF8
0000000000FFF8
0000000000FFF8
0000000000FFF8
0000000000FFF8
0000000000FFF8
0000000000FFF8
0000000000FFF8
0000000000FFF8
ENDCHAR
STARTCHAR 0072
ENCODING 114
SWIDTH 403 0
DWIDTH 42 0
BBX 32 57 7 1
BITMAP
000000FC
FFE00FFF
FFE03FFF
FFE07FFF
FFE1FFFF
FFE3FFFF
FFE7FFFF
FFEFFFFF
FFEFFFFF
FFFFFFFF
FFFFFFFF
FFFFFFFF
FFFFFC00
FFFFF000
FFFFE000
FFFF8000
FFFF8000
FFFF0000
FFFE0000
FFFE0000
FFFC0000
FFFC0000
FFFC0000
FFF80000
FFF80000
FFF80000
FFF80000
FFF80000
FFF80000
FFF80000
FFF80000
FFF80000
FFF80000
FFF80000
FFF80000
FFF80000
FFF80000
FFF80000
FFF80000
FFF80000
FFF80000
FFF80000
FFF80000
FFF80000
FFF80000
FFF80000
FFF80000
FFF80000
FFF80000
FFF80000
FFF80000
FFF80000
FFF80000
FFF80000
FFF80000
FFF80000
FFF80000
ENDCHAR
STARTCHAR 0073
ENCODING 115
SWIDTH 537 0
DWIDTH 56 0
BBX 48 60 4 -2
BITMAP
00003FFC0000
0003FFFFC000
000FFFFFF800
003FFFFFFE00
00FFFFFFFF00
01FFFFFFFFC0
03FFFFFFFFE0
07FFFFFFFFF0
0FFFFFFFFFF0
0FFFFFFFFFF8
1FFFFFFFFFFC
1FFFE00FFFFC
1FFF8003FFFE
3FFF0000FFFE
3FFE00007FFE
3FFE00003FFF
3FFC00003FFF
3FFE00001FF0
3FFE00001C00
3FFE00000000
3FFF80000000
3FFFE0000000
1FFFFC000000
1FFFFF800000
0FFFFFF80000
0FFFFFFF0000
07FFFFFFF000
03FFFFFFFC00
01FFFFFFFF00
007FFFFFFFC0
001FFFFFFFE0
0007FFFFFFF0
0000FFFFFFF8
00001FFFFFFC
000001FFFFFE
0000003FFFFE
00000007FFFE
00000000FFFF
000000003FFF
000000001FFF
003800001FFF
1FF800001FFF
FFFC00001FFF
FFFC00001FFF
7FFE00001FFF
7FFF00001FFF
7FFF80003FFF
3FFFE0007FFE
3FFFF803FFFE
1FFFFFFFFFFE
1FFFFFFFFFFC
0FFFFFFFFFF8
07FFFFFFFFF8
03FFFFFFFFF0
01FFFFFFFFE0
00FFFFFFFFC0
003FFFFFFF00
000FFFFFFC00
0001FFFFF000
00001FFE0000
ENDCHAR
STARTCHAR 0074
ENCODING 116
SWIDTH 432 0
DWIDTH 45 0
BBX 39 73 1 -2
BITMAP
003FFE0000
003FFE0000
003FFE0000
003FFE0000
003FFE0000
003FFE0000
003FFE0000
003FFE0000
003FFE0000
003FFE0000
003FFE0000
003FFE0000
003FFE0000
003FFE0000
003FFE0000
003FFE0000
FFFFFFFFFE
FFFFFFFFFE
FFFFFFFFFE
FFFFFFFFFE
FFFFFFFFFE
FFFFFFFFFE
FFFFFFFFFE
FFFFFFFFFE
FFFFFFFFFE
FFFFFFFFFE
003FFE0000
003FFE0000
003FFE0000
003FFE0000
003FFE0000
003FFE0000
003FFE0000
003FFE0000
003FFE0000
003FFE0000
003FFE0000
003FFE0000
003FFE0000
003FFE0000
003FFE0000
003FFE0000
003FFE0000
003FFE0000
003FFE0000
003FFE0000
003FFE0000
003FFE0000
003FFE0000
003FFE0000
003FFE0000
003FFE0000
003FFE0000
003FFE0000
003FFE0000
003FFE0000
003FFE0000
003FFE0000
003FFF0000
001FFF8000
001FFFC000
001FFFF000
001FFFFFFE
000FFFFFFE
000FFFFFFE
0007FFFFFE
0007FFFFFE
0003FFFFFE
0001FFFFFE
0000FFFFFE
00003FFFFE
00000FFFFE
000000FFF0
ENDCHAR
STARTCHAR 0075
ENCODING 117
SWIDTH 624 0
DWIDTH 65 0
BBX 52 58 6 -2
BITMAP
FFF8000001FFF0
FFF8000001FFF0
FFF8000001FFF0
FFF8000001FFF0
FFF8000001FFF0
FFF8000001FFF0
FFF8000001FFF0
FFF8000001FFF0
FFF8000001FFF0
FFF8000001FFF0
FFF8000001FFF0
FFF8000001FFF0
FFF8000001FFF0
FFF8000001FFF0
FFF8000001FFF0
FFF8000001FFF0
FFF8000001FFF0
FFF8000001FFF0
FFF8000001FFF0
FFF8000001FFF0
FFF8000001FFF0
FFF8000001FFF0
FFF8000001FFF0
FFF8000001FFF0
FFF8000001FFF0
FFF8000001FFF0
FFF8000001FFF0
FFF8000001FFF0
FFF8000001FFF0
FFF8000001FFF0
FFF8000001FFF0
FFF8000001FFF0
FFF8000001FFF0
FFF8000001FFF0
FFFC000001FFF0
FFFC000001FFF0
7FFC000003FFF0
7FFC000003FFF0
7FFE000003FFF0
7FFE000007FFF0
7FFF000007FFF0
7FFF00000FFFF0
3FFF80001FFFF0
3FFFC0003FFFF0
3FFFF000FFFFF0
1FFFFC03FFFFF0
1FFFFFFFFFFFF0
0FFFFFFFFFFFF0
0FFFFFFFFFFFF0
07FFFFFFFFFFF0
03FFFFFFFF7FF0
01FFFFFFFE7FF0
01FFFFFFFC7FF0
007FFFFFF87FF0
003FFFFFF07FF0
000FFFFFC07FF0
0003FFFE000000
00003FE0000000
ENDCHAR
STARTCHAR 0076
ENCODING 118
SWIDTH 556 0
DWIDTH 58 0
BBX 53 56 2 0
BITMAP
FFF80000007FF8
7FF8000000FFF8
7FFC000000FFF8
7FFC000000FFF0
3FFC000001FFF0
3FFE000001FFF0
3FFE000001FFE0
1FFE000003FFE0
1FFF000003FFC0
0FFF000003FFC0
0FFF000007FFC0
0FFF800007FF80
07FF800007FF80
07FF80000FFF80
07FFC0000FFF00
03FFC0000FFF00
03FFC0001FFF00
03FFE0001FFE00
01FFE0003FFE00
01FFE0003FFC00
00FFF0003FFC00
00FFF0007FFC00
00FFF0007FF800
007FF8007FF800
007FF800FFF800
007FFC00FFF000
003FFC00FFF000
003FFC01FFF000
003FFE01FFE000
001FFE01FFE000
001FFE03FFC000
000FFF03FFC000
000FFF03FFC000
000FFF07FF8000
0007FF87FF8000
0007FF87FF8000
0007FF8FFF0000
0003FFCFFF0000
0003FFCFFE0000
0003FFDFFE0000
0001FFFFFE0000
0001FFFFFC0000
0000FFFFFC0000
0000FFFFFC0000
0000FFFFF80000
00007FFFF80000
00007FFFF80000
00007FFFF00000
00003FFFF00000
00003FFFE00000
00003FFFE00000
00001FFFE00000
00001FFFC00000
00000FFFC00000
00000FFFC00000
00000FFF800000
ENDCHAR
STARTCHAR 0077
ENCODING 119
SWIDTH 806 0
DWIDTH 84 0
BBX 79 56 2 0
BITMAP
FFF800003FF800001FFE
7FF800003FFC00001FFE
7FF800003FFC00003FFE
7FF800007FFC00003FFC
7FFC00007FFC00003FFC
3FFC00007FFE00003FFC
3FFC0000FFFE00007FFC
3FFE0000FFFE00007FF8
1FFE0000FFFF00007FF8
1FFE0000FFFF0000FFF8
1FFF0001FFFF0000FFF0
0FFF0001FFFF8000FFF0
0FFF0001FFFF8001FFF0
0FFF0003FFFF8001FFE0
07FF8003FFFFC001FFE0
07FF8003FFFFC003FFE0
07FF8007FFFFC003FFC0
07FFC007FFFFC003FFC0
03FFC007FEFFE003FFC0
03FFC00FFEFFE007FFC0
03FFE00FFE7FE007FF80
01FFE00FFC7FF007FF80
01FFE00FFC7FF00FFF80
01FFF01FFC3FF00FFF00
00FFF01FF83FF80FFF00
00FFF01FF83FF81FFF00
00FFF03FF81FF81FFE00
007FF83FF01FFC1FFE00
007FF83FF01FFC3FFE00
007FF87FF00FFC3FFC00
007FFC7FE00FFE3FFC00
003FFC7FE00FFE3FFC00
003FFCFFE007FE7FFC00
003FFEFFE007FE7FF800
001FFEFFC007FF7FF800
001FFFFFC003FFFFF800
001FFFFFC003FFFFF000
000FFFFF8003FFFFF000
000FFFFF8001FFFFF000
000FFFFF8001FFFFE000
000FFFFF0001FFFFE000
0007FFFF0000FFFFE000
0007FFFF0000FFFFC000
0007FFFE0000FFFFC000
0003FFFE00007FFFC000
0003FFFE00007FFFC000
0003FFFC00007FFF8000
0001FFFC00003FFF8000
0001FFFC00003FFF8000
0001FFF800003FFF0000
0000FFF800001FFF0000
0000FFF800001FFF0000
0000FFF000001FFE0000
0000FFF000000FFE0000
00007FF000000FFE0000
00007FE000000FFC0000
ENDCHAR
STARTCHAR 0078
ENCODING 120
SWIDTH 556 0
DWIDTH 58 0
BBX 55 56 1 0
BITMAP
7FFF000000FFFE
3FFF000001FFFC
3FFF800001FFF8
1FFFC00003FFF8
0FFFC00007FFF0
0FFFE00007FFE0
07FFF0000FFFC0
03FFF8001FFFC0
01FFF8003FFF80
01FFFC003FFF00
00FFFE007FFF00
007FFE00FFFE00
003FFF00FFFC00
003FFF81FFF800
001FFFC3FFF800
000FFFC3FFF000
000FFFE7FFE000
0007FFFFFFC000
0003FFFFFFC000
0001FFFFFF8000
0001FFFFFF0000
0000FFFFFE0000
00007FFFFE0000
00003FFFFC0000
00003FFFF80000
00001FFFF80000
00000FFFF00000
00000FFFE00000
00000FFFF00000
00001FFFF00000
00001FFFF80000
00003FFFFC0000
00007FFFFE0000
0000FFFFFE0000
0000FFFFFF0000
0001FFFFFF8000
0003FFFFFF8000
0007FFFFFFC000
0007FFE7FFE000
000FFFE7FFF000
001FFFC3FFF000
001FFF81FFF800
003FFF01FFFC00
007FFF00FFFE00
00FFFE007FFE00
00FFFC007FFF00
01FFFC003FFF80
03FFF8001FFF80
07FFF0000FFFC0
07FFE0000FFFE0
0FFFE00007FFF0
1FFFC00003FFF0
1FFF800003FFF8
3FFF800001FFFC
7FFF000000FFFE
FFFE0000007FFE
ENDCHAR
STARTCHAR 0079
ENCODING 121
SWIDTH 556 0
DWIDTH 58 0
BBX 57 81 1 -25
BITMAP
FFF80000000FFF80
7FFC0000000FFF00
7FFC0000001FFF00
3FFE0000001FFE00
3FFE0000001FFE00
3FFE0000003FFE00
1FFF0000003FFC00
1FFF0000007FFC00
0FFF8000007FFC00
0FFF8000007FF800
0FFF800000FFF800
07FFC00000FFF000
07FFC00000FFF000
03FFE00001FFF000
03FFE00001FFE000
03FFE00003FFE000
01FFF00003FFC000
01FFF00003FFC000
00FFF80007FFC000
00FFF80007FF8000
007FF8000FFF8000
007FFC000FFF8000
007FFC000FFF0000
003FFC001FFF0000
003FFE001FFE0000
001FFE001FFE0000
001FFF003FFE0000
001FFF003FFC0000
000FFF007FFC0000
000FFF807FF80000
0007FF807FF80000
0007FFC0FFF80000
0007FFC0FFF00000
0003FFC0FFF00000
0003FFE1FFE00000
0001FFE1FFE00000
0001FFF3FFE00000
0001FFF3FFC00000
0000FFF3FFC00000
0000FFFFFFC00000
00007FFFFF800000
00007FFFFF800000
00007FFFFF000000
00003FFFFF000000
00003FFFFF000000
00001FFFFE000000
00001FFFFE000000
00000FFFFC000000
00000FFFFC000000
00000FFFFC000000
000007FFF8000000
000007FFF8000000
000003FFF8000000
000003FFF0000000
000003FFF0000000
000001FFE0000000
000001FFE0000000
000003FFE0000000
000003FFC0000000
000003FFC0000000
000007FF80000000
000007FF80000000
000007FF80000000
00000FFF00000000
00000FFF00000000
00001FFF00000000
00001FFE00000000
00001FFE00000000
00003FFC00000000
00003FFC00000000
00003FFC00000000
00007FF800000000
00007FF800000000
00007FF000000000
0000FFF000000000
0000FFF000000000
0001FFE000000000
0001FFE000000000
0001FFE000000000
0003FFC000000000
0003FFC000000000
ENDCHAR
STARTCHAR 007A
ENCODING 122
SWIDTH 537 0
DWIDTH 56 0
BBX 49 56 2 0
BITMAP
1FFFFFFFFFFF80
1FFFFFFFFFFF80
1FFFFFFFFFFF80
1FFFFFFFFFFF00
1FFFFFFFFFFF00
1FFFFFFFFFFE00
1FFFFFFFFFFC00
1FFFFFFFFFF800
1FFFFFFFFFF800
1FFFFFFFFFF000
1FFFFFFFFFE000
00000003FFE000
00000007FFC000
0000000FFF8000
0000001FFF8000
0000001FFF0000
0000003FFE0000
0000007FFE0000
0000007FFC0000
000000FFF80000
000001FFF80000
000001FFF00000
000003FFE00000
000007FFE00000
000007FFC00000
00000FFF800000
00001FFF000000
00001FFF000000
00003FFE000000
00007FFC000000
0000FFFC000000
0000FFF8000000
0001FFF0000000
0003FFF0000000
0003FFE0000000
0007FFC0000000
000FFFC0000000
000FFF80000000
001FFF00000000
003FFF00000000
003FFE00000000
007FFC00000000
00FFF800000000
01FFF800000000
01FFF000000000
03FFFFFFFFFF00
07FFFFFFFFFF00
07FFFFFFFFFF00
0FFFFFFFFFFF00
1FFFFFFFFFFF00
1FFFFFFFFFFF00
3FFFFFFFFFFF00
7FFFFFFFFFFF00
7FFFFFFFFFFF00
FFFFFFFFFFFF00
FFFFFFFFFFFF00
ENDCHAR
STARTCHAR 007B
ENCODING 123
SWIDTH 451 0
DWIDTH 47 0
BBX 28 116 15 -22
BITMAP
00007FF0
0003FFF0
000FFFF0
003FFFF0
007FFFF0
007FFFF0
00FFFFF0
01FFFFF0
01FFFFF0
01FFFFF0
03FFFFF0
03FFFFF0
03FFF000
03FFC000
03FFC000
03FFC000
03FFC000
03FFC000
03FFC000
03FFC000
03FFC000
03FFC000
03FFC000
03FFC000
03FFC000
03FFC000
03FFC000
03FFC000
03FFC000
03FFC000
03FFC000
03FFC000
03FFC000
03FFC000
03FFC000
03FFC000
03FFC000
03FFC000
03FFC000
03FFC000
03FFC000
03FFC000
03FFC000
03FFC000
03FFC000
03FFC000
03FFC000
03FFC000
07FFC000
0FFF8000
0FFF8000
1FFF8000
3FFF0000
7FFF0000
7FFE0000
FFFE0000
FFFC0000
FFF80000
FFF80000
FFFC0000
FFFC0000
7FFE0000
7FFF0000
3FFF0000
1FFF8000
1FFF8000
0FFF8000
07FF8000
07FFC000
03FFC000
03FFC000
03FFC000
03FFC000
03FFC000
03FFC000
03FFC000
03FFC000
03FFC000
03FFC000
03FFC000
03FFC000
03FFC000
03FFC000
03FFC000
03FFC000
03FFC000
03FFC000
03FFC000
03FFC000
03FFC000
03FFC000
03FFC000
03FFC000
03FFC000
03FFC000
03FFC000
03FFC000
03FFC000
03FFC000
03FFC000
03FFC000
03FFC000
03FFC000
03FFE000
03FFFFF0
03FFFFF0
03FFFFF0
01FFFFF0
01FFFFF0
00FFFFF0
00FFFFF0
007FFFF0
003FFFF0
001FFFF0
0007FFF0
0000FFF0
ENDCHAR
STARTCHAR 007C
ENCODING 124
SWIDTH 297 0
DWIDTH 31 0
BBX 13 75 9 0
BITMAP
FFF8
FFF8
FFF8
FFF8
FFF8
FFF8
FFF8
FFF8
FFF8
FFF8
FFF8
FFF8
FFF8
FFF8
FFF8
FFF8
FFF8
FFF8
FFF8
FFF8
FFF8
FFF8
FFF8
FFF8
FFF8
FFF8
FFF8
FFF8
FFF8
FFF8
FFF8
FFF8
FFF8
FFF8
FFF8
FFF8
FFF8
FFF8
FFF8
FFF8
FFF8
FFF8
FFF8
FFF8
FFF8
FFF8
FFF8
FFF8
FFF8
FFF8
FFF8
FFF8
FFF8
FFF8
FFF8
FFF8
FFF8
FFF8
FFF8
FFF8
FFF8
FFF8
FFF8
FFF8
FFF8
FFF8
FFF8
FFF8
FFF8
FFF8
FFF8
FFF8
FFF8
FFF8
FFF8
ENDCHAR
STARTCHAR 007D
ENCODING 125
SWIDTH 451 0
DWIDTH 47 0
BBX 28 116 4 -22
BITMAP
FFE00000
FFFC0000
FFFF0000
FFFF8000
FFFFC000
FFFFE000
FFFFF000
FFFFF000
FFFFF800
FFFFF800
FFFFF800
FFFFFC00
00FFFC00
007FFC00
003FFC00
003FFC00
003FFC00
003FFC00
003FFC00
003FFC00
003FFC00
003FFC00
003FFC00
003FFC00
003FFC00
003FFC00
003FFC00
003FFC00
003FFC00
003FFC00
003FFC00
003FFC00
003FFC00
003FFC00
003FFC00
003FFC00
003FFC00
003FFC00
003FFC00
003FFC00
003FFC00
003FFC00
003FFC00
003FFC00
003FFC00
003FFC00
003FFC00
003FFC00
003FFE00
003FFF00
001FFF00
001FFF80
001FFFC0
000FFFC0
0007FFE0
0007FFF0
0003FFF0
0001FFF0
0001FFF0
0003FFF0
0007FFF0
0007FFE0
000FFFC0
000FFFC0
001FFF80
001FFF00
003FFF00
003FFE00
003FFC00
003FFC00
003FFC00
003FFC00
003FFC00
003FFC00
003FFC00
003FFC00
003FFC00
003FFC00
003FFC00
003FFC00
003FFC00
003FFC00
003FFC00
003FFC00
003FFC00
003FFC00
003FFC00
003FFC00
003FFC00
003FFC00
003FFC00
003FFC00
003FFC00
003FFC00
003FFC00
003FFC00
003FFC00
003FFC00
003FFC00
003FFC00
003FFC00
003FFC00
003FFC00
007FFC00
FFFFFC00
FFFFF800
FFFFF800
FFFFF800
FFFFF000
FFFFF000
FFFFE000
FFFFE000
FFFFC000
FFFF0000
FFFE0000
FFF00000
ENDCHAR
STARTCHAR 007E
ENCODING 126
SWIDTH 720 0
DWIDTH 75 0
BBX 52 23 11 21
BITMAP
003FC000000000
01FFF800000000
07FFFE0000FFE0
0FFFFF0000FFF0
1FFFFFC000FFF0
1FFFFFE0007FF0
3FFFFFF800FFF0
3FFFFFFE00FFF0
7FFFFFFF00FFF0
7FFFFFFFC1FFF0
7FFFFFFFFFFFF0
7FFFFFFFFFFFF0
7FFFFFFFFFFFF0
FFFC3FFFFFFFE0
FFF807FFFFFFE0
FFF003FFFFFFE0
7FF000FFFFFFC0
7FF0007FFFFFC0
7FF0001FFFFF80
7FF0000FFFFF00
7FF00003FFFE00
00000000FFF800
000000000FC000
ENDCHAR
STARTCHAR 00A0
ENCODING 160
SWIDTH 201 0
DWIDTH 21 0
BBX 0 0 0 0
BITMAP
ENDCHAR
STARTCHAR 00A1
ENCODING 161
SWIDTH 364 0
DWIDTH 38 0
BBX 13 75 12 -19
BITMAP
FFF8
FFF8
FFF8
FFF8
FFF8
FFF8
FFF8
FFF8
FFF8
FFF8
FFF8
FFF8
0000
0000
0000
0000
0000
0000
0000
FFF8
FFF8
FFF8
FFF8
FFF8
FFF8
FFF8
FFF8
FFF8
FFF8
FFF8
FFF8
FFF8
FFF8
FFF8
FFF8
FFF8
FFF8
FFF8
FFF8
FFF8
FFF8
FFF8
FFF8
FFF8
FFF8
FFF8
FFF8
FFF8
FFF8
FFF8
FFF8
FFF8
FFF8
FFF8
FFF8
FFF8
FFF8
FFF8
FFF8
FFF8
FFF8
FFF8
FFF8
FFF8
FFF8
FFF8
FFF8
FFF8
FFF8
FFF8
FFF8
FFF8
FFF8
FFF8
FFF8
ENDCHAR
STARTCHAR 00A2
ENCODING 162
SWIDTH 576 0
DWIDTH 60 0
BBX 53 78 4 -3
BITMAP
000001FF800000
000001FF800000
000001FF800000
000001FF800000
000001FF800000
000001FF800000
000001FF800000
000001FF800000
000001FF800000
000001FF800000
00000FFFF00000
00007FFFFE0000
0003FFFFFF8000
0007FFFFFFE000
001FFFFFFFF000
003FFFFFFFFC00
007FFFFFFFFE00
00FFFFFFFFFF00
01FFFFFFFFFF80
03FFFFFFFFFF80
07FFFFFFFFFFC0
07FFFF01FFFFE0
0FFFF8003FFFE0
0FFFF0001FFFE0
1FFFC0000FFFF0
1FFFC00007FFF0
3FFF800003FFF8
3FFF000001FFF0
3FFF000001FF80
7FFE000000F800
7FFE0000008000
7FFC0000000000
7FFC0000000000
7FFC0000000000
FFFC0000000000
FFFC0000000000
FFFC0000000000
FFF80000000000
FFF80000000000
FFF80000000000
FFF80000000000
FFFC0000000000
FFFC0000000000
FFFC0000000000
7FFC0000000000
7FFC0000000000
7FFC0000000000
7FFE0000000000
7FFE000000C000
3FFF000001FC00
3FFF000001FFE0
3FFF800003FFF8
1FFF800003FFF0
1FFFC00007FFF0
0FFFF0000FFFE0
0FFFF8003FFFE0
07FFFF00FFFFC0
07FFFFFFFFFFC0
03FFFFFFFFFF80
01FFFFFFFFFF00
00FFFFFFFFFF00
007FFFFFFFFE00
003FFFFFFFFC00
001FFFFFFFF000
000FFFFFFFE000
0003FFFFFF8000
0000FFFFFE0000
00001FFFF80000
000001FF800000
000001FF800000
000001FF800000
000001FF800000
000001FF800000
000001FF800000
000001FF800000
000001FF800000
000001FF800000
000001FF800000
ENDCHAR
STARTCHAR 00A3
ENCODING 163
SWIDTH 566 0
DWIDTH 59 0
BBX 51 77 4 0
BITMAP
0000007FE00000
000003FFFC0000
00000FFFFF0000
00003FFFFF8000
00007FFFFFE000
0000FFFFFFF000
0003FFFFFFF800
0003FFFFFFF800
0007FFFFFFFC00
000FFFFFFFFE00
000FFFFFFFFF00
001FFFFFFFFF00
001FFFE07FFF80
003FFF801FFF80
003FFF000FFFC0
003FFE0007FFC0
007FFE0003FFC0
007FFC0003FFE0
007FFC0001FFE0
007FFC0001FFC0
007FFC0001FE00
007FFC0000F000
007FFC00008000
007FFC00000000
007FFC00000000
007FFC00000000
007FFC00000000
007FFC00000000
007FFC00000000
007FFC00000000
007FFC00000000
007FFC00000000
007FFC00000000
FFFFFFFFFC0000
FFFFFFFFFC0000
FFFFFFFFFC0000
FFFFFFFFFC0000
FFFFFFFFFC0000
FFFFFFFFFC0000
FFFFFFFFFC0000
FFFFFFFFFC0000
FFFFFFFFFC0000
FFFFFFFFFC0000
FFFFFFFFFC0000
FFFFFFFFFC0000
007FFC00000000
007FFC00000000
007FFC00000000
007FFC00000000
007FFC00000000
007FFC00000000
007FFC00000000
007FFC00000000
007FFC00000000
007FFC00000000
007FFC00000000
007FFC00000000
007FFC00000000
007FFC00000000
007FFC00000000
00FFFC00000000
00FFFC00000000
01FFFC00000000
03FFFC00000000
07FFFC00000000
FFFFFFFFFFFE00
FFFFFFFFFFFE00
FFFFFFFFFFFE00
FFFFFFFFFFFE00
FFFFFFFFFFFE00
FFFFFFFFFFFE00
FFFFFFFFFFFE00
FFFFFFFFFFFE00
FFFFFFFFFFFE00
FFFFFFFFFFFE00
FFFFFFFFFFFE00
FFFFFFFFFFFE00
ENDCHAR
STARTCHAR 00A4
ENCODING 164
SWIDTH 672 0
DWIDTH 70 0
BBX 63 63 3 6
BITMAP
0080000000000100
01C0000000000380
03E00000000007C0
07F0000000000FE0
0FF8001FF8001FF0
1FFC01FFFF803FF8
3FFE0FFFFFE07FFC
7FFF1FFFFFF8FFFE
7FFFFFFFFFFFFFFE
3FFFFFFFFFFFFFFC
1FFFFFFFFFFFFFF8
0FFFFFFFFFFFFFF0
07FFFFFFFFFFFFE0
03FFFFFFFFFFFFC0
01FFFFFFFFFFFF80
00FFFFE007FFFF00
007FFF0001FFFE00
00FFFE00007FFE00
00FFF800003FFF00
01FFF000001FFF80
01FFE000000FFF80
03FFC0000007FF80
03FFC0000003FFC0
03FF80000001FFC0
07FF80000001FFC0
07FF00000001FFE0
07FF00000000FFE0
07FF00000000FFE0
07FE00000000FFE0
07FE00000000FFE0
07FE000000007FE0
07FE000000007FE0
07FE000000007FE0
07FE00000000FFE0
07FF00000000FFE0
07FF00000000FFE0
07FF00000000FFE0
07FF00000001FFE0
03FF80000001FFC0
03FF80000003FFC0
03FFC0000003FFC0
01FFE0000007FF80
01FFF000000FFF80
01FFF800001FFF00
00FFFC00003FFF00
007FFE00007FFE00
00FFFF8001FFFE00
01FFFFF00FFFFF00
03FFFFFFFFFFFF80
07FFFFFFFFFFFFC0
0FFFFFFFFFFFFFE0
1FFFFFFFFFFFFFF0
3FFFFFFFFFFFFFF8
7FFFFFFFFFFFFFFC
FFFFFFFFFFFDFFFE
7FFF1FFFFFF8FFFE
3FFE07FFFFE07FFC
1FFC00FFFF003FF8
0FF80003C0001FF0
07F0000000000FE0
03E00000000007C0
01C0000000000380
0080000000000100
ENDCHAR
STARTCHAR 00A5
ENCODING 165
SWIDTH 614 0
DWIDTH 64 0
BBX 63 75 0 0
BITMAP
FFFE000000007FFE
7FFF00000000FFFE
7FFF00000000FFFC
3FFF80000001FFFC
1FFF80000003FFF8
1FFFC0000003FFF8
0FFFC0000007FFF0
0FFFE0000007FFE0
07FFF000000FFFE0
07FFF000000FFFC0
03FFF800001FFFC0
01FFF800003FFF80
01FFFC00003FFF80
00FFFC00007FFF00
00FFFE00007FFE00
007FFF0000FFFE00
007FFF0000FFFC00
003FFF8001FFFC00
001FFF8003FFF800
001FFFC003FFF800
000FFFC007FFF000
000FFFE007FFE000
0007FFF00FFFE000
0007FFF00FFFC000
0003FFF81FFFC000
0001FFF83FFF8000
0001FFFC3FFF8000
0000FFFC7FFF0000
0000FFFE7FFE0000
00007FFFFFFE0000
00007FFFFFFC0000
00003FFFFFFC0000
00001FFFFFF80000
00001FFFFFF80000
00000FFFFFF00000
00000FFFFFE00000
000007FFFFE00000
000003FFFFC00000
001FFFFFFFFFF800
001FFFFFFFFFF800
001FFFFFFFFFF800
001FFFFFFFFFF800
001FFFFFFFFFF800
001FFFFFFFFFF800
001FFFFFFFFFF800
001FFFFFFFFFF800
001FFFFFFFFFF800
001FFFFFFFFFF800
0000003FFC000000
0000003FFC000000
0000003FFC000000
0000003FFC000000
0000003FFC000000
0000003FFC000000
0000003FFC000000
001FFFFFFFFFF800
001FFFFFFFFFF800
001FFFFFFFFFF800
001FFFFFFFFFF800
001FFFFFFFFFF800
001FFFFFFFFFF800
001FFFFFFFFFF800
001FFFFFFFFFF800
001FFFFFFFFFF800
001FFFFFFFFFF800
0000003FFC000000
0000003FFC000000
0000003FFC000000
0000003FFC000000
0000003FFC000000
0000003FFC000000
0000003FFC000000
0000003FFC000000
0000003FFC000000
0000003FFC000000
ENDCHAR
STARTCHAR 00A6
ENCODING 166
SWIDTH 297 0
DWIDTH 31 0
BBX 13 96 9 -21
BITMAP
FFF8
FFF8
FFF8
FFF8
FFF8
FFF8
FFF8
FFF8
FFF8
FFF8
FFF8
FFF8
FFF8
FFF8
FFF8
FFF8
FFF8
FFF8
FFF8
FFF8
FFF8
FFF8
FFF8
FFF8
FFF8
FFF8
FFF8
FFF8
FFF8
FFF8
FFF8
FFF8
FFF8
FFF8
FFF8
FFF8
FFF8
FFF8
FFF8
FFF8
FFF8
FFF8
0000
0000
0000
0000
0000
0000
0000
0000
0000
0000
0000
0000
FFF8
FFF8
FFF8
FFF8
FFF8
FFF8
FFF8
FFF8
FFF8
FFF8
FFF8
FFF8
FFF8
FFF8
FFF8
FFF8
FFF8
FFF8
FFF8
FFF8
FFF8
FFF8
FFF8
FFF8
FFF8
FFF8
FFF8
FFF8
FFF8
FFF8
FFF8
FFF8
FFF8
FFF8
FFF8
FFF8
FFF8
FFF8
FFF8
FFF8
FFF8
FFF8
ENDCHAR
STARTCHAR 00A7
ENCODING 167
SWIDTH 537 0
DWIDTH 56 0
BBX 47 84 5 -15
BITMAP
00007FE00000
0007FFFE0000
001FFFFF8000
007FFFFFE000
01FFFFFFF800
03FFFFFFFC00
07FFFFFFFE00
0FFFFFFFFF00
0FFFFFFFFF80
1FFFFFFFFF80
1FFFFFFFFFC0
3FFFC07FFFC0
3FFF001FFFE0
3FFE0007FFE0
7FFC0007FFE0
7FFC0003FFF0
7FFC0003FFF0
7FFC0001FE00
7FFC00018000
7FFE00000000
7FFF00000000
3FFFC0000000
3FFFF8000000
3FFFFF800000
1FFFFFF80000
0FFFFFFF0000
0FFFFFFFE000
03FFFFFFFC00
01FFFFFFFF00
00FFFFFFFF80
00FFFFFFFFE0
03FFFFFFFFF0
07FFFFFFFFF8
0FFFFFFFFFF8
1FFFC1FFFFFC
3FFF001FFFFC
7FFE0003FFFE
7FFC0000FFFE
7FF800007FFE
FFF800003FFE
FFF000003FFE
FFF000001FFE
FFF800003FFE
FFF800003FFE
FFFC00003FFE
FFFF00003FFE
FFFFE0007FFC
7FFFFC00FFFC
7FFFFFC1FFF8
3FFFFFFFFFF8
1FFFFFFFFFF0
0FFFFFFFFFE0
07FFFFFFFFC0
01FFFFFFFF00
00FFFFFFFF80
001FFFFFFFC0
0003FFFFFFE0
00007FFFFFF0
00000FFFFFF8
000000FFFFF8
0000001FFFF8
00000003FFFC
00000000FFFC
000000007FFC
003800007FFC
0FFC00007FFC
FFFC00007FFC
7FFE00007FFC
7FFE00007FFC
7FFF0000FFFC
3FFF8000FFFC
3FFFE003FFF8
3FFFF80FFFF8
1FFFFFFFFFF0
0FFFFFFFFFF0
0FFFFFFFFFE0
07FFFFFFFFE0
03FFFFFFFFC0
01FFFFFFFF80
00FFFFFFFE00
003FFFFFFC00
000FFFFFF000
0001FFFFC000
00001FF80000
ENDCHAR
STARTCHAR 00A8
ENCODING 168
SWIDTH 556 0
DWIDTH 58 0
BBX 33 11 12 84
BITMAP
FFF003FF80
FFF003FF80
FFF003FF80
FFF003FF80
FFF003FF80
FFF003FF80
FFF003FF80
FFF003FF80
FFF003FF80
FFF003FF80
FFF003FF80
ENDCHAR
STARTCHAR 00A9
ENCODING 169
SWIDTH 883 0
DWIDTH 92 0
BBX 86 86 3 -6
BITMAP
000000000FFFC000000000
00000000FFFFFC00000000
00000007FFFFFFC0000000
0000003FFFFFFFF0000000
000000FFFFFFFFFC000000
000003FFFFFFFFFF000000
00000FFFFFFFFFFFC00000
00001FFFFFFFFFFFE00000
00007FFFFFFFFFFFF80000
0000FFFFFFFFFFFFFC0000
0001FFFFFFFFFFFFFE0000
0003FFFFFFFFFFFFFF0000
0007FFFFF8003FFFFF8000
000FFFFF800007FFFFC000
001FFFFC000000FFFFE000
003FFFF00000003FFFF000
007FFFE00000000FFFF800
007FFF8000000007FFFC00
00FFFF0000000003FFFC00
01FFFE0000000000FFFE00
03FFFC00000000007FFF00
03FFF80001FF80003FFF00
07FFF0000FFFF0001FFF80
07FFE0003FFFFC001FFF80
0FFFC000FFFFFF000FFFC0
0FFF8001FFFFFF8007FFC0
1FFF8003FFFFFFC003FFE0
1FFF0007FFFFFFE003FFE0
1FFE000FFFFFFFF001FFF0
3FFE001FFFFFFFF801FFF0
3FFE001FFF81FFF800FFF0
3FFC003FFE007FFC00FFF8
7FFC007FF8003FFC007FF8
7FF8007FF0001FFC007FF8
7FF8007FE0000FFE007FF8
7FF800FFE00007E0007FFC
7FF800FFC0000600003FFC
FFF000FFC0000000003FFC
FFF000FFC0000000003FFC
FFF001FFC0000000003FFC
FFF001FFC0000000003FFC
FFF001FF80000000003FFC
FFF001FF80000000003FFC
FFF001FF80000000003FFC
FFF001FF80000000003FFC
FFF001FFC0000000003FFC
FFF001FFC0000000003FFC
FFF000FFC0000000003FFC
FFF000FFC0000000003FFC
7FF800FFE0000000003FFC
7FF800FFE00007C0007FFC
7FF8007FF0000FFC007FF8
7FF8007FF0001FFC007FF8
7FFC007FF8001FFC007FF8
3FFC003FFC007FFC00FFF8
3FFC001FFF80FFF800FFF0
3FFE001FFFFFFFF801FFF0
1FFE000FFFFFFFF001FFF0
1FFF0007FFFFFFE003FFE0
1FFF8003FFFFFFC003FFE0
0FFF8001FFFFFF8007FFE0
0FFFC000FFFFFF000FFFC0
07FFE0007FFFFC001FFFC0
07FFF0001FFFF8001FFF80
03FFF00001FF80003FFF00
03FFFC00000000007FFF00
01FFFE0000000000FFFE00
00FFFF0000000003FFFE00
00FFFF8000000007FFFC00
007FFFE00000000FFFF800
003FFFF00000003FFFF000
001FFFFC000000FFFFE000
000FFFFF800007FFFFC000
0007FFFFF0003FFFFFC000
0003FFFFFFFFFFFFFF0000
0001FFFFFFFFFFFFFE0000
0000FFFFFFFFFFFFFC0000
00007FFFFFFFFFFFF80000
00001FFFFFFFFFFFE00000
00000FFFFFFFFFFFC00000
000003FFFFFFFFFF000000
000000FFFFFFFFFC000000
0000003FFFFFFFF0000000
00000007FFFFFFC0000000
00000000FFFFFE00000000
000000000FFFC000000000
ENDCHAR
STARTCHAR 00AA
ENCODING 170
SWIDTH 316 0
DWIDTH 33 0
BBX 25 30 4 28
BITMAP
003F8000
01FFF000
07FFFC00
0FFFFE00
1FFFFF00
3FFFFF00
3FF1FF80
7F807F80
3F003F80
02003F80
00001F80
0007FF80
00FFFF80
07FFFF80
1FFFFF80
3FFFFF80
7FFF3F80
7FE03F80
7F803F80
FE003F80
FE003F80
FE007F80
FE00FF80
FF01FF80
7FCFFF80
7FFFFF80
3FFFDF80
1FFF9F80
0FFE1F80
03E00000
ENDCHAR
STARTCHAR 00AB
ENCODING 171
SWIDTH 585 0
DWIDTH 61 0
BBX 45 46 9 5
BITMAP
000060000300
0000F0000380
0000F80007C0
0001FC000FF0
0003FF001FF8
0007FF003FF8
000FFE003FF8
000FFC007FF0
001FFC00FFE0
003FF801FFC0
007FF003FF80
00FFE003FF80
00FFC007FF00
01FFC00FFE00
03FF801FFC00
07FF003FF800
0FFE003FF800
0FFE007FF000
1FFC00FFE000
3FF801FFC000
7FF001FF8000
FFE003FF8000
FFE007FF0000
FFE007FF0000
7FE003FF8000
7FF001FFC000
3FF801FFC000
1FFC00FFE000
0FFE007FF000
07FE003FF800
07FF001FF800
03FF801FFC00
01FFC00FFE00
00FFE007FF00
007FE003FF80
007FF001FF80
003FF801FFC0
001FFC00FFE0
000FFE007FF0
000FFE003FF8
0007FF001FF8
0003FE001FF8
0001FC000FE0
0000F80007C0
0000F0000380
000040000100
ENDCHAR
STARTCHAR 00AC
ENCODING 172
SWIDTH 604 0
DWIDTH 63 0
BBX 50 22 6 19
BITMAP
FFFFFFFFFFFFC0
FFFFFFFFFFFFC0
FFFFFFFFFFFFC0
FFFFFFFFFFFFC0
FFFFFFFFFFFFC0
FFFFFFFFFFFFC0
FFFFFFFFFFFFC0
FFFFFFFFFFFFC0
FFFFFFFFFFFFC0
FFFFFFFFFFFFC0
0000000000FFC0
0000000000FFC0
0000000000FFC0
0000000000FFC0
0000000000FFC0
0000000000FFC0
0000000000FFC0
0000000000FFC0
0000000000FFC0
0000000000FFC0
0000000000FFC0
0000000000FFC0
ENDCHAR
STARTCHAR 00AD
ENCODING 173
SWIDTH 422 0
DWIDTH 44 0
BBX 32 10 6 28
BITMAP
FFFFFFFF
FFFFFFFF
FFFFFFFF
FFFFFFFF
FFFFFFFF
FFFFFFFF
FFFFFFFF
FFFFFFFF
FFFFFFFF
FFFFFFFF
ENDCHAR
STARTCHAR 00AE
ENCODING 174
SWIDTH 652 0
DWIDTH 68 0
BBX 54 53 7 29
BITMAP
000003FF000000
00003FFFF00000
0000FFFFFC0000
0003FFFFFF0000
000FFFFFFFC000
001FFFFFFFE000
007FFFFFFFF800
00FFFFFFFFFC00
01FFFF87FFFE00
03FFF8003FFF00
03FFC0000FFF00
07FF800003FF80
0FFE000001FFC0
0FFC000000FFC0
1FF83FFF007FE0
1FF03FFFC03FF0
3FF03FFFE01FF0
3FE03FFFF01FF0
7FC03E03F80FF8
7FC03E00F80FF8
7FC03E00F807F8
7F803E007807F8
7F803E007807FC
FF803E00F807FC
FF803E00F803FC
FF803E01F803FC
FF803FFFF003FC
FF803FFFE003FC
FF803FFFC003FC
FF803FFF8007FC
7F803E0FC007FC
7F803E07C007F8
7FC03E07E007F8
7FC03E03E00FF8
7FE03E03F00FF8
3FE03E01F01FF0
3FF03E01F81FF0
1FF03E00F83FF0
1FF83E00F87FE0
0FFC000000FFE0
0FFE000001FFC0
07FF000003FF80
03FFC0000FFF80
03FFF0003FFF00
01FFFE01FFFE00
00FFFFFFFFFC00
007FFFFFFFF800
003FFFFFFFF000
000FFFFFFFC000
0007FFFFFF8000
0001FFFFFE0000
00007FFFF80000
00000FFFC00000
ENDCHAR
STARTCHAR 00AF
ENCODING 175
SWIDTH 508 0
DWIDTH 53 0
BBX 28 10 12 87
BITMAP
FFFFFFF0
FFFFFFF0
FFFFFFF0
FFFFFFF0
FFFFFFF0
FFFFFFF0
FFFFFFF0
FFFFFFF0
FFFFFFF0
FFFFFFF0
ENDCHAR
STARTCHAR 00B0
ENCODING 176
SWIDTH 451 0
DWIDTH 47 0
BBX 38 38 3 39
BITMAP
0001FE0000
000FFFC000
003FFFF000
00FFFFFC00
01FFFFFE00
03FFFFFF00
07FFFFFF80
0FFFFFFFC0
1FFFFFFFE0
1FFFFFFFE0
3FFFFFFFF0
3FFF03FFF0
7FFC00FFF8
7FF8007FF8
7FF0003FF8
FFF0003FF8
FFE0003FF8
FFE0001FFC
FFE0001FFC
FFE0001FFC
FFE0001FFC
FFE0003FF8
FFF0003FF8
7FF0007FF8
7FF8007FF8
7FFC01FFF0
3FFF07FFF0
3FFFFFFFF0
1FFFFFFFE0
1FFFFFFFC0
0FFFFFFFC0
07FFFFFF80
03FFFFFF00
01FFFFFE00
00FFFFF800
003FFFF000
000FFFC000
0000780000
ENDCHAR
STARTCHAR 00B1
ENCODING 177
SWIDTH 604 0
DWIDTH 63 0
BBX 50 49 6 7
BITMAP
00000FFC000000
00000FFC000000
00000FFC000000
00000FFC000000
00000FFC000000
00000FFC000000
00000FFC000000
00000FFC000000
00000FFC000000
00000FFC000000
00000FFC000000
00000FFC000000
FFFFFFFFFFFFC0
FFFFFFFFFFFFC0
FFFFFFFFFFFFC0
FFFFFFFFFFFFC0
FFFFFFFFFFFFC0
FFFFFFFFFFFFC0
FFFFFFFFFFFFC0
FFFFFFFFFFFFC0
FFFFFFFFFFFFC0
FFFFFFFFFFFFC0
00000FFC000000
00000FFC000000
00000FFC000000
00000FFC000000
00000FFC000000
00000FFC000000
00000FFC000000
00000FFC000000
00000FFC000000
00000FFC000000
00000FFC000000
00000000000000
00000000000000
00000000000000
00000000000000
00000000000000
00000000000000
FFFFFFFFFFFFC0
FFFFFFFFFFFFC0
FFFFFFFFFFFFC0
FFFFFFFFFFFFC0
FFFFFFFFFFFFC0
FFFFFFFFFFFFC0
FFFFFFFFFFFFC0
FFFFFFFFFFFFC0
FFFFFFFFFFFFC0
FFFFFFFFFFFFC0
ENDCHAR
STARTCHAR 00B2
ENCODING 178
SWIDTH 412 0
DWIDTH 43 0
BBX 33 48 5 28
BITMAP
000FF80000
007FFF0000
01FFFFC000
03FFFFE000
07FFFFF000
0FFFFFF800
1FFFFFFC00
3FFFFFFE00
3FF80FFE00
7FE003FF00
7FC001FF00
7FC001FF00
FF8000FF00
FF8000FF80
FF8000FF80
FF8000FF80
000000FF80
000000FF80
000000FF80
000001FF00
000001FF00
000003FF00
000007FE00
00000FFE00
00001FFC00
00007FF800
0000FFF000
0001FFE000
0003FFC000
0007FF8000
000FFF0000
001FFE0000
003FFC0000
00FFF00000
01FFE00000
03FFC00000
07FF800000
0FFF000000
1FFE000000
3FFC000000
7FFFFFFF80
FFFFFFFF80
FFFFFFFF80
FFFFFFFF80
FFFFFFFF80
FFFFFFFF80
FFFFFFFF80
FFFFFFFF80
ENDCHAR
STARTCHAR 00B3
ENCODING 179
SWIDTH 403 0
DWIDTH 42 0
BBX 32 48 4 27
BITMAP
3FFFFFFE
3FFFFFFE
3FFFFFFE
3FFFFFFE
3FFFFFFE
3FFFFFFE
3FFFFFFE
3FFFFFFE
00000FFC
00001FF8
00003FF0
00007FE0
0000FFC0
0001FF80
0007FF00
000FFE00
001FFC00
003FF800
007FFC00
00FFFF80
007FFFC0
007FFFE0
003FFFF0
003FFFF8
001FFFFC
00000FFC
000007FE
000003FE
000001FE
000001FF
000001FF
000001FF
000000FF
000001FF
000001FF
070001FF
7F8003FE
FFC003FE
7FE007FE
7FF01FFC
3FFFFFFC
3FFFFFF8
1FFFFFF0
0FFFFFE0
07FFFFC0
01FFFF80
007FFE00
001FF000
ENDCHAR
STARTCHAR 00B4
ENCODING 180
SWIDTH 537 0
DWIDTH 56 0
BBX 17 19 22 83
BITMAP
01FF80
01FF00
03FF00
03FF00
03FE00
07FE00
07FC00
0FFC00
0FF800
0FF800
1FF800
1FF000
3FF000
3FE000
7FE000
7FE000
7FC000
FFC000
FF8000
ENDCHAR
STARTCHAR 00B5
ENCODING 181
SWIDTH 633 0
DWIDTH 66 0
BBX 52 81 7 -25
BITMAP
FFF8000001FFF0
FFF8000001FFF0
FFF8000001FFF0
FFF8000001FFF0
FFF8000001FFF0
FFF8000001FFF0
FFF8000001FFF0
FFF8000001FFF0
FFF8000001FFF0
FFF8000001FFF0
FFF8000001FFF0
FFF8000001FFF0
FFF8000001FFF0
FFF8000001FFF0
FFF8000001FFF0
FFF8000001FFF0
FFF8000001FFF0
FFF8000001FFF0
FFF8000001FFF0
FFF8000001FFF0
FFF8000001FFF0
FFF8000001FFF0
FFF8000001FFF0
FFF8000001FFF0
FFF8000001FFF0
FFF8000001FFF0
FFF8000001FFF0
FFF8000001FFF0
FFF8000001FFF0
FFF8000001FFF0
FFF8000001FFF0
FFF8000001FFF0
FFF8000001FFF0
FFF8000001FFF0
FFFC000001FFF0
FFFC000001FFF0
FFFC000003FFF0
FFFC000003FFF0
FFFE000003FFF0
FFFE000007FFF0
FFFF000007FFF0
FFFF00000FFFF0
FFFF80001FFFF0
FFFFC0003FFFF0
FFFFF000FFFFF0
FFFFFC03FFFFF0
FFFFFFFFFFFFF0
FFFFFFFFFFFFF0
FFFFFFFFFFFFF0
FFFFFFFFFFFFF0
FFFFFFFFFF7FF0
FFFFFFFFFE7FF0
FFFFFFFFFC7FF0
FFFFFFFFF87FF0
FFFFFFFFE07FF0
FFEFFFFFC07FF0
FFE1FFFE000000
FFE03FE0000000
FFE00000000000
FFE00000000000
FFE00000000000
FFE00000000000
FFE00000000000
FFE00000000000
FFE00000000000
FFE00000000000
FFE00000000000
FFE00000000000
FFE00000000000
FFE00000000000
FFE00000000000
FFE00000000000
FFE00000000000
FFE00000000000
FFE00000000000
FFE00000000000
FFE00000000000
FFE00000000000
FFE00000000000
FFE00000000000
FFE00000000000
ENDCHAR
STARTCHAR 00B6
ENCODING 182
SWIDTH 710 0
DWIDTH 74 0
BBX 64 90 5 -15
BITMAP
00001FFFFFE00FFF
0001FFFFFFE00FFF
000FFFFFFFE00FFF
003FFFFFFFE00FFF
007FFFFFFFE00FFF
01FFFFFFFFE00FFF
03FFFFFFFFE00FFF
07FFFFFFFFE00FFF
07FFFFFFFFE00FFF
0FFFFFFFFFE00FFF
1FFFFFFFFFE00FFF
1FFFFFFFFFE00FFF
3FFFFFFFFFE00FFF
3FFFFFFFFFE00FFF
3FFFFFFFFFE00FFF
7FFFFFFFFFE00FFF
7FFFFFFFFFE00FFF
7FFFFFFFFFE00FFF
7FFFFFFFFFE00FFF
FFFFFFFFFFE00FFF
FFFFFFFFFFE00FFF
FFFFFFFFFFE00FFF
FFFFFFFFFFE00FFF
FFFFFFFFFFE00FFF
FFFFFFFFFFE00FFF
FFFFFFFFFFE00FFF
FFFFFFFFFFE00FFF
FFFFFFFFFFE00FFF
FFFFFFFFFFE00FFF
FFFFFFFFFFE00FFF
7FFFFFFFFFE00FFF
7FFFFFFFFFE00FFF
7FFFFFFFFFE00FFF
7FFFFFFFFFE00FFF
3FFFFFFFFFE00FFF
3FFFFFFFFFE00FFF
3FFFFFFFFFE00FFF
1FFFFFFFFFE00FFF
0FFFFFFFFFE00FFF
0FFFFFFFFFE00FFF
07FFFFFFFFE00FFF
03FFFFFFFFE00FFF
01FFFFFFFFE00FFF
00FFFFFFFFE00FFF
007FFFFFFFE00FFF
001FFFFFFFE00FFF
000FFFFFFFE00FFF
0001FFFFFFE00FFF
00000FFFFFE00FFF
00000003FFE00FFF
00000003FFE00FFF
00000003FFE00FFF
00000003FFE00FFF
00000003FFE00FFF
00000003FFE00FFF
00000003FFE00FFF
00000003FFE00FFF
00000003FFE00FFF
00000003FFE00FFF
00000003FFE00FFF
00000003FFE00FFF
00000003FFE00FFF
00000003FFE00FFF
00000003FFE00FFF
00000003FFE00FFF
00000003FFE00FFF
00000003FFE00FFF
00000003FFE00FFF
00000003FFE00FFF
00000003FFE00FFF
00000003FFE00FFF
00000003FFE00FFF
00000003FFE00FFF
00000003FFE00FFF
00000003FFE00FFF
00000003FFE00FFF
00000003FFE00FFF
00000003FFE00FFF
00000003FFE00FFF
00000003FFE00FFF
00000003FFE00FFF
00000003FFE00FFF
00000003FFE00FFF
00000003FFE00FFF
00000003FFE00FFF
00000003FFE00FFF
00000003FFE00FFF
00000003FFE00FFF
00000003FFE00FFF
00000003FFE00FFF
ENDCHAR
STARTCHAR 00B7
ENCODING 183
SWIDTH 268 0
DWIDTH 28 0
BBX 15 15 6 25
BITMAP
0FE0
1FF8
3FFC
7FFE
7FFE
FFFE
FFFE
FFFE
FFFE
7FFE
7FFE
7FFC
3FFC
1FF8
07E0
ENDCHAR
STARTCHAR 00B8
ENCODING 184
SWIDTH 412 0
DWIDTH 43 0
BBX 18 27 13 -25
BITMAP
03F800
07F800
07F800
07F000
0FF000
0FF000
0FF000
1FF800
1FFE00
1FFE00
3FFF00
0FFF80
03FF80
00FF80
007FC0
007FC0
007FC0
00FF80
3FFF80
3FFF80
7FFF80
7FFF00
FFFF00
FFFE00
FFFC00
FFF000
1FC000
ENDCHAR
STARTCHAR 00B9
ENCODING 185
SWIDTH 345 0
DWIDTH 36 0
BBX 17 47 6 28
BITMAP
00FF80
01FF80
07FF80
1FFF80
3FFF80
FFFF80
FFFF80
FFFF80
FFFF80
FF7F80
FC7F80
F87F80
E07F80
807F80
007F80
007F80
007F80
007F80
007F80
007F80
007F80
007F80
007F80
007F80
007F80
007F80
007F80
007F80
007F80
007F80
007F80
007F80
007F80
007F80
007F80
007F80
007F80
007F80
007F80
007F80
007F80
007F80
007F80
007F80
007F80
007F80
007F80
ENDCHAR
STARTCHAR 00BA
ENCODING 186
SWIDTH 355 0
DWIDTH 37 0
BBX 28 30 4 28
BITMAP
003FC000
00FFF800
03FFFE00
07FFFF00
0FFFFF80
1FFFFFC0
3FF0FFC0
3FC03FE0
7F801FE0
7F000FF0
7F0007F0
FF0007F0
FE0007F0
FE0007F0
FE0007F0
FE0007F0
FE0007F0
FE0007F0
FF0007F0
7F0007F0
7F000FF0
7F801FE0
3FC03FE0
3FF0FFC0
1FFFFFC0
0FFFFF80
07FFFF00
03FFFE00
00FFF800
003FC000
ENDCHAR
STARTCHAR 00BB
ENCODING 187
SWIDTH 585 0
DWIDTH 61 0
BBX 45 46 7 5
BITMAP
060000100000
0E0000780000
1F0000F80000
7F8001FC0000
FFC007FE0000
FFE007FF0000
FFE003FF8000
7FF001FF8000
3FF801FFC000
1FFC00FFE000
0FFE007FF000
0FFE003FF800
07FF001FF800
03FF801FFC00
01FFC00FFE00
00FFE007FF00
00FFE003FF80
007FF001FF80
003FF801FFC0
001FFC00FFE0
000FFE007FF0
000FFE003FF8
0007FF001FF8
0007FF003FF8
000FFE003FF0
000FFC007FF0
001FFC00FFE0
003FF801FFC0
007FF003FF80
00FFE003FF80
00FFC007FF00
01FFC00FFE00
03FF801FFC00
07FF003FF800
0FFE003FF800
0FFC007FF000
1FFC00FFE000
3FF801FFC000
7FF003FF8000
FFE003FF8000
FFE007FF0000
FFC003FE0000
3F8001FC0000
1F0000F80000
0E0000780000
060000100000
ENDCHAR
STARTCHAR 00BC
ENCODING 188
SWIDTH 1036 0
DWIDTH 108 0
BBX 89 76 6 0
BITMAP
000000000000000040000000
00FF800000000000E0000000
01FF800000000001F0000000
07FF800000000001FC000000
1FFF800000000003FE000000
3FFF800000000007FF000000
FFFF800000000007FF000000
FFFF80000000000FFE000000
FFFF80000000001FFE000000
FFFF80000000003FFC000000
FF7F80000000003FF8000000
FC7F80000000007FF8000000
F87F8000000000FFF0000000
E07F8000000000FFE0000000
C07F8000000001FFC0000000
007F8000000003FFC0000000
007F8000000007FF80000000
007F8000000007FF00000000
007F800000000FFE00000000
007F800000001FFE00000000
007F800000003FFC00000000
007F800000003FF800000000
007F800000007FF800000000
007F80000000FFF000000000
007F80000000FFE000000000
007F80000001FFC000000000
007F80000003FFC000000000
007F80000007FF8000000000
007F80000007FF0000000000
007F8000000FFE0001FF0000
007F8000001FFE0003FF0000
007F8000003FFC0003FE0000
007F8000003FF80007FE0000
007F8000007FF00007FC0000
007F800000FFF00007FC0000
007F800000FFE0000FF80000
007F800001FFC0000FF80000
007F800003FF80001FF00000
007F800007FF80001FF00000
007F800007FF00003FF00000
007F80000FFE00003FE00000
007F80001FFE00007FE00000
007F80003FFC00007FC00000
007F80003FF80000FFC00000
007F80007FF00000FF800000
007F8000FFF00001FF800000
007F8000FFE00001FF000000
007F8001FFC00003FF000000
00000003FF800003FE000000
00000007FF800003FE07F800
00000007FF000007FC07F800
0000000FFE000007FC07F800
0000001FFE00000FF807F800
0000003FFC00000FF807F800
0000003FF800001FF807F800
0000007FF000001FF007F800
000000FFF000003FF007F800
000000FFE000003FE007F800
000001FFC000007FE007F800
000003FF8000007FC007F800
000007FF800000FFC007F800
000007FF000000FFFFFFFF80
00000FFE000000FFFFFFFF80
00001FFC000000FFFFFFFF80
00003FFC000000FFFFFFFF80
00003FF8000000FFFFFFFF80
00007FF0000000FFFFFFFF80
0000FFF0000000FFFFFFFF80
0000FFE0000000FFFFFFFF80
0001FFC0000000000007F800
0003FF80000000000007F800
0001FF80000000000007F800
0000FF00000000000007F800
00003E00000000000007F800
00001C00000000000007F800
00000400000000000007F800
ENDCHAR
STARTCHAR 00BD
ENCODING 189
SWIDTH 1017 0
DWIDTH 106 0
BBX 94 76 6 0
BITMAP
000000000000000040000000
00FF800000000000E0000000
01FF800000000001F0000000
07FF800000000001FC000000
1FFF800000000003FE000000
7FFF800000000007FF000000
FFFF800000000007FF000000
FFFF80000000000FFE000000
FFFF80000000001FFE000000
FFFF80000000003FFC000000
FF7F80000000003FF8000000
FC7F80000000007FF8000000
F87F8000000000FFF0000000
E07F8000000001FFE0000000
807F8000000001FFC0000000
007F8000000003FFC0000000
007F8000000007FF80000000
007F8000000007FF00000000
007F800000000FFE00000000
007F800000001FFE00000000
007F800000003FFC00000000
007F800000003FF800000000
007F800000007FF000000000
007F80000000FFF000000000
007F80000001FFE000000000
007F80000001FFC000000000
007F80000003FFC000000000
007F80000007FF8000000000
007F80000007FF00003FE000
007F8000000FFE0001FFFC00
007F8000001FFE0007FFFE00
007F8000003FFC001FFFFF80
007F8000003FF8003FFFFFC0
007F8000007FF0007FFFFFE0
007F800000FFF0007FFFFFF0
007F800001FFE000FFFFFFF0
007F800001FFC001FFE03FF8
007F800003FF8001FF801FF8
007F800007FF8001FF000FFC
007F800007FF0003FE0007FC
007F80000FFE0003FE0007FC
007F80001FFE0003FE0003FC
007F80003FFC0003FC0003FC
007F80003FF80003FC0003FC
007F80007FF00000000003FC
007F8000FFF00000000003FC
007F8001FFE00000000007FC
007F8001FFC00000000007FC
00000003FF80000000000FFC
00000007FF80000000001FF8
00000007FF00000000003FF8
0000000FFE00000000007FF0
0000001FFE0000000000FFF0
0000003FFC0000000001FFE0
0000003FF80000000003FFC0
0000007FF00000000007FF80
000000FFF0000000000FFF00
000001FFE0000000001FFE00
000001FFC0000000003FFC00
000003FF8000000000FFF000
000007FF8000000001FFE000
000007FF0000000003FFC000
00000FFE0000000007FF8000
00001FFC000000000FFF0000
00003FFC000000001FFE0000
00003FF8000000003FFC0000
00007FF0000000007FF80000
0000FFF000000001FFE00000
0001FFE000000003FFFFFFFC
0001FFC000000003FFFFFFFC
0003FF8000000003FFFFFFFC
0001FF8000000003FFFFFFFC
00007F0000000003FFFFFFFC
00003E0000000003FFFFFFFC
00001C0000000003FFFFFFFC
0000040000000003FFFFFFFC
ENDCHAR
STARTCHAR 00BE
ENCODING 190
SWIDTH 1027 0
DWIDTH 107 0
BBX 97 76 4 0
BITMAP
00000000000000000040000000
3FFFFFFE0000000000E0000000
3FFFFFFE0000000000F8000000
3FFFFFFE0000000001FC000000
3FFFFFFE0000000003FE000000
3FFFFFFE0000000003FF000000
3FFFFFFE0000000007FF000000
3FFFFFFE000000000FFF000000
3FFFFFFE000000001FFE000000
00000FFC000000001FFC000000
00001FF8000000003FFC000000
00003FF0000000007FF8000000
00007FE000000000FFF0000000
0000FFC000000000FFE0000000
0001FF8000000001FFE0000000
0007FF0000000003FFC0000000
000FFE0000000003FF80000000
001FFC0000000007FF00000000
003FF8000000000FFF00000000
007FFC000000001FFE00000000
00FFFF800000001FFC00000000
007FFFC00000003FF800000000
007FFFE00000007FF800000000
003FFFF0000000FFF000000000
003FFFF8000000FFE000000000
001FFFFC000001FFE000000000
00000FFC000003FFC000000000
000007FE000003FF8000000000
000003FE000007FF0000000000
000001FE00000FFF0003FF0000
000001FF00001FFE0003FE0000
000001FF00001FFC0003FE0000
000001FF00003FF80007FC0000
000000FF00007FF80007FC0000
000001FF0000FFF0000FF80000
000001FF0000FFE0000FF80000
070001FF0001FFC0001FF00000
7F8003FE0003FFC0001FF00000
FFC003FE0003FF80003FF00000
7FE007FE0007FF00003FE00000
7FF01FFC000FFF00007FE00000
3FFFFFFC001FFE00007FC00000
3FFFFFF8001FFC0000FFC00000
1FFFFFF0003FF80000FF800000
0FFFFFE0007FF80001FF800000
07FFFFC0007FF00001FF000000
01FFFF8000FFE00003FF000000
007FFE0001FFC00003FE000000
001FF00003FFC00007FE000000
0000000003FF800007FC0FF800
0000000007FF000007FC0FF800
000000000FFF00000FF80FF800
000000001FFE00000FF80FF800
000000001FFC00001FF00FF800
000000003FF800001FF00FF800
000000007FF800003FF00FF800
000000007FF000003FE00FF800
00000000FFE000007FE00FF800
00000001FFC000007FC00FF800
00000003FFC00000FFC00FF800
00000003FF800000FF800FF800
00000007FF000000FFFFFFFF80
0000000FFE000000FFFFFFFF80
0000001FFE000000FFFFFFFF80
0000001FFC000000FFFFFFFF80
0000003FF8000000FFFFFFFF80
0000007FF0000000FFFFFFFF80
0000007FF0000000FFFFFFFF80
000000FFE0000000FFFFFFFF80
000001FFC000000000000FF800
000003FFC000000000000FF800
000001FF8000000000000FF800
0000007F0000000000000FF800
0000003E0000000000000FF800
0000001E0000000000000FF800
000000040000000000000FF800
ENDCHAR
STARTCHAR 00BF
ENCODING 191
SWIDTH 556 0
DWIDTH 58 0
BBX 47 76 5 -20
BITMAP
00003FFF0000
00003FFF0000
00003FFF0000
00003FFF0000
00003FFF0000
00003FFF0000
00003FFF0000
00003FFF0000
00003FFF0000
00003FFF0000
00003FFF0000
00003FFF0000
00003FFF0000
00003FFF0000
000000000000
000000000000
000000000000
000000000000
000000000000
000000000000
00003FFF0000
00003FFF0000
00003FFF0000
00003FFF0000
00003FFE0000
00003FFE0000
00003FFE0000
00007FFE0000
00007FFE0000
0000FFFC0000
0001FFFC0000
0003FFFC0000
0007FFF80000
000FFFF80000
001FFFF00000
003FFFE00000
007FFFE00000
00FFFFC00000
01FFFF800000
01FFFF000000
03FFFC000000
07FFF8000000
0FFFF0000000
0FFFE0000000
1FFFC0000000
1FFF80000000
3FFF00000000
3FFE00000000
7FFE00000000
7FFC00000000
7FFC00000000
7FFC00000000
FFFC00000000
FFFC00000000
FFF800000000
FFFC00003FFE
FFFC00003FFE
FFFC00003FFE
FFFC00003FFE
7FFC00007FFE
7FFE00007FFC
7FFF0000FFFC
3FFF8003FFFC
3FFFE00FFFF8
3FFFFFFFFFF8
1FFFFFFFFFF0
0FFFFFFFFFE0
0FFFFFFFFFE0
07FFFFFFFFC0
03FFFFFFFF80
01FFFFFFFF00
00FFFFFFFE00
003FFFFFF800
000FFFFFE000
0003FFFF8000
00003FF80000
ENDCHAR
STARTCHAR 00C0
ENCODING 192
SWIDTH 672 0
DWIDTH 70 0
BBX 66 102 2 0
BITMAP
00001FF80000000000
00000FF80000000000
00000FFC0000000000
00000FFC0000000000
000007FC0000000000
000007FE0000000000
000003FE0000000000
000003FF0000000000
000003FF0000000000
000001FF0000000000
000001FF8000000000
000000FF8000000000
000000FFC000000000
0000007FC000000000
0000007FE000000000
0000007FE000000000
0000003FE000000000
0000003FF000000000
0000001FF000000000
000000000000000000
000000000000000000
000000000000000000
000000000000000000
000000000000000000
000000000000000000
000000000000000000
000000000000000000
000000FFFFC0000000
000001FFFFE0000000
000001FFFFE0000000
000001FFFFE0000000
000003FFFFF0000000
000003FFFFF0000000
000003FFFFF0000000
000007FFFFF0000000
000007FFFFF8000000
000007FFFFF8000000
00000FFFFFF8000000
00000FFFFFFC000000
00000FFFFFFC000000
00001FFFFFFC000000
00001FFF3FFE000000
00001FFF3FFE000000
00001FFF3FFE000000
00003FFE1FFF000000
00003FFE1FFF000000
00003FFE1FFF000000
00007FFC0FFF800000
00007FFC0FFF800000
00007FFC0FFF800000
0000FFF807FFC00000
0000FFF807FFC00000
0000FFF807FFC00000
0001FFF003FFC00000
0001FFF003FFE00000
0001FFF003FFE00000
0003FFF001FFE00000
0003FFE001FFF00000
0003FFE001FFF00000
0007FFE001FFF00000
0007FFC000FFF80000
0007FFC000FFF80000
0007FFC000FFF80000
000FFF80007FFC0000
000FFF80007FFC0000
000FFF80007FFC0000
001FFF00003FFE0000
001FFF00003FFE0000
001FFF00003FFE0000
003FFE00001FFF0000
003FFE00001FFF0000
003FFE00001FFF0000
007FFC00000FFF0000
007FFC00000FFF8000
007FFFFFFFFFFF8000
00FFFFFFFFFFFF8000
00FFFFFFFFFFFFC000
00FFFFFFFFFFFFC000
01FFFFFFFFFFFFC000
01FFFFFFFFFFFFE000
01FFFFFFFFFFFFE000
01FFFFFFFFFFFFE000
03FFFFFFFFFFFFF000
03FFFFFFFFFFFFF000
03FFFFFFFFFFFFF000
07FFFFFFFFFFFFF800
07FFC0000000FFF800
07FFC0000000FFF800
0FFF800000007FFC00
0FFF800000007FFC00
0FFF800000007FFC00
1FFF000000003FFC00
1FFF000000003FFE00
1FFF000000003FFE00
3FFE000000003FFE00
3FFE000000001FFF00
3FFE000000001FFF00
7FFC000000001FFF00
7FFC000000000FFF80
7FFC000000000FFF80
7FF8000000000FFF80
FFF80000000007FFC0
ENDCHAR
STARTCHAR 00C1
ENCODING 193
SWIDTH 672 0
DWIDTH 70 0
BBX 66 102 2 0
BITMAP
0000000007FE000000
0000000007FC000000
000000000FFC000000
000000000FF8000000
000000001FF8000000
000000001FF8000000
000000001FF0000000
000000003FF0000000
000000003FE0000000
000000007FE0000000
000000007FE0000000
000000007FC0000000
00000000FFC0000000
00000000FF80000000
00000001FF80000000
00000001FF00000000
00000003FF00000000
00000003FF00000000
00000003FE00000000
000000000000000000
000000000000000000
000000000000000000
000000000000000000
000000000000000000
000000000000000000
000000000000000000
000000000000000000
000000FFFFC0000000
000001FFFFE0000000
000001FFFFE0000000
000001FFFFE0000000
000003FFFFF0000000
000003FFFFF0000000
000003FFFFF0000000
000007FFFFF0000000
000007FFFFF8000000
000007FFFFF8000000
00000FFFFFF8000000
00000FFFFFFC000000
00000FFFFFFC000000
00001FFF7FFC000000
00001FFF3FFE000000
00001FFF3FFE000000
00001FFE3FFE000000
00003FFE3FFF000000
00003FFE1FFF000000
00003FFC1FFF000000
00007FFC1FFF800000
00007FFC0FFF800000
00007FFC0FFF800000
0000FFF80FFFC00000
0000FFF807FFC00000
0000FFF807FFC00000
0001FFF007FFC00000
0001FFF003FFE00000
0001FFF003FFE00000
0003FFE003FFE00000
0003FFE001FFF00000
0003FFE001FFF00000
0007FFC001FFF00000
0007FFC000FFF80000
0007FFC000FFF80000
0007FF8000FFF80000
000FFF80007FFC0000
000FFF80007FFC0000
000FFF00007FFC0000
001FFF00003FFE0000
001FFF00003FFE0000
001FFF00003FFE0000
003FFE00003FFF0000
003FFE00001FFF0000
003FFE00001FFF0000
007FFC00001FFF0000
007FFC00000FFF8000
007FFFFFFFFFFF8000
00FFFFFFFFFFFF8000
00FFFFFFFFFFFFC000
00FFFFFFFFFFFFC000
01FFFFFFFFFFFFC000
01FFFFFFFFFFFFE000
01FFFFFFFFFFFFE000
01FFFFFFFFFFFFE000
03FFFFFFFFFFFFF000
03FFFFFFFFFFFFF000
03FFFFFFFFFFFFF000
07FFFFFFFFFFFFF800
07FFC0000000FFF800
07FFC0000000FFF800
0FFF800000007FFC00
0FFF800000007FFC00
0FFF800000007FFC00
1FFF000000003FFC00
1FFF000000003FFE00
1FFF000000003FFE00
3FFE000000003FFE00
3FFE000000001FFF00
3FFE000000001FFF00
7FFC000000001FFF00
7FFC000000000FFF80
7FFC000000000FFF80
7FF8000000000FFF80
FFF80000000007FFC0
ENDCHAR
STARTCHAR 00C2
ENCODING 194
SWIDTH 672 0
DWIDTH 70 0
BBX 66 99 2 0
BITMAP
0000001FFE00000000
0000003FFF00000000
0000007FFF80000000
000000FFFFC0000000
000001FFFFC0000000
000003FFFFE0000000
000003FFFFF0000000
000007FF7FF8000000
00000FFE3FFC000000
00001FFE1FFE000000
00003FFC0FFF000000
00007FF807FF000000
0000FFF003FF800000
0001FFE003FFC00000
0001FFC001FFE00000
0003FF8000FFF00000
000000000000000000
000000000000000000
000000000000000000
000000000000000000
000000000000000000
000000000000000000
000000000000000000
000000000000000000
000000FFFFC0000000
000001FFFFE0000000
000001FFFFE0000000
000001FFFFE0000000
000003FFFFF0000000
000003FFFFF0000000
000003FFFFF0000000
000007FFFFF0000000
000007FFFFF8000000
000007FFFFF8000000
00000FFFFFF8000000
00000FFFFFFC000000
00000FFFFFFC000000
00001FFF7FFC000000
00001FFF3FFE000000
00001FFF3FFE000000
00001FFE3FFE000000
00003FFE3FFF000000
00003FFE1FFF000000
00003FFC1FFF000000
00007FFC1FFF800000
00007FFC0FFF800000
00007FFC0FFF800000
0000FFF80FFFC00000
0000FFF807FFC00000
0000FFF807FFC00000
0001FFF007FFC00000
0001FFF003FFE00000
0001FFF003FFE00000
0003FFE003FFE00000
0003FFE001FFF00000
0003FFE001FFF00000
0007FFC001FFF00000
0007FFC000FFF80000
0007FFC000FFF80000
0007FF8000FFF80000
000FFF80007FFC0000
000FFF80007FFC0000
000FFF00007FFC0000
001FFF00003FFE0000
001FFF00003FFE0000
001FFF00003FFE0000
003FFE00003FFF0000
003FFE00001FFF0000
003FFE00001FFF0000
007FFC00001FFF0000
007FFC00000FFF8000
007FFFFFFFFFFF8000
00FFFFFFFFFFFF8000
00FFFFFFFFFFFFC000
00FFFFFFFFFFFFC000
01FFFFFFFFFFFFC000
01FFFFFFFFFFFFE000
01FFFFFFFFFFFFE000
01FFFFFFFFFFFFE000
03FFFFFFFFFFFFF000
03FFFFFFFFFFFFF000
03FFFFFFFFFFFFF000
07FFFFFFFFFFFFF800
07FFC0000000FFF800
07FFC0000000FFF800
0FFF800000007FFC00
0FFF800000007FFC00
0FFF800000007FFC00
1FFF000000003FFC00
1FFF000000003FFE00
1FFF000000003FFE00
3FFE000000003FFE00
3FFE000000001FFF00
3FFE000000001FFF00
7FFC000000001FFF00
7FFC000000000FFF80
7FFC000000000FFF80
7FF8000000000FFF80
FFF80000000007FFC0
ENDCHAR
STARTCHAR 00C3
ENCODING 195
SWIDTH 672 0
DWIDTH 70 0
BBX 66 102 2 0
BITMAP
00000FF00000000000
00003FFC001FE00000
00007FFF001FE00000
0000FFFF801FE00000
0000FFFFE01FE00000
0001FFFFF01FE00000
0001FFFFFC3FE00000
0001FFFFFFFFE00000
0001FFFFFFFFE00000
0001FF1FFFFFE00000
0001FE07FFFFE00000
0001FE01FFFFC00000
0001FE007FFF800000
0001FE003FFF800000
0001FE000FFF000000
0000000003FC000000
000000000000000000
000000000000000000
000000000000000000
000000000000000000
000000000000000000
000000000000000000
000000000000000000
000000000000000000
000000000000000000
000000000000000000
000000000000000000
000000FFFFC0000000
000001FFFFE0000000
000001FFFFE0000000
000001FFFFE0000000
000003FFFFF0000000
000003FFFFF0000000
000003FFFFF0000000
000007FFFFF0000000
000007FFFFF8000000
000007FFFFF8000000
00000FFFFFF8000000
00000FFFFFFC000000
00000FFFFFFC000000
00001FFF7FFC000000
00001FFF3FFE000000
00001FFF3FFE000000
00001FFE3FFE000000
00003FFE3FFF000000
00003FFE1FFF000000
00003FFC1FFF000000
00007FFC1FFF800000
00007FFC0FFF800000
00007FFC0FFF800000
0000FFF80FFFC00000
0000FFF807FFC00000
0000FFF807FFC00000
0001FFF007FFC00000
0001FFF003FFE00000
0001FFF003FFE00000
0003FFE003FFE00000
0003FFE001FFF00000
0003FFE001FFF00000
0007FFC001FFF00000
0007FFC000FFF80000
0007FFC000FFF80000
0007FF8000FFF80000
000FFF80007FFC0000
000FFF80007FFC0000
000FFF00007FFC0000
001FFF00003FFE0000
001FFF00003FFE0000
001FFF00003FFE0000
003FFE00003FFF0000
003FFE00001FFF0000
003FFE00001FFF0000
007FFC00001FFF0000
007FFC00000FFF8000
007FFFFFFFFFFF8000
00FFFFFFFFFFFF8000
00FFFFFFFFFFFFC000
00FFFFFFFFFFFFC000
01FFFFFFFFFFFFC000
01FFFFFFFFFFFFE000
01FFFFFFFFFFFFE000
01FFFFFFFFFFFFE000
03FFFFFFFFFFFFF000
03FFFFFFFFFFFFF000
03FFFFFFFFFFFFF000
07FFFFFFFFFFFFF800
07FFC0000000FFF800
07FFC0000000FFF800
0FFF800000007FFC00
0FFF800000007FFC00
0FFF800000007FFC00
1FFF000000003FFC00
1FFF000000003FFE00
1FFF000000003FFE00
3FFE000000003FFE00
3FFE000000001FFF00
3FFE000000001FFF00
7FFC000000001FFF00
7FFC000000000FFF80
7FFC000000000FFF80
7FF8000000000FFF80
FFF80000000007FFC0
ENDCHAR
STARTCHAR 00C4
ENCODING 196
SWIDTH 672 0
DWIDTH 70 0
BBX 66 95 2 0
BITMAP
0000FFF003FF800000
0000FFF003FF800000
0000FFF003FF800000
0000FFF003FF800000
0000FFF003FF800000
0000FFF003FF800000
0000FFF003FF800000
0000FFF003FF800000
0000FFF003FF800000
0000FFF003FF800000
0000FFF003FF800000
000000000000000000
000000000000000000
000000000000000000
000000000000000000
000000000000000000
000000000000000000
000000000000000000
000000000000000000
000000000000000000
000000FFFFC0000000
000001FFFFE0000000
000001FFFFE0000000
000001FFFFE0000000
000003FFFFF0000000
000003FFFFF0000000
000003FFFFF0000000
000007FFFFF0000000
000007FFFFF8000000
000007FFFFF8000000
00000FFFFFF8000000
00000FFFFFFC000000
00000FFFFFFC000000
00001FFF7FFC000000
00001FFF3FFE000000
00001FFF3FFE000000
00001FFE3FFE000000
00003FFE3FFF000000
00003FFE1FFF000000
00003FFC1FFF000000
00007FFC1FFF800000
00007FFC0FFF800000
00007FFC0FFF800000
0000FFF80FFFC00000
0000FFF807FFC00000
0000FFF807FFC00000
0001FFF007FFC00000
0001FFF003FFE00000
0001FFF003FFE00000
0003FFE003FFE00000
0003FFE001FFF00000
0003FFE001FFF00000
0007FFC001FFF00000
0007FFC000FFF80000
0007FFC000FFF80000
0007FF8000FFF80000
000FFF80007FFC0000
000FFF80007FFC0000
000FFF00007FFC0000
001FFF00003FFE0000
001FFF00003FFE0000
001FFF00003FFE0000
003FFE00003FFF0000
003FFE00001FFF0000
003FFE00001FFF0000
007FFC00001FFF0000
007FFC00000FFF8000
007FFFFFFFFFFF8000
00FFFFFFFFFFFF8000
00FFFFFFFFFFFFC000
00FFFFFFFFFFFFC000
01FFFFFFFFFFFFC000
01FFFFFFFFFFFFE000
01FFFFFFFFFFFFE000
01FFFFFFFFFFFFE000
03FFFFFFFFFFFFF000
03FFFFFFFFFFFFF000
03FFFFFFFFFFFFF000
07FFFFFFFFFFFFF800
07FFC0000000FFF800
07FFC0000000FFF800
0FFF800000007FFC00
0FFF800000007FFC00
0FFF800000007FFC00
1FFF000000003FFC00
1FFF000000003FFE00
1FFF000000003FFE00
3FFE000000003FFE00
3FFE000000001FFF00
3FFE000000001FFF00
7FFC000000001FFF00
7FFC000000000FFF80
7FFC000000000FFF80
7FF8000000000FFF80
FFF80000000007FFC0
ENDCHAR
STARTCHAR 00C5
ENCODING 197
SWIDTH 672 0
DWIDTH 70 0
BBX 66 108 2 0
BITMAP
00000001E000000000
0000000FFC00000000
0000003FFF00000000
000000FFFFC0000000
000001FFFFE0000000
000003FFFFF0000000
000003FFFFF0000000
000007FFFFF8000000
000007FE1FF8000000
00000FF807FC000000
00000FF003FC000000
00000FF003FC000000
00000FF001FC000000
00000FE001FC000000
00000FE001FC000000
00000FF003FC000000
00000FF003FC000000
00000FF807FC000000
000007FC0FF8000000
000007FFFFF8000000
000003FFFFF0000000
000003FFFFF0000000
000001FFFFE0000000
000000FFFFC0000000
0000007FFF80000000
0000001FFE00000000
00000007F800000000
000000000000000000
000000000000000000
000000000000000000
000000000000000000
000000000000000000
000000000000000000
000000FFFFC0000000
000001FFFFE0000000
000001FFFFE0000000
000001FFFFE0000000
000003FFFFF0000000
000003FFFFF0000000
000003FFFFF0000000
000007FFFFF0000000
000007FFFFF8000000
000007FFFFF8000000
00000FFFFFF8000000
00000FFFFFFC000000
00000FFFFFFC000000
00001FFF7FFC000000
00001FFF3FFE000000
00001FFF3FFE000000
00001FFE3FFE000000
00003FFE3FFF000000
00003FFE1FFF000000
00003FFC1FFF000000
00007FFC1FFF800000
00007FFC0FFF800000
00007FFC0FFF800000
0000FFF80FFFC00000
0000FFF807FFC00000
0000FFF807FFC00000
0001FFF007FFC00000
0001FFF003FFE00000
0001FFF003FFE00000
0003FFE003FFE00000
0003FFE001FFF00000
0003FFE001FFF00000
0007FFC001FFF00000
0007FFC000FFF80000
0007FFC000FFF80000
0007FF8000FFF80000
000FFF80007FFC0000
000FFF80007FFC0000
000FFF00007FFC0000
001FFF00003FFE0000
001FFF00003FFE0000
001FFF00003FFE0000
003FFE00003FFF0000
003FFE00001FFF0000
003FFE00001FFF0000
007FFC00001FFF0000
007FFC00000FFF8000
007FFFFFFFFFFF8000
00FFFFFFFFFFFF8000
00FFFFFFFFFFFFC000
00FFFFFFFFFFFFC000
01FFFFFFFFFFFFC000
01FFFFFFFFFFFFE000
01FFFFFFFFFFFFE000
01FFFFFFFFFFFFE000
03FFFFFFFFFFFFF000
03FFFFFFFFFFFFF000
03FFFFFFFFFFFFF000
07FFFFFFFFFFFFF800
07FFC0000000FFF800
07FFC0000000FFF800
0FFF800000007FFC00
0FFF800000007FFC00
0FFF800000007FFC00
1FFF000000003FFC00
1FFF000000003FFE00
1FFF000000003FFE00
3FFE000000003FFE00
3FFE000000001FFF00
3FFE000000001FFF00
7FFC000000001FFF00
7FFC000000000FFF80
7FFC000000000FFF80
7FF8000000000FFF80
FFF80000000007FFC0
ENDCHAR
STARTCHAR 00C6
ENCODING 198
SWIDTH 940 0
DWIDTH 98 0
BBX 91 75 2 0
BITMAP
000000FFFFFFFFFFFFFFFFE0
000001FFFFFFFFFFFFFFFFE0
000001FFFFFFFFFFFFFFFFE0
000001FFFFFFFFFFFFFFFFE0
000003FFFFFFFFFFFFFFFFE0
000003FFFFFFFFFFFFFFFFE0
000003FFFFFFFFFFFFFFFFE0
000007FFFFFFFFFFFFFFFFE0
000007FFFFFFFFFFFFFFFFE0
000007FFFFFFFFFFFFFFFFE0
00000FFFFFFFFFFFFFFFFFE0
00000FFFFFFFFFFFFFFFFFE0
00000FFF803FFE0000000000
00001FFF003FFE0000000000
00001FFF003FFE0000000000
00001FFF003FFE0000000000
00001FFE003FFE0000000000
00003FFE003FFE0000000000
00003FFE003FFE0000000000
00003FFC003FFE0000000000
00007FFC003FFE0000000000
00007FFC003FFE0000000000
00007FF8003FFE0000000000
0000FFF8003FFE0000000000
0000FFF8003FFE0000000000
0000FFF8003FFE0000000000
0001FFF0003FFE0000000000
0001FFF0003FFE0000000000
0001FFF0003FFE0000000000
0003FFE0003FFE0000000000
0003FFE0003FFFFFFFFFF000
0003FFE0003FFFFFFFFFF000
0007FFC0003FFFFFFFFFF000
0007FFC0003FFFFFFFFFF000
0007FFC0003FFFFFFFFFF000
0007FF80003FFFFFFFFFF000
000FFF80003FFFFFFFFFF000
000FFF80003FFFFFFFFFF000
000FFF00003FFFFFFFFFF000
001FFF00003FFFFFFFFFF000
001FFF00003FFFFFFFFFF000
001FFF00003FFFFFFFFFF000
003FFE00003FFE0000000000
003FFE00003FFE0000000000
003FFE00003FFE0000000000
007FFC00003FFE0000000000
007FFC00003FFE0000000000
007FFFFFFFFFFE0000000000
00FFFFFFFFFFFE0000000000
00FFFFFFFFFFFE0000000000
00FFFFFFFFFFFE0000000000
01FFFFFFFFFFFE0000000000
01FFFFFFFFFFFE0000000000
01FFFFFFFFFFFE0000000000
01FFFFFFFFFFFE0000000000
03FFFFFFFFFFFE0000000000
03FFFFFFFFFFFE0000000000
03FFFFFFFFFFFE0000000000
07FFFFFFFFFFFE0000000000
07FFC000003FFE0000000000
07FFC000003FFE0000000000
0FFF8000003FFE0000000000
0FFF8000003FFE0000000000
0FFF8000003FFFFFFFFFFFE0
1FFF0000003FFFFFFFFFFFE0
1FFF0000003FFFFFFFFFFFE0
1FFF0000003FFFFFFFFFFFE0
3FFE0000003FFFFFFFFFFFE0
3FFE0000003FFFFFFFFFFFE0
3FFE0000003FFFFFFFFFFFE0
7FFC0000003FFFFFFFFFFFE0
7FFC0000003FFFFFFFFFFFE0
7FFC0000003FFFFFFFFFFFE0
7FF80000003FFFFFFFFFFFE0
FFF80000003FFFFFFFFFFFE0
ENDCHAR
STARTCHAR 00C7
ENCODING 199
SWIDTH 739 0
DWIDTH 77 0
BBX 70 102 3 -25
BITMAP
00000007FFE0000000
0000007FFFFE000000
000003FFFFFFC00000
00001FFFFFFFF80000
00007FFFFFFFFE0000
0000FFFFFFFFFF0000
0003FFFFFFFFFFC000
0007FFFFFFFFFFE000
000FFFFFFFFFFFF000
001FFFFFFFFFFFF800
003FFFFFFFFFFFFC00
007FFFFFFFFFFFFE00
00FFFFFC003FFFFF00
01FFFFE00007FFFF80
01FFFF800001FFFF80
03FFFE0000007FFFC0
03FFFC0000003FFFC0
07FFF80000001FFFE0
0FFFF00000000FFFF0
0FFFE000000007FFF0
0FFFC000000003FFF0
1FFF8000000003FFF8
1FFF8000000001FFF8
3FFF0000000000FFFC
3FFF0000000000FFF0
3FFF0000000000FF00
3FFE00000000007800
7FFE00000000000000
7FFE00000000000000
7FFC00000000000000
7FFC00000000000000
7FFC00000000000000
FFFC00000000000000
FFFC00000000000000
FFF800000000000000
FFF800000000000000
FFF800000000000000
FFF800000000000000
FFF800000000000000
FFF800000000000000
FFF800000000000000
FFF800000000000000
FFF800000000000000
FFF800000000000000
FFFC00000000000000
FFFC00000000000000
7FFC00000000000000
7FFC00000000000000
7FFC00000000000000
7FFC00000000000000
7FFE00000000000000
3FFE00000000007000
3FFE0000000000FF00
3FFF0000000000FFE0
3FFF0000000000FFFC
1FFF8000000001FFF8
1FFF8000000001FFF8
1FFFC000000003FFF8
0FFFE000000007FFF0
0FFFF00000000FFFF0
07FFF00000001FFFE0
07FFFC0000003FFFE0
03FFFE0000007FFFC0
01FFFF000000FFFF80
01FFFFC00007FFFF80
00FFFFF8001FFFFF00
007FFFFFFFFFFFFE00
003FFFFFFFFFFFFC00
001FFFFFFFFFFFF800
000FFFFFFFFFFFF000
0007FFFFFFFFFFE000
0003FFFFFFFFFFC000
0000FFFFFFFFFF0000
00007FFFFFFFFE0000
00001FFFFFFFF80000
000007FFFFFFE00000
000000FFFFFF000000
0000000FFFE0000000
000000007F00000000
00000000FF00000000
00000000FF00000000
00000000FF80000000
00000001FFC0000000
00000001FFE0000000
00000001FFF0000000
00000003FFF8000000
000000007FF8000000
000000001FF8000000
000000000FFC000000
0000000007FC000000
0000000007FC000000
0000000007FC000000
000000020FFC000000
00000003FFF8000000
00000003FFF8000000
00000007FFF8000000
00000007FFF0000000
0000000FFFE0000000
0000000FFFE0000000
0000000FFF80000000
00000007FF00000000
000000007000000000
ENDCHAR
STARTCHAR 00C8
ENCODING 200
SWIDTH 585 0
DWIDTH 61 0
BBX 49 102 7 0
BITMAP
0007FE00000000
0003FE00000000
0003FF00000000
0003FF00000000
0001FF00000000
0001FF80000000
0000FF80000000
0000FFC0000000
0000FFC0000000
00007FC0000000
00007FE0000000
00003FE0000000
00003FF0000000
00001FF0000000
00001FF8000000
00001FF8000000
00000FF8000000
00000FFC000000
000007FC000000
00000000000000
00000000000000
00000000000000
00000000000000
00000000000000
00000000000000
00000000000000
00000000000000
FFFFFFFFFFFF80
FFFFFFFFFFFF80
FFFFFFFFFFFF80
FFFFFFFFFFFF80
FFFFFFFFFFFF80
FFFFFFFFFFFF80
FFFFFFFFFFFF80
FFFFFFFFFFFF80
FFFFFFFFFFFF80
FFFFFFFFFFFF80
FFFFFFFFFFFF80
FFFFFFFFFFFF80
FFF80000000000
FFF80000000000
FFF80000000000
FFF80000000000
FFF80000000000
FFF80000000000
FFF80000000000
FFF80000000000
FFF80000000000
FFF80000000000
FFF80000000000
FFF80000000000
FFF80000000000
FFF80000000000
FFF80000000000
FFF80000000000
FFF80000000000
FFF80000000000
FFFFFFFFFFC000
FFFFFFFFFFC000
FFFFFFFFFFC000
FFFFFFFFFFC000
FFFFFFFFFFC000
FFFFFFFFFFC000
FFFFFFFFFFC000
FFFFFFFFFFC000
FFFFFFFFFFC000
FFFFFFFFFFC000
FFFFFFFFFFC000
FFFFFFFFFFC000
FFF80000000000
FFF80000000000
FFF80000000000
FFF80000000000
FFF80000000000
FFF80000000000
FFF80000000000
FFF80000000000
FFF80000000000
FFF80000000000
FFF80000000000
FFF80000000000
FFF80000000000
FFF80000000000
FFF80000000000
FFF80000000000
FFF80000000000
FFF80000000000
FFF80000000000
FFF80000000000
FFF80000000000
FFFFFFFFFFFF80
FFFFFFFFFFFF80
FFFFFFFFFFFF80
FFFFFFFFFFFF80
FFFFFFFFFFFF80
FFFFFFFFFFFF80
FFFFFFFFFFFF80
FFFFFFFFFFFF80
FFFFFFFFFFFF80
FFFFFFFFFFFF80
FFFFFFFFFFFF80
FFFFFFFFFFFF80
ENDCHAR
STARTCHAR 00C9
ENCODING 201
SWIDTH 585 0
DWIDTH 61 0
BBX 49 102 7 0
BITMAP
00000007FC0000
0000000FFC0000
0000000FFC0000
0000000FF80000
0000001FF80000
0000001FF00000
0000003FF00000
0000003FE00000
0000003FE00000
0000007FE00000
0000007FC00000
000000FFC00000
000000FF800000
000001FF800000
000001FF800000
000001FF000000
000003FF000000
000003FE000000
000007FE000000
00000000000000
00000000000000
00000000000000
00000000000000
00000000000000
00000000000000
00000000000000
00000000000000
FFFFFFFFFFFF80
FFFFFFFFFFFF80
FFFFFFFFFFFF80
FFFFFFFFFFFF80
FFFFFFFFFFFF80
FFFFFFFFFFFF80
FFFFFFFFFFFF80
FFFFFFFFFFFF80
FFFFFFFFFFFF80
FFFFFFFFFFFF80
FFFFFFFFFFFF80
FFFFFFFFFFFF80
FFF80000000000
FFF80000000000
FFF80000000000
FFF80000000000
FFF80000000000
FFF80000000000
FFF80000000000
FFF80000000000
FFF80000000000
FFF80000000000
FFF80000000000
FFF80000000000
FFF80000000000
FFF80000000000
FFF80000000000
FFF80000000000
FFF80000000000
FFF80000000000
FFFFFFFFFFC000
FFFFFFFFFFC000
FFFFFFFFFFC000
FFFFFFFFFFC000
FFFFFFFFFFC000
FFFFFFFFFFC000
FFFFFFFFFFC000
FFFFFFFFFFC000
FFFFFFFFFFC000
FFFFFFFFFFC000
FFFFFFFFFFC000
FFFFFFFFFFC000
FFF80000000000
FFF80000000000
FFF80000000000
FFF80000000000
FFF80000000000
FFF80000000000
FFF80000000000
FFF80000000000
FFF80000000000
FFF80000000000
FFF80000000000
FFF80000000000
FFF80000000000
FFF80000000000
FFF80000000000
FFF80000000000
FFF80000000000
FFF80000000000
FFF80000000000
FFF80000000000
FFF80000000000
FFFFFFFFFFFF80
FFFFFFFFFFFF80
FFFFFFFFFFFF80
FFFFFFFFFFFF80
FFFFFFFFFFFF80
FFFFFFFFFFFF80
FFFFFFFFFFFF80
FFFFFFFFFFFF80
FFFFFFFFFFFF80
FFFFFFFFFFFF80
FFFFFFFFFFFF80
FFFFFFFFFFFF80
ENDCHAR
STARTCHAR 00CA
ENCODING 202
SWIDTH 585 0
DWIDTH 61 0
BBX 49 99 7 0
BITMAP
00003FFC000000
00007FFE000000
0000FFFF000000
0001FFFF000000
0003FFFF800000
0007FFFFC00000
0007FFFFE00000
000FFEFFF00000
001FFC7FF80000
003FFC3FFC0000
007FF81FFE0000
00FFF00FFE0000
01FFE007FF0000
03FFC007FF8000
03FF8003FFC000
07FF0001FFE000
00000000000000
00000000000000
00000000000000
00000000000000
00000000000000
00000000000000
00000000000000
00000000000000
FFFFFFFFFFFF80
FFFFFFFFFFFF80
FFFFFFFFFFFF80
FFFFFFFFFFFF80
FFFFFFFFFFFF80
FFFFFFFFFFFF80
FFFFFFFFFFFF80
FFFFFFFFFFFF80
FFFFFFFFFFFF80
FFFFFFFFFFFF80
FFFFFFFFFFFF80
FFFFFFFFFFFF80
FFF80000000000
FFF80000000000
FFF80000000000
FFF80000000000
FFF80000000000
FFF80000000000
FFF80000000000
FFF80000000000
FFF80000000000
FFF80000000000
FFF80000000000
FFF80000000000
FFF80000000000
FFF80000000000
FFF80000000000
FFF80000000000
FFF80000000000
FFF80000000000
FFFFFFFFFFC000
FFFFFFFFFFC000
FFFFFFFFFFC000
FFFFFFFFFFC000
FFFFFFFFFFC000
FFFFFFFFFFC000
FFFFFFFFFFC000
FFFFFFFFFFC000
FFFFFFFFFFC000
FFFFFFFFFFC000
FFFFFFFFFFC000
FFFFFFFFFFC000
FFF80000000000
FFF80000000000
FFF80000000000
FFF80000000000
FFF80000000000
FFF80000000000
FFF80000000000
FFF80000000000
FFF80000000000
FFF80000000000
FFF80000000000
FFF80000000000
FFF80000000000
FFF80000000000
FFF80000000000
FFF80000000000
FFF80000000000
FFF80000000000
FFF80000000000
FFF80000000000
FFF80000000000
FFFFFFFFFFFF80
FFFFFFFFFFFF80
FFFFFFFFFFFF80
FFFFFFFFFFFF80
FFFFFFFFFFFF80
FFFFFFFFFFFF80
FFFFFFFFFFFF80
FFFFFFFFFFFF80
FFFFFFFFFFFF80
FFFFFFFFFFFF80
FFFFFFFFFFFF80
FFFFFFFFFFFF80
ENDCHAR
STARTCHAR 00CB
ENCODING 203
SWIDTH 585 0
DWIDTH 61 0
BBX 49 95 7 0
BITMAP
00FFE007FF8000
00FFE007FF8000
00FFE007FF8000
00FFE007FF8000
00FFE007FF8000
00FFE007FF8000
00FFE007FF8000
00FFE007FF8000
00FFE007FF8000
00FFE007FF8000
00FFE007FF8000
00000000000000
00000000000000
00000000000000
00000000000000
00000000000000
00000000000000
00000000000000
00000000000000
00000000000000
FFFFFFFFFFFF80
FFFFFFFFFFFF80
FFFFFFFFFFFF80
FFFFFFFFFFFF80
FFFFFFFFFFFF80
FFFFFFFFFFFF80
FFFFFFFFFFFF80
FFFFFFFFFFFF80
FFFFFFFFFFFF80
FFFFFFFFFFFF80
FFFFFFFFFFFF80
FFFFFFFFFFFF80
FFF80000000000
FFF80000000000
FFF80000000000
FFF80000000000
FFF80000000000
FFF80000000000
FFF80000000000
FFF80000000000
FFF80000000000
FFF80000000000
FFF80000000000
FFF80000000000
FFF80000000000
FFF80000000000
FFF80000000000
FFF80000000000
FFF80000000000
FFF80000000000
FFFFFFFFFFC000
FFFFFFFFFFC000
FFFFFFFFFFC000
FFFFFFFFFFC000
FFFFFFFFFFC000
FFFFFFFFFFC000
FFFFFFFFFFC000
FFFFFFFFFFC000
FFFFFFFFFFC000
FFFFFFFFFFC000
FFFFFFFFFFC000
FFFFFFFFFFC000
FFF80000000000
FFF80000000000
FFF80000000000
FFF80000000000
FFF80000000000
FFF80000000000
FFF80000000000
FFF80000000000
FFF80000000000
FFF80000000000
FFF80000000000
FFF80000000000
FFF80000000000
FFF80000000000
FFF80000000000
FFF80000000000
FFF80000000000
FFF80000000000
FFF80000000000
FFF80000000000
FFF80000000000
FFFFFFFFFFFF80
FFFFFFFFFFFF80
FFFFFFFFFFFF80
FFFFFFFFFFFF80
FFFFFFFFFFFF80
FFFFFFFFFFFF80
FFFFFFFFFFFF80
FFFFFFFFFFFF80
FFFFFFFFFFFF80
FFFFFFFFFFFF80
FFFFFFFFFFFF80
FFFFFFFFFFFF80
ENDCHAR
STARTCHAR 00CC
ENCODING 204
SWIDTH 278 0
DWIDTH 29 0
BBX 19 102 2 0
BITMAP
FF8000
FFC000
7FC000
7FE000
3FE000
3FF000
3FF000
1FF000
1FF800
0FF800
0FFC00
0FFC00
07FC00
07FE00
03FE00
03FF00
01FF00
01FF80
01FF80
000000
000000
000000
000000
000000
000000
000000
000000
03FFE0
03FFE0
03FFE0
03FFE0
03FFE0
03FFE0
03FFE0
03FFE0
03FFE0
03FFE0
03FFE0
03FFE0
03FFE0
03FFE0
03FFE0
03FFE0
03FFE0
03FFE0
03FFE0
03FFE0
03FFE0
03FFE0
03FFE0
03FFE0
03FFE0
03FFE0
03FFE0
03FFE0
03FFE0
03FFE0
03FFE0
03FFE0
03FFE0
03FFE0
03FFE0
03FFE0
03FFE0
03FFE0
03FFE0
03FFE0
03FFE0
03FFE0
03FFE0
03FFE0
03FFE0
03FFE0
03FFE0
03FFE0
03FFE0
03FFE0
03FFE0
03FFE0
03FFE0
03FFE0
03FFE0
03FFE0
03FFE0
03FFE0
03FFE0
03FFE0
03FFE0
03FFE0
03FFE0
03FFE0
03FFE0
03FFE0
03FFE0
03FFE0
03FFE0
03FFE0
03FFE0
03FFE0
03FFE0
03FFE0
03FFE0
ENDCHAR
STARTCHAR 00CD
ENCODING 205
SWIDTH 278 0
DWIDTH 29 0
BBX 19 102 8 0
BITMAP
003FE0
007FE0
007FC0
007FC0
00FFC0
00FF80
01FF80
01FF00
03FF00
03FF00
03FE00
07FE00
07FC00
0FFC00
0FF800
1FF800
1FF800
1FF000
3FF000
000000
000000
000000
000000
000000
000000
000000
000000
FFF800
FFF800
FFF800
FFF800
FFF800
FFF800
FFF800
FFF800
FFF800
FFF800
FFF800
FFF800
FFF800
FFF800
FFF800
FFF800
FFF800
FFF800
FFF800
FFF800
FFF800
FFF800
FFF800
FFF800
FFF800
FFF800
FFF800
FFF800
FFF800
FFF800
FFF800
FFF800
FFF800
FFF800
FFF800
FFF800
FFF800
FFF800
FFF800
FFF800
FFF800
FFF800
FFF800
FFF800
FFF800
FFF800
FFF800
FFF800
FFF800
FFF800
FFF800
FFF800
FFF800
FFF800
FFF800
FFF800
FFF800
FFF800
FFF800
FFF800
FFF800
FFF800
FFF800
FFF800
FFF800
FFF800
FFF800
FFF800
FFF800
FFF800
FFF800
FFF800
FFF800
FFF800
FFF800
ENDCHAR
STARTCHAR 00CE
ENCODING 206
SWIDTH 278 0
DWIDTH 29 0
BBX 38 99 -5 0
BITMAP
0007FF8000
000FFFC000
000FFFE000
001FFFF000
003FFFF800
007FFFFC00
00FFFFFE00
01FFEFFF00
03FFC7FF00
03FF83FF80
07FF01FFC0
0FFE01FFE0
1FFE00FFF0
3FFC007FF8
7FF8003FFC
FFF0001FFC
0000000000
0000000000
0000000000
0000000000
0000000000
0000000000
0000000000
0000000000
0007FFC000
0007FFC000
0007FFC000
0007FFC000
0007FFC000
0007FFC000
0007FFC000
0007FFC000
0007FFC000
0007FFC000
0007FFC000
0007FFC000
0007FFC000
0007FFC000
0007FFC000
0007FFC000
0007FFC000
0007FFC000
0007FFC000
0007FFC000
0007FFC000
0007FFC000
0007FFC000
0007FFC000
0007FFC000
0007FFC000
0007FFC000
0007FFC000
0007FFC000
0007FFC000
0007FFC000
0007FFC000
0007FFC000
0007FFC000
0007FFC000
0007FFC000
0007FFC000
0007FFC000
0007FFC000
0007FFC000
0007FFC000
0007FFC000
0007FFC000
0007FFC000
0007FFC000
0007FFC000
0007FFC000
0007FFC000
0007FFC000
0007FFC000
0007FFC000
0007FFC000
0007FFC000
0007FFC000
0007FFC000
0007FFC000
0007FFC000
0007FFC000
0007FFC000
0007FFC000
0007FFC000
0007FFC000
0007FFC000
0007FFC000
0007FFC000
0007FFC000
0007FFC000
0007FFC000
0007FFC000
0007FFC000
0007FFC000
0007FFC000
0007FFC000
0007FFC000
0007FFC000
ENDCHAR
STARTCHAR 00CF
ENCODING 207
SWIDTH 278 0
DWIDTH 29 0
BBX 33 95 -2 0
BITMAP
FFF003FF80
FFF003FF80
FFF003FF80
FFF003FF80
FFF003FF80
FFF003FF80
FFF003FF80
FFF003FF80
FFF003FF80
FFF003FF80
FFF003FF80
0000000000
0000000000
0000000000
0000000000
0000000000
0000000000
0000000000
0000000000
0000000000
003FFE0000
003FFE0000
003FFE0000
003FFE0000
003FFE0000
003FFE0000
003FFE0000
003FFE0000
003FFE0000
003FFE0000
003FFE0000
003FFE0000
003FFE0000
003FFE0000
003FFE0000
003FFE0000
003FFE0000
003FFE0000
003FFE0000
003FFE0000
003FFE0000
003FFE0000
003FFE0000
003FFE0000
003FFE0000
003FFE0000
003FFE0000
003FFE0000
003FFE0000
003FFE0000
003FFE0000
003FFE0000
003FFE0000
003FFE0000
003FFE0000
003FFE0000
003FFE0000
003FFE0000
003FFE0000
003FFE0000
003FFE0000
003FFE0000
003FFE0000
003FFE0000
003FFE0000
003FFE0000
003FFE0000
003FFE0000
003FFE0000
003FFE0000
003FFE0000
003FFE0000
003FFE0000
003FFE0000
003FFE0000
003FFE0000
003FFE0000
003FFE0000
003FFE0000
003FFE0000
003FFE0000
003FFE0000
003FFE0000
003FFE0000
003FFE0000
003FFE0000
003FFE0000
003FFE0000
003FFE0000
003FFE0000
003FFE0000
003FFE0000
003FFE0000
003FFE0000
003FFE0000
ENDCHAR
STARTCHAR 00D0
ENCODING 208
SWIDTH 700 0
DWIDTH 73 0
BBX 67 75 1 0
BITMAP
03FFFFFFFF00000000
03FFFFFFFFF8000000
03FFFFFFFFFE000000
03FFFFFFFFFFC00000
03FFFFFFFFFFE00000
03FFFFFFFFFFF80000
03FFFFFFFFFFFC0000
03FFFFFFFFFFFE0000
03FFFFFFFFFFFF0000
03FFFFFFFFFFFF8000
03FFFFFFFFFFFFC000
03FFFFFFFFFFFFE000
03FFE00001FFFFF000
03FFE000003FFFF800
03FFE000000FFFF800
03FFE0000003FFFC00
03FFE0000001FFFC00
03FFE0000000FFFE00
03FFE0000000FFFE00
03FFE00000007FFF00
03FFE00000003FFF00
03FFE00000003FFF80
03FFE00000001FFF80
03FFE00000001FFF80
03FFE00000000FFF80
03FFE00000000FFFC0
03FFE00000000FFFC0
03FFE000000007FFC0
03FFE000000007FFC0
03FFE000000007FFC0
03FFE000000007FFE0
03FFE000000007FFE0
FFFFFFFFE00003FFE0
FFFFFFFFE00003FFE0
FFFFFFFFE00003FFE0
FFFFFFFFE00003FFE0
FFFFFFFFE00003FFE0
FFFFFFFFE00003FFE0
FFFFFFFFE00003FFE0
FFFFFFFFE00003FFE0
FFFFFFFFE00003FFE0
FFFFFFFFE00003FFE0
03FFE000000007FFE0
03FFE000000007FFE0
03FFE000000007FFE0
03FFE000000007FFC0
03FFE000000007FFC0
03FFE00000000FFFC0
03FFE00000000FFFC0
03FFE00000000FFFC0
03FFE00000000FFF80
03FFE00000001FFF80
03FFE00000001FFF80
03FFE00000003FFF00
03FFE00000003FFF00
03FFE00000007FFF00
03FFE0000000FFFE00
03FFE0000001FFFE00
03FFE0000003FFFC00
03FFE0000007FFFC00
03FFE000000FFFF800
03FFE000003FFFF000
03FFE00001FFFFF000
03FFFFFFFFFFFFE000
03FFFFFFFFFFFFC000
03FFFFFFFFFFFF8000
03FFFFFFFFFFFF0000
03FFFFFFFFFFFE0000
03FFFFFFFFFFFC0000
03FFFFFFFFFFF80000
03FFFFFFFFFFE00000
03FFFFFFFFFFC00000
03FFFFFFFFFF000000
03FFFFFFFFF8000000
03FFFFFFFF00000000
ENDCHAR
STARTCHAR 00D1
ENCODING 209
SWIDTH 720 0
DWIDTH 75 0
BBX 61 100 7 0
BITMAP
00001FC000000000
00007FF000000000
0000FFFC007F8000
0001FFFF003FC000
0003FFFF803FC000
0003FFFFC03FC000
0003FFFFF07FC000
0007FFFFFCFFC000
0007FFFFFFFFC000
0007FE7FFFFFC000
0007FC1FFFFF8000
0007FC07FFFF8000
0007F803FFFF8000
0003F801FFFF0000
0003FC007FFE0000
000000001FFC0000
0000000007F00000
0000000000000000
0000000000000000
0000000000000000
0000000000000000
0000000000000000
0000000000000000
0000000000000000
0000000000000000
FFF800000000FFF8
FFFC00000000FFF8
FFFE00000000FFF8
FFFE00000000FFF8
FFFF00000000FFF8
FFFF80000000FFF8
FFFF80000000FFF8
FFFFC0000000FFF8
FFFFE0000000FFF8
FFFFE0000000FFF8
FFFFF0000000FFF8
FFFFF8000000FFF8
FFFFF8000000FFF8
FFFFFC000000FFF8
FFFFFE000000FFF8
FFFFFE000000FFF8
FFFFFF000000FFF8
FFFFFF800000FFF8
FFFFFF800000FFF8
FFFFFFC00000FFF8
FFFFFFE00000FFF8
FFFFFFE00000FFF8
FFFFFFF00000FFF8
FFFBFFF00000FFF8
FFF9FFF80000FFF8
FFF9FFFC0000FFF8
FFF8FFFC0000FFF8
FFF87FFE0000FFF8
FFF87FFF0000FFF8
FFF83FFF0000FFF8
FFF83FFF8000FFF8
FFF81FFFC000FFF8
FFF80FFFC000FFF8
FFF80FFFE000FFF8
FFF807FFF000FFF8
FFF803FFF000FFF8
FFF803FFF800FFF8
FFF801FFFC00FFF8
FFF800FFFC00FFF8
FFF800FFFE00FFF8
FFF8007FFF00FFF8
FFF8003FFF00FFF8
FFF8003FFF80FFF8
FFF8001FFFC0FFF8
FFF8000FFFC0FFF8
FFF8000FFFE0FFF8
FFF80007FFF0FFF8
FFF80003FFF0FFF8
FFF80003FFF8FFF8
FFF80001FFFCFFF8
FFF80000FFFCFFF8
FFF80000FFFEFFF8
FFF800007FFFFFF8
FFF800003FFFFFF8
FFF800003FFFFFF8
FFF800001FFFFFF8
FFF800000FFFFFF8
FFF800000FFFFFF8
FFF8000007FFFFF8
FFF8000003FFFFF8
FFF8000003FFFFF8
FFF8000001FFFFF8
FFF8000000FFFFF8
FFF8000000FFFFF8
FFF80000007FFFF8
FFF80000003FFFF8
FFF80000003FFFF8
FFF80000001FFFF8
FFF80000000FFFF8
FFF80000000FFFF8
FFF800000007FFF8
FFF800000007FFF8
FFF800000003FFF8
FFF800000001FFF8
FFF800000001FFF8
ENDCHAR
STARTCHAR 00D2
ENCODING 210
SWIDTH 748 0
DWIDTH 78 0
BBX 72 105 3 -2
BITMAP
000003FF0000000000
000001FF0000000000
000001FF8000000000
000001FF8000000000
000000FF8000000000
000000FFC000000000
0000007FC000000000
0000007FE000000000
0000003FE000000000
0000003FF000000000
0000003FF000000000
0000001FF000000000
0000001FF800000000
0000000FF800000000
0000000FFC00000000
0000000FFC00000000
00000007FC00000000
00000007FE00000000
00000003FE00000000
00000003FF00000000
000000000000000000
000000000000000000
000000000000000000
000000000000000000
000000000000000000
000000000000000000
00000007FFE0000000
0000007FFFFE000000
000003FFFFFFC00000
00001FFFFFFFF80000
00007FFFFFFFFC0000
0000FFFFFFFFFF0000
0003FFFFFFFFFFC000
0007FFFFFFFFFFE000
000FFFFFFFFFFFF000
001FFFFFFFFFFFF800
003FFFFFFFFFFFFC00
007FFFFFFFFFFFFE00
00FFFFFC003FFFFF00
00FFFFE00007FFFF80
01FFFF800001FFFF80
03FFFE0000007FFFC0
03FFFC0000003FFFC0
07FFF80000001FFFE0
07FFF00000000FFFE0
0FFFE000000007FFF0
0FFFC000000003FFF0
1FFFC000000003FFF8
1FFF8000000001FFF8
1FFF8000000001FFFC
3FFF0000000000FFFC
3FFF0000000000FFFC
3FFE00000000007FFC
7FFE00000000007FFE
7FFE00000000007FFE
7FFC00000000003FFE
7FFC00000000003FFE
7FFC00000000003FFE
7FFC00000000003FFF
FFFC00000000003FFF
FFFC00000000003FFF
FFFC00000000003FFF
FFF800000000001FFF
FFF800000000001FFF
FFF800000000001FFF
FFF800000000001FFF
FFF800000000001FFF
FFF800000000001FFF
FFF800000000003FFF
FFFC00000000003FFF
FFFC00000000003FFF
FFFC00000000003FFF
FFFC00000000003FFF
7FFC00000000003FFE
7FFC00000000003FFE
7FFC00000000003FFE
7FFE00000000007FFE
7FFE00000000007FFE
3FFE00000000007FFC
3FFF0000000000FFFC
3FFF0000000000FFFC
1FFF8000000000FFFC
1FFF8000000001FFF8
1FFFC000000003FFF8
0FFFC000000003FFF0
0FFFE000000007FFF0
07FFF00000000FFFF0
07FFF80000001FFFE0
03FFFC0000003FFFC0
03FFFE0000007FFFC0
01FFFF800001FFFF80
00FFFFE00007FFFF80
00FFFFFC003FFFFF00
007FFFFFFFFFFFFE00
003FFFFFFFFFFFFC00
001FFFFFFFFFFFF800
000FFFFFFFFFFFF000
0007FFFFFFFFFFE000
0003FFFFFFFFFFC000
0000FFFFFFFFFF0000
00003FFFFFFFFE0000
00001FFFFFFFF80000
000003FFFFFFC00000
0000007FFFFE000000
00000007FFE0000000
ENDCHAR
STARTCHAR 00D3
ENCODING 211
SWIDTH 748 0
DWIDTH 78 0
BBX 72 105 3 -2
BITMAP
0000000000FF800000
0000000001FF800000
0000000001FF000000
0000000003FF000000
0000000003FF000000
0000000003FE000000
0000000007FE000000
0000000007FC000000
000000000FFC000000
000000000FF8000000
000000000FF8000000
000000001FF8000000
000000001FF0000000
000000003FF0000000
000000003FE0000000
000000007FE0000000
000000007FE0000000
000000007FC0000000
00000000FFC0000000
00000000FF80000000
000000000000000000
000000000000000000
000000000000000000
000000000000000000
000000000000000000
000000000000000000
00000007FFE0000000
0000007FFFFE000000
000003FFFFFFC00000
00001FFFFFFFF80000
00007FFFFFFFFC0000
0000FFFFFFFFFF0000
0003FFFFFFFFFFC000
0007FFFFFFFFFFE000
000FFFFFFFFFFFF000
001FFFFFFFFFFFF800
003FFFFFFFFFFFFC00
007FFFFFFFFFFFFE00
00FFFFFC003FFFFF00
00FFFFE00007FFFF80
01FFFF800001FFFF80
03FFFE0000007FFFC0
03FFFC0000003FFFC0
07FFF80000001FFFE0
07FFF00000000FFFE0
0FFFE000000007FFF0
0FFFC000000003FFF0
1FFFC000000003FFF8
1FFF8000000001FFF8
1FFF8000000001FFFC
3FFF0000000000FFFC
3FFF0000000000FFFC
3FFE00000000007FFC
7FFE00000000007FFE
7FFE00000000007FFE
7FFC00000000003FFE
7FFC00000000003FFE
7FFC00000000003FFE
7FFC00000000003FFF
FFFC00000000003FFF
FFFC00000000003FFF
FFFC00000000003FFF
FFF800000000001FFF
FFF800000000001FFF
FFF800000000001FFF
FFF800000000001FFF
FFF800000000001FFF
FFF800000000001FFF
FFF800000000003FFF
FFFC00000000003FFF
FFFC00000000003FFF
FFFC00000000003FFF
FFFC00000000003FFF
7FFC00000000003FFE
7FFC00000000003FFE
7FFC00000000003FFE
7FFE00000000007FFE
7FFE00000000007FFE
3FFE00000000007FFC
3FFF0000000000FFFC
3FFF0000000000FFFC
1FFF8000000000FFFC
1FFF8000000001FFF8
1FFFC000000003FFF8
0FFFC000000003FFF0
0FFFE000000007FFF0
07FFF00000000FFFF0
07FFF80000001FFFE0
03FFFC0000003FFFC0
03FFFE0000007FFFC0
01FFFF800001FFFF80
00FFFFE00007FFFF80
00FFFFFC003FFFFF00
007FFFFFFFFFFFFE00
003FFFFFFFFFFFFC00
001FFFFFFFFFFFF800
000FFFFFFFFFFFF000
0007FFFFFFFFFFE000
0003FFFFFFFFFFC000
0000FFFFFFFFFF0000
00003FFFFFFFFE0000
00001FFFFFFFF80000
000003FFFFFFC00000
0000007FFFFE000000
00000007FFE0000000
ENDCHAR
STARTCHAR 00D4
ENCODING 212
SWIDTH 748 0
DWIDTH 78 0
BBX 72 102 3 -2
BITMAP
00000003FFC0000000
00000007FFC0000000
0000000FFFE0000000
0000001FFFF0000000
0000001FFFF8000000
0000003FFFFC000000
0000007FFFFE000000
000000FFFFFF000000
000001FFE7FF000000
000003FFC3FF800000
000007FF81FFC00000
000007FF01FFE00000
00000FFE00FFF00000
00001FFE007FF80000
00003FFC003FFC0000
00007FF8001FFE0000
000000000000000000
000000000000000000
000000000000000000
000000000000000000
000000000000000000
000000000000000000
000000000000000000
00000007FFE0000000
0000007FFFFE000000
000003FFFFFFC00000
00001FFFFFFFF80000
00007FFFFFFFFC0000
0000FFFFFFFFFF0000
0003FFFFFFFFFFC000
0007FFFFFFFFFFE000
000FFFFFFFFFFFF000
001FFFFFFFFFFFF800
003FFFFFFFFFFFFC00
007FFFFFFFFFFFFE00
00FFFFFC003FFFFF00
00FFFFE00007FFFF80
01FFFF800001FFFF80
03FFFE0000007FFFC0
03FFFC0000003FFFC0
07FFF80000001FFFE0
07FFF00000000FFFE0
0FFFE000000007FFF0
0FFFC000000003FFF0
1FFFC000000003FFF8
1FFF8000000001FFF8
1FFF8000000001FFFC
3FFF0000000000FFFC
3FFF0000000000FFFC
3FFE00000000007FFC
7FFE00000000007FFE
7FFE00000000007FFE
7FFC00000000003FFE
7FFC00000000003FFE
7FFC00000000003FFE
7FFC00000000003FFF
FFFC00000000003FFF
FFFC00000000003FFF
FFFC00000000003FFF
FFF800000000001FFF
FFF800000000001FFF
FFF800000000001FFF
FFF800000000001FFF
FFF800000000001FFF
FFF800000000001FFF
FFF800000000003FFF
FFFC00000000003FFF
FFFC00000000003FFF
FFFC00000000003FFF
FFFC00000000003FFF
7FFC00000000003FFE
7FFC00000000003FFE
7FFC00000000003FFE
7FFE00000000007FFE
7FFE00000000007FFE
3FFE00000000007FFC
3FFF0000000000FFFC
3FFF0000000000FFFC
1FFF8000000000FFFC
1FFF8000000001FFF8
1FFFC000000003FFF8
0FFFC000000003FFF0
0FFFE000000007FFF0
07FFF00000000FFFF0
07FFF80000001FFFE0
03FFFC0000003FFFC0
03FFFE0000007FFFC0
01FFFF800001FFFF80
00FFFFE00007FFFF80
00FFFFFC003FFFFF00
007FFFFFFFFFFFFE00
003FFFFFFFFFFFFC00
001FFFFFFFFFFFF800
000FFFFFFFFFFFF000
0007FFFFFFFFFFE000
0003FFFFFFFFFFC000
0000FFFFFFFFFF0000
00003FFFFFFFFE0000
00001FFFFFFFF80000
000003FFFFFFC00000
0000007FFFFE000000
00000007FFE0000000
ENDCHAR
STARTCHAR 00D5
ENCODING 213
SWIDTH 748 0
DWIDTH 78 0
BBX 72 102 3 -2
BITMAP
000000FE0000000000
000003FFC001FC0000
000007FFF001FE0000
00000FFFF801FE0000
00000FFFFE01FE0000
00001FFFFF03FE0000
00001FFFFFC3FE0000
00001FFFFFFFFE0000
00003FFFFFFFFE0000
00003FF1FFFFFE0000
00003FE07FFFFC0000
00003FE01FFFFC0000
00001FE00FFFF80000
00001FE003FFF00000
00001FE000FFE00000
00000000003F800000
000000000000000000
000000000000000000
000000000000000000
000000000000000000
000000000000000000
000000000000000000
000000000000000000
00000007FFE0000000
0000007FFFFE000000
000003FFFFFFC00000
00001FFFFFFFF80000
00007FFFFFFFFC0000
0000FFFFFFFFFF0000
0003FFFFFFFFFFC000
0007FFFFFFFFFFE000
000FFFFFFFFFFFF000
001FFFFFFFFFFFF800
003FFFFFFFFFFFFC00
007FFFFFFFFFFFFE00
00FFFFFC003FFFFF00
00FFFFE00007FFFF80
01FFFF800001FFFF80
03FFFE0000007FFFC0
03FFFC0000003FFFC0
07FFF80000001FFFE0
07FFF00000000FFFE0
0FFFE000000007FFF0
0FFFC000000003FFF0
1FFFC000000003FFF8
1FFF8000000001FFF8
1FFF8000000001FFFC
3FFF0000000000FFFC
3FFF0000000000FFFC
3FFE00000000007FFC
7FFE00000000007FFE
7FFE00000000007FFE
7FFC00000000003FFE
7FFC00000000003FFE
7FFC00000000003FFE
7FFC00000000003FFF
FFFC00000000003FFF
FFFC00000000003FFF
FFFC00000000003FFF
FFF800000000001FFF
FFF800000000001FFF
FFF800000000001FFF
FFF800000000001FFF
FFF800000000001FFF
FFF800000000001FFF
FFF800000000003FFF
FFFC00000000003FFF
FFFC00000000003FFF
FFFC00000000003FFF
FFFC00000000003FFF
7FFC00000000003FFE
7FFC00000000003FFE
7FFC00000000003FFE
7FFE00000000007FFE
7FFE00000000007FFE
3FFE00000000007FFC
3FFF0000000000FFFC
3FFF0000000000FFFC
1FFF8000000000FFFC
1FFF8000000001FFF8
1FFFC000000003FFF8
0FFFC000000003FFF0
0FFFE000000007FFF0
07FFF00000000FFFF0
07FFF80000001FFFE0
03FFFC0000003FFFC0
03FFFE0000007FFFC0
01FFFF800001FFFF80
00FFFFE00007FFFF80
00FFFFFC003FFFFF00
007FFFFFFFFFFFFE00
003FFFFFFFFFFFFC00
001FFFFFFFFFFFF800
000FFFFFFFFFFFF000
0007FFFFFFFFFFE000
0003FFFFFFFFFFC000
0000FFFFFFFFFF0000
00003FFFFFFFFE0000
00001FFFFFFFF80000
000003FFFFFFC00000
0000007FFFFE000000
00000007FFE0000000
ENDCHAR
STARTCHAR 00D6
ENCODING 214
SWIDTH 748 0
DWIDTH 78 0
BBX 72 97 3 -2
BITMAP
00000FFE007FF80000
00000FFE007FF80000
00000FFE007FF80000
00000FFE007FF80000
00000FFE007FF80000
00000FFE007FF80000
00000FFE007FF80000
00000FFE007FF80000
00000FFE007FF80000
00000FFE007FF80000
00000FFE007FF80000
000000000000000000
000000000000000000
000000000000000000
000000000000000000
000000000000000000
000000000000000000
000000000000000000
00000007FFE0000000
0000007FFFFE000000
000003FFFFFFC00000
00001FFFFFFFF80000
00007FFFFFFFFC0000
0000FFFFFFFFFF0000
0003FFFFFFFFFFC000
0007FFFFFFFFFFE000
000FFFFFFFFFFFF000
001FFFFFFFFFFFF800
003FFFFFFFFFFFFC00
007FFFFFFFFFFFFE00
00FFFFFC003FFFFF00
00FFFFE00007FFFF80
01FFFF800001FFFF80
03FFFE0000007FFFC0
03FFFC0000003FFFC0
07FFF80000001FFFE0
07FFF00000000FFFE0
0FFFE000000007FFF0
0FFFC000000003FFF0
1FFFC000000003FFF8
1FFF8000000001FFF8
1FFF8000000001FFFC
3FFF0000000000FFFC
3FFF0000000000FFFC
3FFE00000000007FFC
7FFE00000000007FFE
7FFE00000000007FFE
7FFC00000000003FFE
7FFC00000000003FFE
7FFC00000000003FFE
7FFC00000000003FFF
FFFC00000000003FFF
FFFC00000000003FFF
FFFC00000000003FFF
FFF800000000001FFF
FFF800000000001FFF
FFF800000000001FFF
FFF800000000001FFF
FFF800000000001FFF
FFF800000000001FFF
FFF800000000003FFF
FFFC00000000003FFF
FFFC00000000003FFF
FFFC00000000003FFF
FFFC00000000003FFF
7FFC00000000003FFE
7FFC00000000003FFE
7FFC00000000003FFE
7FFE00000000007FFE
7FFE00000000007FFE
3FFE00000000007FFC
3FFF0000000000FFFC
3FFF0000000000FFFC
1FFF8000000000FFFC
1FFF8000000001FFF8
1FFFC000000003FFF8
0FFFC000000003FFF0
0FFFE000000007FFF0
07FFF00000000FFFF0
07FFF80000001FFFE0
03FFFC0000003FFFC0
03FFFE0000007FFFC0
01FFFF800001FFFF80
00FFFFE00007FFFF80
00FFFFFC003FFFFF00
007FFFFFFFFFFFFE00
003FFFFFFFFFFFFC00
001FFFFFFFFFFFF800
000FFFFFFFFFFFF000
0007FFFFFFFFFFE000
0003FFFFFFFFFFC000
0000FFFFFFFFFF0000
00003FFFFFFFFE0000
00001FFFFFFFF80000
000003FFFFFFC00000
0000007FFFFE000000
00000007FFE0000000
ENDCHAR
STARTCHAR 00D7
ENCODING 215
SWIDTH 508 0
DWIDTH 53 0
BBX 40 40 6 18
BITMAP
0100000040
03800000E0
07C00001F0
0FE00003F8
1FF00007FC
3FF8000FFE
7FFC001FFF
7FFE003FFF
3FFF007FFE
1FFF80FFFC
0FFFC1FFF8
07FFE3FFF0
03FFF7FFE0
01FFFFFFC0
00FFFFFF80
007FFFFF00
003FFFFE00
001FFFFC00
000FFFF800
0007FFF000
0007FFF000
000FFFF800
001FFFFC00
003FFFFE00
007FFFFF00
00FFFFFF80
01FFFFFFC0
03FFF7FFE0
07FFE3FFF0
0FFFC1FFF8
1FFF80FFFC
3FFF007FFE
7FFE003FFF
FFFC001FFF
7FF8000FFE
3FF00007FC
1FE00003F8
0FC00001F0
07800000E0
0300000040
ENDCHAR
STARTCHAR 00D8
ENCODING 216
SWIDTH 748 0
DWIDTH 78 0
BBX 72 79 3 -2
BITMAP
00000007FFC0000000
0000007FFFFE000100
000003FFFFFFC00380
00001FFFFFFFF007C0
00007FFFFFFFFC0FE0
0000FFFFFFFFFE0FF8
0003FFFFFFFFFF9FFC
0007FFFFFFFFFFFFFE
000FFFFFFFFFFFFFFF
001FFFFFFFFFFFFFFF
003FFFFFFFFFFFFFFE
007FFFFFFFFFFFFFFC
00FFFFFC003FFFFFF8
00FFFFE00007FFFFF0
01FFFF800001FFFFE0
03FFFE0000007FFFE0
03FFFC0000007FFFC0
07FFF80000007FFFE0
07FFF0000000FFFFE0
0FFFE0000001FFFFF0
0FFFC0000003FFFFF0
1FFFC0000007FFFFF8
1FFF8000000FFFFFF8
1FFF8000001FFFFFF8
3FFF0000003FFFFFFC
3FFF0000007FFFFFFC
3FFE0000007FFF7FFC
7FFE000000FFFE7FFE
7FFE000001FFFC7FFE
7FFC000003FFF83FFE
7FFC000007FFF03FFE
7FFC00000FFFE03FFE
7FFC00001FFFE03FFE
FFFC00003FFFC03FFF
FFFC00003FFF803FFF
FFFC00007FFF003FFF
FFF80000FFFE001FFF
FFF80001FFFC001FFF
FFF80003FFF8001FFF
FFF80007FFF0001FFF
FFF8000FFFF0001FFF
FFF8001FFFE0001FFF
FFF8003FFFC0003FFF
FFFC003FFF80003FFF
FFFC007FFF00003FFF
FFFC00FFFE00003FFF
7FFC01FFFC00003FFF
7FFC03FFF800003FFE
7FFC07FFF800003FFE
7FFC0FFFF000003FFE
7FFE1FFFE000007FFE
7FFE1FFFC000007FFE
3FFE3FFF8000007FFC
3FFF7FFF000000FFFC
3FFFFFFE000000FFFC
3FFFFFFC000000FFFC
1FFFFFF8000001FFF8
1FFFFFF8000003FFF8
0FFFFFF0000003FFF8
0FFFFFE0000007FFF0
07FFFFC000000FFFF0
07FFFF8000001FFFE0
03FFFF0000003FFFE0
03FFFE0000007FFFC0
01FFFF800001FFFF80
03FFFFE00007FFFF80
07FFFFFC003FFFFF00
0FFFFFFFFFFFFFFE00
1FFFFFFFFFFFFFFC00
3FFFFFFFFFFFFFF800
3FFFFFFFFFFFFFF000
3FFFFFFFFFFFFFE000
1FFFFFFFFFFFFFC000
0FFC7FFFFFFFFF0000
03F83FFFFFFFFE0000
01F00FFFFFFFF80000
00E003FFFFFFC00000
0040007FFFFE000000
00000003FFE0000000
ENDCHAR
STARTCHAR 00D9
ENCODING 217
SWIDTH 720 0
DWIDTH 75 0
BBX 61 104 7 -2
BITMAP
00001FF800000000
00001FF800000000
00000FF800000000
00000FFC00000000
000007FC00000000
000007FE00000000
000007FE00000000
000003FE00000000
000003FF00000000
000001FF00000000
000001FF80000000
000000FF80000000
000000FFC0000000
000000FFC0000000
0000007FC0000000
0000007FE0000000
0000003FE0000000
0000003FF0000000
0000003FF0000000
0000000000000000
0000000000000000
0000000000000000
0000000000000000
0000000000000000
0000000000000000
0000000000000000
0000000000000000
FFF800000000FFF8
FFF800000000FFF8
FFF800000000FFF8
FFF800000000FFF8
FFF800000000FFF8
FFF800000000FFF8
FFF800000000FFF8
FFF800000000FFF8
FFF800000000FFF8
FFF800000000FFF8
FFF800000000FFF8
FFF800000000FFF8
FFF800000000FFF8
FFF800000000FFF8
FFF800000000FFF8
FFF800000000FFF8
FFF800000000FFF8
FFF800000000FFF8
FFF800000000FFF8
FFF800000000FFF8
FFF800000000FFF8
FFF800000000FFF8
FFF800000000FFF8
FFF800000000FFF8
FFF800000000FFF8
FFF800000000FFF8
FFF800000000FFF8
FFF800000000FFF8
FFF800000000FFF8
FFF800000000FFF8
FFF800000000FFF8
FFF800000000FFF8
FFF800000000FFF8
FFF800000000FFF8
FFF800000000FFF8
FFF800000000FFF8
FFF800000000FFF8
FFF800000000FFF8
FFF800000000FFF8
FFF800000000FFF8
FFF800000000FFF8
FFF800000000FFF8
FFF800000000FFF8
FFF800000000FFF8
FFF800000000FFF8
FFF800000000FFF8
FFF800000000FFF8
FFF800000000FFF8
FFF800000000FFF8
FFF800000000FFF8
FFF800000000FFF8
FFF800000000FFF0
7FFC00000001FFF0
7FFC00000001FFF0
7FFC00000001FFF0
7FFE00000003FFF0
7FFE00000003FFF0
3FFF00000007FFE0
3FFF8000000FFFE0
3FFF8000000FFFE0
1FFFC000001FFFC0
1FFFF000007FFFC0
0FFFF80000FFFF80
0FFFFE0003FFFF80
07FFFF801FFFFF00
03FFFFFFFFFFFE00
03FFFFFFFFFFFE00
01FFFFFFFFFFFC00
00FFFFFFFFFFF800
007FFFFFFFFFF000
003FFFFFFFFFE000
000FFFFFFFFF8000
0007FFFFFFFF0000
0001FFFFFFFC0000
00007FFFFFF00000
00000FFFFF800000
000000FFF8000000
ENDCHAR
STARTCHAR 00DA
ENCODING 218
SWIDTH 720 0
DWIDTH 75 0
BBX 61 104 7 -2
BITMAP
000000007FE00000
000000007FC00000
00000000FFC00000
00000000FF800000
00000001FF800000
00000001FF800000
00000001FF000000
00000003FF000000
00000003FE000000
00000007FE000000
00000007FE000000
00000007FC000000
0000000FFC000000
0000000FF8000000
0000001FF8000000
0000001FF0000000
0000003FF0000000
0000003FF0000000
0000003FE0000000
0000000000000000
0000000000000000
0000000000000000
0000000000000000
0000000000000000
0000000000000000
0000000000000000
0000000000000000
FFF800000000FFF8
FFF800000000FFF8
FFF800000000FFF8
FFF800000000FFF8
FFF800000000FFF8
FFF800000000FFF8
FFF800000000FFF8
FFF800000000FFF8
FFF800000000FFF8
FFF800000000FFF8
FFF800000000FFF8
FFF800000000FFF8
FFF800000000FFF8
FFF800000000FFF8
FFF800000000FFF8
FFF800000000FFF8
FFF800000000FFF8
FFF800000000FFF8
FFF800000000FFF8
FFF800000000FFF8
FFF800000000FFF8
FFF800000000FFF8
FFF800000000FFF8
FFF800000000FFF8
FFF800000000FFF8
FFF800000000FFF8
FFF800000000FFF8
FFF800000000FFF8
FFF800000000FFF8
FFF800000000FFF8
FFF800000000FFF8
FFF800000000FFF8
FFF800000000FFF8
FFF800000000FFF8
FFF800000000FFF8
FFF800000000FFF8
FFF800000000FFF8
FFF800000000FFF8
FFF800000000FFF8
FFF800000000FFF8
FFF800000000FFF8
FFF800000000FFF8
FFF800000000FFF8
FFF800000000FFF8
FFF800000000FFF8
FFF800000000FFF8
FFF800000000FFF8
FFF800000000FFF8
FFF800000000FFF8
FFF800000000FFF8
FFF800000000FFF8
FFF800000000FFF0
7FFC00000001FFF0
7FFC00000001FFF0
7FFC00000001FFF0
7FFE00000003FFF0
7FFE00000003FFF0
3FFF00000007FFE0
3FFF8000000FFFE0
3FFF8000000FFFE0
1FFFC000001FFFC0
1FFFF000007FFFC0
0FFFF80000FFFF80
0FFFFE0003FFFF80
07FFFF801FFFFF00
03FFFFFFFFFFFE00
03FFFFFFFFFFFE00
01FFFFFFFFFFFC00
00FFFFFFFFFFF800
007FFFFFFFFFF000
003FFFFFFFFFE000
000FFFFFFFFF8000
0007FFFFFFFF0000
0001FFFFFFFC0000
00007FFFFFF00000
00000FFFFF800000
000000FFF8000000
ENDCHAR
STARTCHAR 00DB
ENCODING 219
SWIDTH 720 0
DWIDTH 75 0
BBX 61 101 7 -2
BITMAP
000000FFF0000000
000001FFF8000000
000003FFFC000000
000003FFFE000000
000007FFFF000000
00000FFFFF800000
00001FFFFFC00000
00003FFDFFC00000
00007FF8FFE00000
0000FFF07FF00000
0000FFE07FF80000
0001FFC03FFC0000
0003FF801FFE0000
0007FF800FFF0000
000FFF0007FF8000
001FFE0003FF8000
0000000000000000
0000000000000000
0000000000000000
0000000000000000
0000000000000000
0000000000000000
0000000000000000
0000000000000000
FFF800000000FFF8
FFF800000000FFF8
FFF800000000FFF8
FFF800000000FFF8
FFF800000000FFF8
FFF800000000FFF8
FFF800000000FFF8
FFF800000000FFF8
FFF800000000FFF8
FFF800000000FFF8
FFF800000000FFF8
FFF800000000FFF8
FFF800000000FFF8
FFF800000000FFF8
FFF800000000FFF8
FFF800000000FFF8
FFF800000000FFF8
FFF800000000FFF8
FFF800000000FFF8
FFF800000000FFF8
FFF800000000FFF8
FFF800000000FFF8
FFF800000000FFF8
FFF800000000FFF8
FFF800000000FFF8
FFF800000000FFF8
FFF800000000FFF8
FFF800000000FFF8
FFF800000000FFF8
FFF800000000FFF8
FFF800000000FFF8
FFF800000000FFF8
FFF800000000FFF8
FFF800000000FFF8
FFF800000000FFF8
FFF800000000FFF8
FFF800000000FFF8
FFF800000000FFF8
FFF800000000FFF8
FFF800000000FFF8
FFF800000000FFF8
FFF800000000FFF8
FFF800000000FFF8
FFF800000000FFF8
FFF800000000FFF8
FFF800000000FFF8
FFF800000000FFF8
FFF800000000FFF8
FFF800000000FFF8
FFF800000000FFF8
FFF800000000FFF8
FFF800000000FFF0
7FFC00000001FFF0
7FFC00000001FFF0
7FFC00000001FFF0
7FFE00000003FFF0
7FFE00000003FFF0
3FFF00000007FFE0
3FFF8000000FFFE0
3FFF8000000FFFE0
1FFFC000001FFFC0
1FFFF000007FFFC0
0FFFF80000FFFF80
0FFFFE0003FFFF80
07FFFF801FFFFF00
03FFFFFFFFFFFE00
03FFFFFFFFFFFE00
01FFFFFFFFFFFC00
00FFFFFFFFFFF800
007FFFFFFFFFF000
003FFFFFFFFFE000
000FFFFFFFFF8000
0007FFFFFFFF0000
0001FFFFFFFC0000
00007FFFFFF00000
00000FFFFF800000
000000FFF8000000
ENDCHAR
STARTCHAR 00DC
ENCODING 220
SWIDTH 720 0
DWIDTH 75 0
BBX 61 97 7 -2
BITMAP
0003FF801FFE0000
0003FF801FFE0000
0003FF801FFE0000
0003FF801FFE0000
0003FF801FFE0000
0003FF801FFE0000
0003FF801FFE0000
0003FF801FFE0000
0003FF801FFE0000
0003FF801FFE0000
0003FF801FFE0000
0000000000000000
0000000000000000
0000000000000000
0000000000000000
0000000000000000
0000000000000000
0000000000000000
0000000000000000
0000000000000000
FFF800000000FFF8
FFF800000000FFF8
FFF800000000FFF8
FFF800000000FFF8
FFF800000000FFF8
FFF800000000FFF8
FFF800000000FFF8
FFF800000000FFF8
FFF800000000FFF8
FFF800000000FFF8
FFF800000000FFF8
FFF800000000FFF8
FFF800000000FFF8
FFF800000000FFF8
FFF800000000FFF8
FFF800000000FFF8
FFF800000000FFF8
FFF800000000FFF8
FFF800000000FFF8
FFF800000000FFF8
FFF800000000FFF8
FFF800000000FFF8
FFF800000000FFF8
FFF800000000FFF8
FFF800000000FFF8
FFF800000000FFF8
FFF800000000FFF8
FFF800000000FFF8
FFF800000000FFF8
FFF800000000FFF8
FFF800000000FFF8
FFF800000000FFF8
FFF800000000FFF8
FFF800000000FFF8
FFF800000000FFF8
FFF800000000FFF8
FFF800000000FFF8
FFF800000000FFF8
FFF800000000FFF8
FFF800000000FFF8
FFF800000000FFF8
FFF800000000FFF8
FFF800000000FFF8
FFF800000000FFF8
FFF800000000FFF8
FFF800000000FFF8
FFF800000000FFF8
FFF800000000FFF8
FFF800000000FFF8
FFF800000000FFF8
FFF800000000FFF8
FFF800000000FFF0
7FFC00000001FFF0
7FFC00000001FFF0
7FFC00000001FFF0
7FFE00000003FFF0
7FFE00000003FFF0
3FFF00000007FFE0
3FFF8000000FFFE0
3FFF8000000FFFE0
1FFFC000001FFFC0
1FFFF000007FFFC0
0FFFF80000FFFF80
0FFFFE0003FFFF80
07FFFF801FFFFF00
03FFFFFFFFFFFE00
03FFFFFFFFFFFE00
01FFFFFFFFFFFC00
00FFFFFFFFFFF800
007FFFFFFFFFF000
003FFFFFFFFFE000
000FFFFFFFFF8000
0007FFFFFFFF0000
0001FFFFFFFC0000
00007FFFFFF00000
00000FFFFF800000
000000FFF8000000
ENDCHAR
STARTCHAR 00DD
ENCODING 221
SWIDTH 614 0
DWIDTH 64 0
BBX 63 102 0 0
BITMAP
000000003FF00000
000000003FF00000
000000003FE00000
000000007FE00000
000000007FC00000
00000000FFC00000
00000000FFC00000
00000000FF800000
00000001FF800000
00000001FF000000
00000003FF000000
00000003FE000000
00000007FE000000
00000007FE000000
00000007FC000000
0000000FFC000000
0000000FF8000000
0000001FF8000000
0000001FF8000000
0000000000000000
0000000000000000
0000000000000000
0000000000000000
0000000000000000
0000000000000000
0000000000000000
0000000000000000
FFFE000000007FFE
7FFF00000000FFFE
7FFF00000000FFFC
3FFF80000001FFFC
1FFF80000003FFF8
1FFFC0000003FFF8
0FFFC0000007FFF0
0FFFE0000007FFE0
07FFF000000FFFE0
07FFF000000FFFC0
03FFF800001FFFC0
01FFF800003FFF80
01FFFC00003FFF80
00FFFC00007FFF00
00FFFE00007FFE00
007FFF0000FFFE00
007FFF0000FFFC00
003FFF8001FFFC00
001FFF8003FFF800
001FFFC003FFF000
000FFFC007FFF000
000FFFE007FFE000
0007FFF00FFFE000
0003FFF00FFFC000
0003FFF81FFFC000
0001FFF83FFF8000
0001FFFC3FFF0000
0000FFFE7FFF0000
0000FFFE7FFE0000
00007FFFFFFE0000
00003FFFFFFC0000
00003FFFFFFC0000
00001FFFFFF80000
00001FFFFFF00000
00000FFFFFF00000
00000FFFFFE00000
000007FFFFE00000
000003FFFFC00000
000003FFFFC00000
000001FFFF800000
000001FFFF000000
000000FFFF000000
000000FFFE000000
0000007FFE000000
0000003FFC000000
0000003FFC000000
0000003FFC000000
0000003FFC000000
0000003FFC000000
0000003FFC000000
0000003FFC000000
0000003FFC000000
0000003FFC000000
0000003FFC000000
0000003FFC000000
0000003FFC000000
0000003FFC000000
0000003FFC000000
0000003FFC000000
0000003FFC000000
0000003FFC000000
0000003FFC000000
0000003FFC000000
0000003FFC000000
0000003FFC000000
0000003FFC000000
0000003FFC000000
0000003FFC000000
0000003FFC000000
0000003FFC000000
0000003FFC000000
0000003FFC000000
0000003FFC000000
0000003FFC000000
0000003FFC000000
ENDCHAR
STARTCHAR 00DE
ENCODING 222
SWIDTH 633 0
DWIDTH 66 0
BBX 56 75 7 0
BITMAP
FFF80000000000
FFF80000000000
FFF80000000000
FFF80000000000
FFF80000000000
FFF80000000000
FFF80000000000
FFF80000000000
FFF80000000000
FFF80000000000
FFF80000000000
FFF80000000000
FFF80000000000
FFFFFFFFE00000
FFFFFFFFFE0000
FFFFFFFFFF8000
FFFFFFFFFFE000
FFFFFFFFFFF800
FFFFFFFFFFFC00
FFFFFFFFFFFE00
FFFFFFFFFFFF00
FFFFFFFFFFFF80
FFFFFFFFFFFFC0
FFFFFFFFFFFFE0
FFFFFFFFFFFFF0
FFF800003FFFF0
FFF800000FFFF8
FFF8000003FFF8
FFF8000001FFFC
FFF8000000FFFC
FFF80000007FFC
FFF80000007FFE
FFF80000003FFE
FFF80000003FFE
FFF80000003FFE
FFF80000003FFE
FFF80000001FFE
FFF80000001FFF
FFF80000001FFE
FFF80000001FFE
FFF80000003FFE
FFF80000003FFE
FFF80000003FFE
FFF80000007FFE
FFF80000007FFC
FFF8000000FFFC
FFF8000001FFFC
FFF8000003FFF8
FFF800000FFFF8
FFF800003FFFF0
FFFFFFFFFFFFF0
FFFFFFFFFFFFE0
FFFFFFFFFFFFC0
FFFFFFFFFFFF80
FFFFFFFFFFFF00
FFFFFFFFFFFE00
FFFFFFFFFFFC00
FFFFFFFFFFF800
FFFFFFFFFFE000
FFFFFFFFFF8000
FFFFFFFFFE0000
FFFFFFFFE00000
FFF80000000000
FFF80000000000
FFF80000000000
FFF80000000000
FFF80000000000
FFF80000000000
FFF80000000000
FFF80000000000
FFF80000000000
FFF80000000000
FFF80000000000
FFF80000000000
FFF80000000000
ENDCHAR
STARTCHAR 00DF
ENCODING 223
SWIDTH 633 0
DWIDTH 66 0
BBX 53 79 7 -2
BITMAP
00007FF8000000
0003FFFF000000
001FFFFFE00000
007FFFFFF80000
00FFFFFFFC0000
01FFFFFFFE0000
03FFFFFFFF0000
07FFFFFFFF8000
0FFFFFFFFFC000
1FFFFFFFFFE000
1FFFFFFFFFF000
3FFFFFFFFFF000
3FFFE00FFFF800
7FFF8003FFF800
7FFF0001FFFC00
7FFE0000FFFC00
7FFE00007FFC00
FFFC00007FFC00
FFFC00003FFC00
FFF800003FFE00
FFF800003FFE00
FFF800003FFE00
FFF800003FFE00
FFF800003FFE00
FFF800003FFC00
FFF800007FFC00
FFF800007FFC00
FFF80000FFFC00
FFF80000FFFC00
FFF80001FFF800
FFF80007FFF800
FFF8003FFFF000
FFF801FFFFF000
FFF801FFFFE000
FFF801FFFFC000
FFF801FFFF8000
FFF801FFFFC000
FFF801FFFFF000
FFF801FFFFF800
FFF801FFFFFC00
FFF801FFFFFE00
FFF801FFFFFF00
FFF801FFFFFF80
FFF80007FFFFC0
FFF800007FFFC0
FFF800001FFFE0
FFF800000FFFE0
FFF8000007FFE0
FFF8000003FFF0
FFF8000001FFF0
FFF8000001FFF0
FFF8000000FFF0
FFF8000000FFF8
FFF8000000FFF8
FFF8000000FFF8
FFF8000000FFF8
FFF8000000FFF8
FFF8000000FFF8
FFF8000000FFF8
FFF8000000FFF8
FFF8000001FFF0
FFF8000001FFF0
FFF8000003FFF0
FFF8000007FFF0
FFF800000FFFE0
FFF810003FFFE0
FFF81F83FFFFE0
FFF81FFFFFFFC0
FFF81FFFFFFFC0
FFF81FFFFFFF80
FFF81FFFFFFF00
FFF81FFFFFFF00
FFF81FFFFFFE00
FFF81FFFFFFC00
FFF81FFFFFF800
FFF81FFFFFE000
FFF81FFFFF8000
00000FFFFE0000
000001FFE00000
ENDCHAR
STARTCHAR 00E0
ENCODING 224
SWIDTH 576 0
DWIDTH 60 0
BBX 50 86 4 -2
BITMAP
0003FF00000000
0001FF00000000
0001FF80000000
0001FF80000000
0000FF80000000
0000FFC0000000
00007FC0000000
00007FE0000000
00007FE0000000
00003FE0000000
00003FF0000000
00001FF0000000
00001FF8000000
00000FF8000000
00000FF8000000
00000FFC000000
000007FC000000
000007FE000000
000003FE000000
00000000000000
00000000000000
00000000000000
00000000000000
00000000000000
00000000000000
00000000000000
00000FFF000000
0000FFFFF80000
0007FFFFFE0000
001FFFFFFF8000
003FFFFFFFE000
007FFFFFFFF000
00FFFFFFFFF800
01FFFFFFFFFC00
03FFFFFFFFFC00
07FFFFFFFFFE00
0FFFFFFFFFFF00
0FFFFFFFFFFF00
1FFFF800FFFF00
1FFFE0003FFF80
1FFF80001FFF80
3FFF00000FFF80
0FFE00000FFF80
01FE000007FF80
003C000007FFC0
0004000007FFC0
0000000007FFC0
0000000007FFC0
00000001FFFFC0
0000007FFFFFC0
00000FFFFFFFC0
0001FFFFFFFFC0
000FFFFFFFFFC0
003FFFFFFFFFC0
00FFFFFFFFFFC0
03FFFFFFFFFFC0
07FFFFFFFFFFC0
0FFFFFFFFFFFC0
1FFFFFFFC7FFC0
1FFFFFF007FFC0
3FFFFE0007FFC0
3FFFE00007FFC0
7FFF800007FFC0
7FFE000007FFC0
7FFC000007FFC0
FFF800000FFFC0
FFF800000FFFC0
FFF800000FFFC0
FFF000001FFFC0
FFF000001FFFC0
FFF800003FFFC0
FFF800007FFFC0
FFF80000FFFFC0
7FFC0003FFFFC0
7FFE0007FFFFC0
7FFFC03FFFFFC0
3FFFFFFFFFFFC0
3FFFFFFFFDFFC0
1FFFFFFFF9FFC0
0FFFFFFFF9FFC0
0FFFFFFFE1FFC0
03FFFFFFC1FFC0
01FFFFFF81FFC0
00FFFFFE01FFC0
001FFFF8000000
0003FF80000000
ENDCHAR
STARTCHAR 00E1
ENCODING 225
SWIDTH 576 0
DWIDTH 60 0
BBX 50 86 4 -2
BITMAP
00000003FF0000
00000003FE0000
00000007FE0000
00000007FC0000
0000000FFC0000
0000000FFC0000
0000000FF80000
0000001FF80000
0000001FF00000
0000003FF00000
0000003FE00000
0000007FE00000
0000007FE00000
0000007FC00000
000000FFC00000
000000FF800000
000001FF800000
000001FF800000
000001FF000000
00000000000000
00000000000000
00000000000000
00000000000000
00000000000000
00000000000000
00000000000000
00000FFF000000
0000FFFFF80000
0007FFFFFE0000
001FFFFFFF8000
003FFFFFFFE000
007FFFFFFFF000
00FFFFFFFFF800
01FFFFFFFFFC00
03FFFFFFFFFC00
07FFFFFFFFFE00
0FFFFFFFFFFF00
0FFFFFFFFFFF00
1FFFF800FFFF00
1FFFE0003FFF80
1FFF80001FFF80
3FFF00000FFF80
0FFE00000FFF80
01FE000007FF80
003C000007FFC0
0004000007FFC0
0000000007FFC0
0000000007FFC0
00000001FFFFC0
0000007FFFFFC0
00000FFFFFFFC0
0001FFFFFFFFC0
000FFFFFFFFFC0
003FFFFFFFFFC0
00FFFFFFFFFFC0
03FFFFFFFFFFC0
07FFFFFFFFFFC0
0FFFFFFFFFFFC0
1FFFFFFFC7FFC0
1FFFFFF007FFC0
3FFFFE0007FFC0
3FFFE00007FFC0
7FFF800007FFC0
7FFE000007FFC0
7FFC000007FFC0
FFF800000FFFC0
FFF800000FFFC0
FFF800000FFFC0
FFF000001FFFC0
FFF000001FFFC0
FFF800003FFFC0
FFF800007FFFC0
FFF80000FFFFC0
7FFC0003FFFFC0
7FFE0007FFFFC0
7FFFC03FFFFFC0
3FFFFFFFFFFFC0
3FFFFFFFFDFFC0
1FFFFFFFF9FFC0
0FFFFFFFF9FFC0
0FFFFFFFE1FFC0
03FFFFFFC1FFC0
01FFFFFF81FFC0
00FFFFFE01FFC0
001FFFF8000000
0003FF80000000
ENDCHAR
STARTCHAR 00E2
ENCODING 226
SWIDTH 576 0
DWIDTH 60 0
BBX 50 83 4 -2
BITMAP
000007FF000000
00000FFF800000
00001FFFC00000
00003FFFE00000
00007FFFF00000
00007FFFF80000
0000FFFFFC0000
0001FFDFFC0000
0003FFCFFE0000
0007FF87FF0000
000FFF03FF8000
001FFE03FFC000
001FFC01FFE000
003FF800FFF000
007FF8007FF800
00FFF0003FF800
00000000000400
00000000000000
00000000000000
00000000000000
00000000000000
00000000000000
00000000000000
00000FFF000000
0000FFFFF80000
0007FFFFFE0000
001FFFFFFF8000
003FFFFFFFE000
007FFFFFFFF000
00FFFFFFFFF800
01FFFFFFFFFC00
03FFFFFFFFFC00
07FFFFFFFFFE00
0FFFFFFFFFFF00
0FFFFFFFFFFF00
1FFFF800FFFF00
1FFFE0003FFF80
1FFF80001FFF80
3FFF00000FFF80
0FFE00000FFF80
01FE000007FF80
003C000007FFC0
0004000007FFC0
0000000007FFC0
0000000007FFC0
00000001FFFFC0
0000007FFFFFC0
00000FFFFFFFC0
0001FFFFFFFFC0
000FFFFFFFFFC0
003FFFFFFFFFC0
00FFFFFFFFFFC0
03FFFFFFFFFFC0
07FFFFFFFFFFC0
0FFFFFFFFFFFC0
1FFFFFFFC7FFC0
1FFFFFF007FFC0
3FFFFE0007FFC0
3FFFE00007FFC0
7FFF800007FFC0
7FFE000007FFC0
7FFC000007FFC0
FFF800000FFFC0
FFF800000FFFC0
FFF800000FFFC0
FFF000001FFFC0
FFF000001FFFC0
FFF800003FFFC0
FFF800007FFFC0
FFF80000FFFFC0
7FFC0003FFFFC0
7FFE0007FFFFC0
7FFFC03FFFFFC0
3FFFFFFFFFFFC0
3FFFFFFFFDFFC0
1FFFFFFFF9FFC0
0FFFFFFFF9FFC0
0FFFFFFFE1FFC0
03FFFFFFC1FFC0
01FFFFFF81FFC0
00FFFFFE01FFC0
001FFFF8000000
0003FF80000000
ENDCHAR
STARTCHAR 00E3
ENCODING 227
SWIDTH 576 0
DWIDTH 60 0
BBX 50 83 4 -2
BITMAP
0001FC00000000
0007FF8003F800
000FFFE003FC00
001FFFF003FC00
001FFFFC03FC00
003FFFFE07FC00
003FFFFF87FC00
003FFFFFFFFC00
007FFFFFFFFC00
007FE3FFFFFC00
007FC0FFFFF800
007FC03FFFF800
003FC01FFFF000
003FC007FFE000
003FC001FFC000
000000007F0000
00000000000000
00000000000000
00000000000000
00000000000000
00000000000000
00000000000000
00000000000000
00000FFF000000
0000FFFFF80000
0007FFFFFE0000
001FFFFFFF8000
003FFFFFFFE000
007FFFFFFFF000
00FFFFFFFFF800
01FFFFFFFFFC00
03FFFFFFFFFC00
07FFFFFFFFFE00
0FFFFFFFFFFF00
0FFFFFFFFFFF00
1FFFF800FFFF00
1FFFE0003FFF80
1FFF80001FFF80
3FFF00000FFF80
0FFE00000FFF80
01FE000007FF80
003C000007FFC0
0004000007FFC0
0000000007FFC0
0000000007FFC0
00000001FFFFC0
0000007FFFFFC0
00000FFFFFFFC0
0001FFFFFFFFC0
000FFFFFFFFFC0
003FFFFFFFFFC0
00FFFFFFFFFFC0
03FFFFFFFFFFC0
07FFFFFFFFFFC0
0FFFFFFFFFFFC0
1FFFFFFFC7FFC0
1FFFFFF007FFC0
3FFFFE0007FFC0
3FFFE00007FFC0
7FFF800007FFC0
7FFE000007FFC0
7FFC000007FFC0
FFF800000FFFC0
FFF800000FFFC0
FFF800000FFFC0
FFF000001FFFC0
FFF000001FFFC0
FFF800003FFFC0
FFF800007FFFC0
FFF80000FFFFC0
7FFC0003FFFFC0
7FFE0007FFFFC0
7FFFC03FFFFFC0
3FFFFFFFFFFFC0
3FFFFFFFFDFFC0
1FFFFFFFF9FFC0
0FFFFFFFF9FFC0
0FFFFFFFE1FFC0
03FFFFFFC1FFC0
01FFFFFF81FFC0
00FFFFFE01FFC0
001FFFF8000000
0003FF80000000
ENDCHAR
STARTCHAR 00E4
ENCODING 228
SWIDTH 576 0
DWIDTH 60 0
BBX 50 78 4 -2
BITMAP
003FFC00FFE000
003FFC00FFE000
003FFC00FFE000
003FFC00FFE000
003FFC00FFE000
003FFC00FFE000
003FFC00FFE000
003FFC00FFE000
003FFC00FFE000
003FFC00FFE000
003FFC00FFE000
00000000000000
00000000000000
00000000000000
00000000000000
00000000000000
00000000000000
00000000000000
00000FFF000000
0000FFFFF80000
0007FFFFFE0000
001FFFFFFF8000
003FFFFFFFE000
007FFFFFFFF000
00FFFFFFFFF800
01FFFFFFFFFC00
03FFFFFFFFFC00
07FFFFFFFFFE00
0FFFFFFFFFFF00
0FFFFFFFFFFF00
1FFFF800FFFF00
1FFFE0003FFF80
1FFF80001FFF80
3FFF00000FFF80
0FFE00000FFF80
01FE000007FF80
003C000007FFC0
0004000007FFC0
0000000007FFC0
0000000007FFC0
00000001FFFFC0
0000007FFFFFC0
00000FFFFFFFC0
0001FFFFFFFFC0
000FFFFFFFFFC0
003FFFFFFFFFC0
00FFFFFFFFFFC0
03FFFFFFFFFFC0
07FFFFFFFFFFC0
0FFFFFFFFFFFC0
1FFFFFFFC7FFC0
1FFFFFF007FFC0
3FFFFE0007FFC0
3FFFE00007FFC0
7FFF800007FFC0
7FFE000007FFC0
7FFC000007FFC0
FFF800000FFFC0
FFF800000FFFC0
FFF800000FFFC0
FFF000001FFFC0
FFF000001FFFC0
FFF800003FFFC0
FFF800007FFFC0
FFF80000FFFFC0
7FFC0003FFFFC0
7FFE0007FFFFC0
7FFFC03FFFFFC0
3FFFFFFFFFFFC0
3FFFFFFFFDFFC0
1FFFFFFFF9FFC0
0FFFFFFFF9FFC0
0FFFFFFFE1FFC0
03FFFFFFC1FFC0
01FFFFFF81FFC0
00FFFFFE01FFC0
001FFFF8000000
0003FF80000000
ENDCHAR
STARTCHAR 00E5
ENCODING 229
SWIDTH 576 0
DWIDTH 60 0
BBX 50 91 4 -2
BITMAP
000001FC000000
000007FF800000
00001FFFE00000
00003FFFF00000
00007FFFF80000
0000FFFFFC0000
0001FFFFFC0000
0001FFFFFE0000
0003FF03FE0000
0003FE01FF0000
0003FC00FF0000
0007F800FF0000
0007F800FF0000
0007F800FF0000
0007F800FF0000
0007F800FF0000
0003FC01FF0000
0003FE01FE0000
0003FF07FE0000
0001FFFFFE0000
0001FFFFFC0000
0000FFFFF80000
00007FFFF00000
00003FFFE00000
00001FFFC00000
000007FF000000
000000F0000000
00000000000000
00000000000000
00000000000000
00000000000000
00000FFF000000
0000FFFFF80000
0007FFFFFE0000
001FFFFFFF8000
003FFFFFFFE000
007FFFFFFFF000
00FFFFFFFFF800
01FFFFFFFFFC00
03FFFFFFFFFC00
07FFFFFFFFFE00
0FFFFFFFFFFF00
0FFFFFFFFFFF00
1FFFF800FFFF00
1FFFE0003FFF80
1FFF80001FFF80
3FFF00000FFF80
0FFE00000FFF80
01FE000007FF80
003C000007FFC0
0004000007FFC0
0000000007FFC0
0000000007FFC0
00000001FFFFC0
0000007FFFFFC0
00000FFFFFFFC0
0001FFFFFFFFC0
000FFFFFFFFFC0
003FFFFFFFFFC0
00FFFFFFFFFFC0
03FFFFFFFFFFC0
07FFFFFFFFFFC0
0FFFFFFFFFFFC0
1FFFFFFFC7FFC0
1FFFFFF007FFC0
3FFFFE0007FFC0
3FFFE00007FFC0
7FFF800007FFC0
7FFE000007FFC0
7FFC000007FFC0
FFF800000FFFC0
FFF800000FFFC0
FFF800000FFFC0
FFF000001FFFC0
FFF000001FFFC0
FFF800003FFFC0
FFF800007FFFC0
FFF80000FFFFC0
7FFC0003FFFFC0
7FFE0007FFFFC0
7FFFC03FFFFFC0
3FFFFFFFFFFFC0
3FFFFFFFFDFFC0
1FFFFFFFF9FFC0
0FFFFFFFF9FFC0
0FFFFFFFE1FFC0
03FFFFFFC1FFC0
01FFFFFF81FFC0
00FFFFFE01FFC0
001FFFF8000000
0003FF80000000
ENDCHAR
STARTCHAR 00E6
ENCODING 230
SWIDTH 940 0
DWIDTH 98 0
BBX 89 60 4 -2
BITMAP
000007FF0000001FFC000000
00007FFFF00001FFFF800000
0001FFFFFE0007FFFFF00000
0007FFFFFF801FFFFFF80000
001FFFFFFFC07FFFFFFE0000
003FFFFFFFE0FFFFFFFF0000
007FFFFFFFF1FFFFFFFF8000
00FFFFFFFFFBFFFFFFFFC000
01FFFFFFFFFFFFFFFFFFE000
03FFFFFFFFFFFFFFFFFFF000
07FFFFFFFFFFFFFFFFFFF000
0FFFFFFFFFFFFFF00FFFF800
0FFFF001FFFFFFC001FFF800
1FFFC0007FFFFF00007FFC00
1FFF80003FFFFE00003FFC00
3FFF00001FFFFC00003FFE00
0FFE00000FFFFC00001FFE00
01FE00000FFFF800001FFE00
003C000007FFF800000FFF00
0004000007FFF000000FFF00
0000000007FFF000000FFF00
0000000007FFF0000007FF00
0000000007FFE0000007FF80
0000000007FFE0000007FF80
00000000FFFFFFFFFFFFFF80
000001FFFFFFFFFFFFFFFF80
00007FFFFFFFFFFFFFFFFF80
0007FFFFFFFFFFFFFFFFFF80
001FFFFFFFFFFFFFFFFFFF80
007FFFFFFFFFFFFFFFFFFF80
01FFFFFFFFFFFFFFFFFFFF80
07FFFFFFFFFFFFFFFFFFFF80
0FFFFFFFFFFFFFFFFFFFFF80
1FFFFFFC07FFFFFFFFFFFF80
1FFFFE0007FFE00000000000
3FFFE00007FFE00000000000
3FFF800007FFE00000000000
7FFE000007FFE00000000000
7FFC000007FFF00000000000
7FF8000007FFF00000000000
FFF800000FFFF00000040000
FFF800000FFFF800000F8000
FFF000001FFFF800000FF000
FFF000001FFFFC00001FFE00
FFF800003FFFFE00003FFF00
FFF800007FFFFF00007FFF00
FFF80000FFFFFF8001FFFE00
7FFC0003FFFFFFF007FFFE00
7FFE0007FFDFFFFFFFFFFC00
7FFFC03FFFDFFFFFFFFFFC00
3FFFFFFFFF8FFFFFFFFFF800
3FFFFFFFFF07FFFFFFFFF000
1FFFFFFFFE03FFFFFFFFE000
1FFFFFFFFC01FFFFFFFFC000
0FFFFFFFF800FFFFFFFF8000
07FFFFFFF0003FFFFFFF0000
01FFFFFFC0001FFFFFFC0000
00FFFFFF000007FFFFF00000
003FFFFC000001FFFFC00000
0003FFC00000000FFC000000
ENDCHAR
STARTCHAR 00E7
ENCODING 231
SWIDTH 576 0
DWIDTH 60 0
BBX 53 83 4 -25
BITMAP
000003FFC00000
00003FFFFC0000
0000FFFFFF0000
0003FFFFFFC000
000FFFFFFFF000
001FFFFFFFF800
007FFFFFFFFC00
00FFFFFFFFFE00
00FFFFFFFFFF00
01FFFFFFFFFF80
03FFFFFFFFFFC0
07FFFFFFFFFFC0
07FFFE00FFFFE0
0FFFF8003FFFE0
1FFFE0000FFFF0
1FFFC00007FFF0
1FFF800003FFF0
3FFF000003FFF8
3FFF000001FFE0
3FFE000000FE00
7FFE000000E000
7FFE0000000000
7FFC0000000000
7FFC0000000000
FFFC0000000000
FFFC0000000000
FFFC0000000000
FFFC0000000000
FFF80000000000
FFF80000000000
FFF80000000000
FFF80000000000
FFFC0000000000
FFFC0000000000
FFFC0000000000
7FFC0000000000
7FFC0000000000
7FFE0000000000
7FFE0000000000
7FFE000000F000
3FFF000001FF00
3FFF000001FFF8
3FFF800003FFF0
1FFFC00007FFF0
1FFFE0000FFFF0
0FFFF0001FFFE0
0FFFFC007FFFE0
07FFFFFFFFFFC0
03FFFFFFFFFFC0
03FFFFFFFFFF80
01FFFFFFFFFF00
00FFFFFFFFFE00
007FFFFFFFFC00
003FFFFFFFF800
000FFFFFFFF000
0007FFFFFFC000
0001FFFFFF8000
00007FFFFC0000
000007FFE00000
000000FE000000
000001FE000000
000001FE000000
000001FE000000
000003FF800000
000003FFC00000
000003FFE00000
000007FFE00000
000001FFF00000
0000003FF00000
0000001FF80000
0000000FF80000
0000000FF80000
0000000FF80000
0000001FF80000
000007FFF80000
000007FFF00000
00000FFFF00000
00000FFFE00000
00000FFFE00000
00001FFFC00000
00001FFF800000
00001FFE000000
000003F8000000
ENDCHAR
STARTCHAR 00E8
ENCODING 232
SWIDTH 604 0
DWIDTH 63 0
BBX 54 86 4 -2
BITMAP
0000FF80000000
0000FFC0000000
0000FFC0000000
00007FC0000000
00007FE0000000
00003FE0000000
00003FF0000000
00003FF0000000
00001FF0000000
00001FF8000000
00000FF8000000
00000FFC000000
000007FC000000
000007FE000000
000007FE000000
000003FE000000
000003FF000000
000001FF000000
000001FF800000
000001FF800000
00000000000000
00000000000000
00000000000000
00000000000000
00000000000000
00000000000000
000003FFC00000
00003FFFFC0000
0000FFFFFF0000
0003FFFFFFC000
000FFFFFFFE000
001FFFFFFFF800
003FFFFFFFFC00
007FFFFFFFFE00
00FFFFFFFFFF00
01FFFFFFFFFF80
03FFFFFFFFFF80
07FFFF007FFFC0
07FFF8001FFFE0
0FFFF00007FFE0
0FFFC00003FFF0
1FFFC00001FFF0
1FFF800001FFF0
3FFF000000FFF8
3FFF000000FFF8
3FFE0000007FF8
7FFE0000007FFC
7FFC0000007FFC
7FFC0000007FFC
7FFC0000003FFC
7FFFFFFFFFFFFC
FFFFFFFFFFFFFC
FFFFFFFFFFFFFC
FFFFFFFFFFFFFC
FFFFFFFFFFFFFC
FFFFFFFFFFFFFC
FFFFFFFFFFFFFC
FFFFFFFFFFFFFC
FFFFFFFFFFFFFC
FFFC0000000000
FFFC0000000000
FFFC0000000000
7FFC0000000000
7FFC0000000000
7FFE0000000000
7FFE0000000000
3FFE0000006000
3FFF0000007C00
3FFF000000FF80
1FFF800001FFF8
1FFFC00003FFF8
0FFFE00007FFF8
0FFFF8001FFFF0
07FFFE007FFFF0
07FFFFFFFFFFE0
03FFFFFFFFFFE0
01FFFFFFFFFFC0
00FFFFFFFFFF80
007FFFFFFFFF00
003FFFFFFFFE00
001FFFFFFFFC00
0007FFFFFFF000
0003FFFFFFE000
0000FFFFFF8000
00001FFFFC0000
000001FFC00000
ENDCHAR
STARTCHAR 00E9
ENCODING 233
SWIDTH 604 0
DWIDTH 63 0
BBX 54 86 4 -2
BITMAP
00000000FFC000
00000000FFC000
00000000FF8000
00000001FF8000
00000001FF0000
00000003FF0000
00000003FE0000
00000003FE0000
00000007FE0000
00000007FC0000
0000000FFC0000
0000000FF80000
0000001FF80000
0000001FF80000
0000001FF00000
0000003FF00000
0000003FE00000
0000007FE00000
0000007FC00000
0000007FC00000
00000000000000
00000000000000
00000000000000
00000000000000
00000000000000
00000000000000
000003FFC00000
00003FFFFC0000
0000FFFFFF0000
0003FFFFFFC000
000FFFFFFFE000
001FFFFFFFF800
003FFFFFFFFC00
007FFFFFFFFE00
00FFFFFFFFFF00
01FFFFFFFFFF80
03FFFFFFFFFF80
07FFFF007FFFC0
07FFF8001FFFE0
0FFFF00007FFE0
0FFFC00003FFF0
1FFFC00001FFF0
1FFF800001FFF0
3FFF000000FFF8
3FFF000000FFF8
3FFE0000007FF8
7FFE0000007FFC
7FFC0000007FFC
7FFC0000007FFC
7FFC0000003FFC
7FFFFFFFFFFFFC
FFFFFFFFFFFFFC
FFFFFFFFFFFFFC
FFFFFFFFFFFFFC
FFFFFFFFFFFFFC
FFFFFFFFFFFFFC
FFFFFFFFFFFFFC
FFFFFFFFFFFFFC
FFFFFFFFFFFFFC
FFFC0000000000
FFFC0000000000
FFFC0000000000
7FFC0000000000
7FFC0000000000
7FFE0000000000
7FFE0000000000
3FFE0000006000
3FFF0000007C00
3FFF000000FF80
1FFF800001FFF8
1FFFC00003FFF8
0FFFE00007FFF8
0FFFF8001FFFF0
07FFFE007FFFF0
07FFFFFFFFFFE0
03FFFFFFFFFFE0
01FFFFFFFFFFC0
00FFFFFFFFFF80
007FFFFFFFFF00
003FFFFFFFFE00
001FFFFFFFFC00
0007FFFFFFF000
0003FFFFFFE000
0000FFFFFF8000
00001FFFFC0000
000001FFC00000
ENDCHAR
STARTCHAR 00EA
ENCODING 234
SWIDTH 604 0
DWIDTH 63 0
BBX 54 83 4 -2
BITMAP
000003FFC00000
000007FFE00000
00000FFFE00000
00000FFFF00000
00001FFFF80000
00003FFFFC0000
00007FFFFE0000
0000FFFFFF0000
0001FFE7FF8000
0003FFC3FF8000
0003FF81FFC000
0007FF00FFE000
000FFE00FFF000
001FFE007FF800
003FFC003FFC00
007FF8001FFE00
00000000000000
00000000000000
00000000000000
00000000000000
00000000000000
00000000000000
00000000000000
000003FFC00000
00003FFFFC0000
0000FFFFFF0000
0003FFFFFFC000
000FFFFFFFE000
001FFFFFFFF800
003FFFFFFFFC00
007FFFFFFFFE00
00FFFFFFFFFF00
01FFFFFFFFFF80
03FFFFFFFFFF80
07FFFF007FFFC0
07FFF8001FFFE0
0FFFF00007FFE0
0FFFC00003FFF0
1FFFC00001FFF0
1FFF800001FFF0
3FFF000000FFF8
3FFF000000FFF8
3FFE0000007FF8
7FFE0000007FFC
7FFC0000007FFC
7FFC0000007FFC
7FFC0000003FFC
7FFFFFFFFFFFFC
FFFFFFFFFFFFFC
FFFFFFFFFFFFFC
FFFFFFFFFFFFFC
FFFFFFFFFFFFFC
FFFFFFFFFFFFFC
FFFFFFFFFFFFFC
FFFFFFFFFFFFFC
FFFFFFFFFFFFFC
FFFC0000000000
FFFC0000000000
FFFC0000000000
7FFC0000000000
7FFC0000000000
7FFE0000000000
7FFE0000000000
3FFE0000006000
3FFF0000007C00
3FFF000000FF80
1FFF800001FFF8
1FFFC00003FFF8
0FFFE00007FFF8
0FFFF8001FFFF0
07FFFE007FFFF0
07FFFFFFFFFFE0
03FFFFFFFFFFE0
01FFFFFFFFFFC0
00FFFFFFFFFF80
007FFFFFFFFF00
003FFFFFFFFE00
001FFFFFFFFC00
0007FFFFFFF000
0003FFFFFFE000
0000FFFFFF8000
00001FFFFC0000
000001FFC00000
ENDCHAR
STARTCHAR 00EB
ENCODING 235
SWIDTH 604 0
DWIDTH 63 0
BBX 54 78 4 -2
BITMAP
000FFE007FF800
000FFE007FF800
000FFE007FF800
000FFE007FF800
000FFE007FF800
000FFE007FF800
000FFE007FF800
000FFE007FF800
000FFE007FF800
000FFE007FF800
000FFE007FF800
00000000000000
00000000000000
00000000000000
00000000000000
00000000000000
00000000000000
00000000000000
000003FFC00000
00003FFFFC0000
0000FFFFFF0000
0003FFFFFFC000
000FFFFFFFE000
001FFFFFFFF800
003FFFFFFFFC00
007FFFFFFFFE00
00FFFFFFFFFF00
01FFFFFFFFFF80
03FFFFFFFFFF80
07FFFF007FFFC0
07FFF8001FFFE0
0FFFF00007FFE0
0FFFC00003FFF0
1FFFC00001FFF0
1FFF800001FFF0
3FFF000000FFF8
3FFF000000FFF8
3FFE0000007FF8
7FFE0000007FFC
7FFC0000007FFC
7FFC0000007FFC
7FFC0000003FFC
7FFFFFFFFFFFFC
FFFFFFFFFFFFFC
FFFFFFFFFFFFFC
FFFFFFFFFFFFFC
FFFFFFFFFFFFFC
FFFFFFFFFFFFFC
FFFFFFFFFFFFFC
FFFFFFFFFFFFFC
FFFFFFFFFFFFFC
FFFC0000000000
FFFC0000000000
FFFC0000000000
7FFC0000000000
7FFC0000000000
7FFE0000000000
7FFE0000000000
3FFE0000006000
3FFF0000007C00
3FFF000000FF80
1FFF800001FFF8
1FFFC00003FFF8
0FFFE00007FFF8
0FFFF8001FFFF0
07FFFE007FFFF0
07FFFFFFFFFFE0
03FFFFFFFFFFE0
01FFFFFFFFFFC0
00FFFFFFFFFF80
007FFFFFFFFF00
003FFFFFFFFE00
001FFFFFFFFC00
0007FFFFFFF000
0003FFFFFFE000
0000FFFFFF8000
00001FFFFC0000
000001FFC00000
ENDCHAR
STARTCHAR 00EC
ENCODING 236
SWIDTH 278 0
DWIDTH 29 0
BBX 19 83 2 0
BITMAP
FFC000
FFC000
7FC000
7FE000
3FE000
3FF000
3FF000
1FF000
1FF800
0FF800
0FFC00
07FC00
07FC00
07FE00
03FE00
03FF00
01FF00
01FF80
01FF80
000000
000000
000000
000000
000000
000000
000000
000000
03FFE0
03FFE0
03FFE0
03FFE0
03FFE0
03FFE0
03FFE0
03FFE0
03FFE0
03FFE0
03FFE0
03FFE0
03FFE0
03FFE0
03FFE0
03FFE0
03FFE0
03FFE0
03FFE0
03FFE0
03FFE0
03FFE0
03FFE0
03FFE0
03FFE0
03FFE0
03FFE0
03FFE0
03FFE0
03FFE0
03FFE0
03FFE0
03FFE0
03FFE0
03FFE0
03FFE0
03FFE0
03FFE0
03FFE0
03FFE0
03FFE0
03FFE0
03FFE0
03FFE0
03FFE0
03FFE0
03FFE0
03FFE0
03FFE0
03FFE0
03FFE0
03FFE0
03FFE0
03FFE0
03FFE0
03FFE0
ENDCHAR
STARTCHAR 00ED
ENCODING 237
SWIDTH 278 0
DWIDTH 29 0
BBX 19 83 8 0
BITMAP
003FE0
007FE0
007FC0
00FFC0
00FFC0
00FF80
01FF80
01FF00
03FF00
03FF00
03FE00
07FE00
07FC00
0FFC00
0FF800
1FF800
1FF800
1FF000
3FF000
000000
000000
000000
000000
000000
000000
000000
000000
FFF800
FFF800
FFF800
FFF800
FFF800
FFF800
FFF800
FFF800
FFF800
FFF800
FFF800
FFF800
FFF800
FFF800
FFF800
FFF800
FFF800
FFF800
FFF800
FFF800
FFF800
FFF800
FFF800
FFF800
FFF800
FFF800
FFF800
FFF800
FFF800
FFF800
FFF800
FFF800
FFF800
FFF800
FFF800
FFF800
FFF800
FFF800
FFF800
FFF800
FFF800
FFF800
FFF800
FFF800
FFF800
FFF800
FFF800
FFF800
FFF800
FFF800
FFF800
FFF800
FFF800
FFF800
FFF800
FFF800
ENDCHAR
STARTCHAR 00EE
ENCODING 238
SWIDTH 278 0
DWIDTH 29 0
BBX 38 80 -4 0
BITMAP
0007FF8000
000FFFC000
001FFFE000
001FFFF000
003FFFF800
007FFFFC00
00FFFFFE00
01FFEFFE00
03FFC7FF00
07FF83FF80
07FF03FFC0
0FFE01FFE0
1FFC00FFF0
3FFC007FF8
7FF8003FFC
FFF0001FFC
0000000000
0000000000
0000000000
0000000000
0000000000
0000000000
0000000000
0000000000
000FFF8000
000FFF8000
000FFF8000
000FFF8000
000FFF8000
000FFF8000
000FFF8000
000FFF8000
000FFF8000
000FFF8000
000FFF8000
000FFF8000
000FFF8000
000FFF8000
000FFF8000
000FFF8000
000FFF8000
000FFF8000
000FFF8000
000FFF8000
000FFF8000
000FFF8000
000FFF8000
000FFF8000
000FFF8000
000FFF8000
000FFF8000
000FFF8000
000FFF8000
000FFF8000
000FFF8000
000FFF8000
000FFF8000
000FFF8000
000FFF8000
000FFF8000
000FFF8000
000FFF8000
000FFF8000
000FFF8000
000FFF8000
000FFF8000
000FFF8000
000FFF8000
000FFF8000
000FFF8000
000FFF8000
000FFF8000
000FFF8000
000FFF8000
000FFF8000
000FFF8000
000FFF8000
000FFF8000
000FFF8000
000FFF8000
ENDCHAR
STARTCHAR 00EF
ENCODING 239
SWIDTH 278 0
DWIDTH 29 0
BBX 33 76 -2 0
BITMAP
FFF003FF80
FFF003FF80
FFF003FF80
FFF003FF80
FFF003FF80
FFF003FF80
FFF003FF80
FFF003FF80
FFF003FF80
FFF003FF80
FFF003FF80
0000000000
0000000000
0000000000
0000000000
0000000000
0000000000
0000000000
0000000000
0000000000
003FFE0000
003FFE0000
003FFE0000
003FFE0000
003FFE0000
003FFE0000
003FFE0000
003FFE0000
003FFE0000
003FFE0000
003FFE0000
003FFE0000
003FFE0000
003FFE0000
003FFE0000
003FFE0000
003FFE0000
003FFE0000
003FFE0000
003FFE0000
003FFE0000
003FFE0000
003FFE0000
003FFE0000
003FFE0000
003FFE0000
003FFE0000
003FFE0000
003FFE0000
003FFE0000
003FFE0000
003FFE0000
003FFE0000
003FFE0000
003FFE0000
003FFE0000
003FFE0000
003FFE0000
003FFE0000
003FFE0000
003FFE0000
003FFE0000
003FFE0000
003FFE0000
003FFE0000
003FFE0000
003FFE0000
003FFE0000
003FFE0000
003FFE0000
003FFE0000
003FFE0000
003FFE0000
003FFE0000
003FFE0000
003FFE0000
ENDCHAR
ENDFONT
